G04 EAGLE Gerber RS-274X export*
G75*
%MOMM*%
%FSLAX34Y34*%
%LPD*%
%INVias*%
%IPPOS*%
%AMOC8*
5,1,8,0,0,1.08239X$1,22.5*%
G01*
%ADD10C,0.756400*%


D10*
X711200Y152400D03*
X355600Y50800D03*
X711200Y25400D03*
X749300Y177800D03*
X177800Y330200D03*
X584200Y571500D03*
X419100Y38100D03*
X495300Y190500D03*
X647700Y38100D03*
X379730Y355600D03*
X584200Y381000D03*
X431800Y520700D03*
X381000Y520700D03*
X204470Y576580D03*
X622300Y574040D03*
X786130Y571500D03*
X812800Y546100D03*
X749300Y91440D03*
X190500Y383540D03*
X749300Y152400D03*
X228600Y571500D03*
X965200Y508000D03*
X355600Y520700D03*
X241300Y228600D03*
X622300Y177800D03*
X152400Y469900D03*
X787400Y495300D03*
X660400Y558800D03*
X457200Y76200D03*
X508000Y165100D03*
X685800Y63500D03*
X660400Y368300D03*
X431800Y546100D03*
X647700Y495300D03*
X635000Y355600D03*
X229870Y546100D03*
X623570Y449580D03*
X355600Y457200D03*
X381000Y546100D03*
X254000Y469900D03*
X533400Y266700D03*
X241300Y444500D03*
X623570Y438150D03*
X402590Y354330D03*
X622300Y381000D03*
X464820Y223520D03*
X431800Y279400D03*
X557530Y441960D03*
X558800Y342900D03*
X863600Y546100D03*
X635000Y546100D03*
X482600Y38100D03*
X558800Y38100D03*
X393700Y393700D03*
X360680Y393700D03*
X228600Y355600D03*
X457200Y50800D03*
X571500Y50800D03*
M02*
