G04 EAGLE Gerber RS-274X export*
G75*
%MOMM*%
%FSLAX34Y34*%
%LPD*%
%IN*%
%IPPOS*%
%AMOC8*
5,1,8,0,0,1.08239X$1,22.5*%
G01*
%ADD10C,0.254000*%


D10*
X0Y215900D02*
X48Y214793D01*
X193Y213695D01*
X433Y212613D01*
X766Y211556D01*
X1190Y210533D01*
X1701Y209550D01*
X2297Y208616D01*
X2971Y207737D01*
X3720Y206920D01*
X4537Y206171D01*
X5416Y205497D01*
X6350Y204901D01*
X7333Y204390D01*
X8356Y203966D01*
X9413Y203633D01*
X10495Y203393D01*
X11593Y203248D01*
X12700Y203200D01*
X292100Y203200D01*
X293207Y203152D01*
X294305Y203007D01*
X295387Y202767D01*
X296444Y202434D01*
X297467Y202010D01*
X298450Y201499D01*
X299384Y200903D01*
X300263Y200229D01*
X301080Y199480D01*
X301829Y198663D01*
X302503Y197784D01*
X303099Y196850D01*
X303610Y195867D01*
X304034Y194844D01*
X304367Y193787D01*
X304607Y192705D01*
X304752Y191607D01*
X304800Y190500D01*
X304800Y12700D01*
X304848Y11593D01*
X304993Y10495D01*
X305233Y9413D01*
X305566Y8356D01*
X305990Y7333D01*
X306501Y6350D01*
X307097Y5416D01*
X307771Y4537D01*
X308520Y3720D01*
X309337Y2971D01*
X310216Y2297D01*
X311150Y1701D01*
X312133Y1190D01*
X313156Y766D01*
X314213Y433D01*
X315295Y193D01*
X316393Y48D01*
X317500Y0D01*
X774700Y0D01*
X775807Y48D01*
X776905Y193D01*
X777987Y433D01*
X779044Y766D01*
X780067Y1190D01*
X781050Y1701D01*
X781984Y2297D01*
X782863Y2971D01*
X783680Y3720D01*
X784429Y4537D01*
X785103Y5416D01*
X785699Y6350D01*
X786210Y7333D01*
X786634Y8356D01*
X786967Y9413D01*
X787207Y10495D01*
X787352Y11593D01*
X787400Y12700D01*
X787400Y190500D01*
X787448Y191607D01*
X787593Y192705D01*
X787833Y193787D01*
X788166Y194844D01*
X788590Y195867D01*
X789101Y196850D01*
X789697Y197784D01*
X790371Y198663D01*
X791120Y199480D01*
X791937Y200229D01*
X792816Y200903D01*
X793750Y201499D01*
X794733Y202010D01*
X795756Y202434D01*
X796813Y202767D01*
X797895Y203007D01*
X798993Y203152D01*
X800100Y203200D01*
X1003300Y203200D01*
X1004359Y203080D01*
X1005424Y203053D01*
X1006488Y203118D01*
X1007541Y203276D01*
X1008577Y203525D01*
X1009588Y203864D01*
X1010565Y204289D01*
X1011501Y204798D01*
X1012389Y205387D01*
X1013223Y206050D01*
X1013995Y206784D01*
X1014701Y207583D01*
X1015335Y208440D01*
X1015891Y209348D01*
X1016366Y210302D01*
X1016756Y211294D01*
X1017058Y212316D01*
X1017270Y213360D01*
X1017270Y784860D01*
X1017270Y786135D01*
X1017158Y787406D01*
X1016937Y788662D01*
X1016606Y789894D01*
X1016170Y791092D01*
X1015631Y792248D01*
X1014993Y793352D01*
X1014261Y794396D01*
X1013441Y795373D01*
X1012539Y796275D01*
X1011562Y797095D01*
X1010517Y797826D01*
X1009413Y798463D01*
X1008257Y799002D01*
X1007058Y799438D01*
X1005827Y799768D01*
X1004571Y799989D01*
X1003300Y800100D01*
X12700Y800100D01*
X11593Y800052D01*
X10495Y799907D01*
X9413Y799667D01*
X8356Y799334D01*
X7333Y798910D01*
X6350Y798399D01*
X5416Y797803D01*
X4537Y797129D01*
X3720Y796380D01*
X2971Y795563D01*
X2297Y794684D01*
X1701Y793750D01*
X1190Y792767D01*
X766Y791744D01*
X433Y790687D01*
X193Y789605D01*
X48Y788507D01*
X0Y787400D01*
X0Y215900D01*
X545000Y688000D02*
X561000Y688000D01*
X561000Y709000D01*
X545000Y709000D01*
X545000Y688000D01*
X455000Y688000D02*
X471000Y688000D01*
X471000Y709000D01*
X455000Y709000D01*
X455000Y688000D01*
X951400Y688000D02*
X967400Y688000D01*
X967400Y709000D01*
X951400Y709000D01*
X951400Y688000D01*
X861400Y688000D02*
X877400Y688000D01*
X877400Y709000D01*
X861400Y709000D01*
X861400Y688000D01*
X748200Y688000D02*
X764200Y688000D01*
X764200Y709000D01*
X748200Y709000D01*
X748200Y688000D01*
X658200Y688000D02*
X674200Y688000D01*
X674200Y709000D01*
X658200Y709000D01*
X658200Y688000D01*
X251800Y688000D02*
X267800Y688000D01*
X267800Y709000D01*
X251800Y709000D01*
X251800Y688000D01*
X341800Y688000D02*
X357800Y688000D01*
X357800Y709000D01*
X341800Y709000D01*
X341800Y688000D01*
M02*
