G04 EAGLE Gerber RS-274X export*
G75*
%MOMM*%
%FSLAX34Y34*%
%LPD*%
%INSilkscreen Bottom*%
%IPPOS*%
%AMOC8*
5,1,8,0,0,1.08239X$1,22.5*%
G01*
%ADD10C,0.203200*%
%ADD11C,0.101600*%


D10*
X345800Y752500D02*
X263800Y752500D01*
X263800Y639500D02*
X345800Y639500D01*
X345800Y747000D02*
X351300Y747000D01*
X345800Y747000D02*
X345800Y752500D01*
X345800Y645000D02*
X345800Y639500D01*
X345800Y645000D02*
X351300Y645000D01*
X263800Y645000D02*
X258300Y645000D01*
X263800Y645000D02*
X263800Y639500D01*
X263800Y747000D02*
X263800Y752500D01*
X263800Y747000D02*
X258300Y747000D01*
X351300Y747000D02*
X351300Y725000D01*
X351300Y677000D02*
X351300Y645000D01*
X258300Y725000D02*
X258300Y747000D01*
X258300Y677000D02*
X258300Y645000D01*
D11*
X323300Y652500D02*
X323302Y652661D01*
X323308Y652821D01*
X323318Y652982D01*
X323332Y653142D01*
X323350Y653302D01*
X323371Y653461D01*
X323397Y653620D01*
X323427Y653778D01*
X323460Y653935D01*
X323498Y654092D01*
X323539Y654247D01*
X323584Y654401D01*
X323633Y654554D01*
X323686Y654706D01*
X323742Y654857D01*
X323803Y655006D01*
X323866Y655154D01*
X323934Y655300D01*
X324005Y655444D01*
X324079Y655586D01*
X324157Y655727D01*
X324239Y655865D01*
X324324Y656002D01*
X324412Y656136D01*
X324504Y656268D01*
X324599Y656398D01*
X324697Y656526D01*
X324798Y656651D01*
X324902Y656773D01*
X325009Y656893D01*
X325119Y657010D01*
X325232Y657125D01*
X325348Y657236D01*
X325467Y657345D01*
X325588Y657450D01*
X325712Y657553D01*
X325838Y657653D01*
X325966Y657749D01*
X326097Y657842D01*
X326231Y657932D01*
X326366Y658019D01*
X326504Y658102D01*
X326643Y658182D01*
X326785Y658258D01*
X326928Y658331D01*
X327073Y658400D01*
X327220Y658466D01*
X327368Y658528D01*
X327518Y658586D01*
X327669Y658641D01*
X327822Y658692D01*
X327976Y658739D01*
X328131Y658782D01*
X328287Y658821D01*
X328443Y658857D01*
X328601Y658888D01*
X328759Y658916D01*
X328918Y658940D01*
X329078Y658960D01*
X329238Y658976D01*
X329398Y658988D01*
X329559Y658996D01*
X329720Y659000D01*
X329880Y659000D01*
X330041Y658996D01*
X330202Y658988D01*
X330362Y658976D01*
X330522Y658960D01*
X330682Y658940D01*
X330841Y658916D01*
X330999Y658888D01*
X331157Y658857D01*
X331313Y658821D01*
X331469Y658782D01*
X331624Y658739D01*
X331778Y658692D01*
X331931Y658641D01*
X332082Y658586D01*
X332232Y658528D01*
X332380Y658466D01*
X332527Y658400D01*
X332672Y658331D01*
X332815Y658258D01*
X332957Y658182D01*
X333096Y658102D01*
X333234Y658019D01*
X333369Y657932D01*
X333503Y657842D01*
X333634Y657749D01*
X333762Y657653D01*
X333888Y657553D01*
X334012Y657450D01*
X334133Y657345D01*
X334252Y657236D01*
X334368Y657125D01*
X334481Y657010D01*
X334591Y656893D01*
X334698Y656773D01*
X334802Y656651D01*
X334903Y656526D01*
X335001Y656398D01*
X335096Y656268D01*
X335188Y656136D01*
X335276Y656002D01*
X335361Y655865D01*
X335443Y655727D01*
X335521Y655586D01*
X335595Y655444D01*
X335666Y655300D01*
X335734Y655154D01*
X335797Y655006D01*
X335858Y654857D01*
X335914Y654706D01*
X335967Y654554D01*
X336016Y654401D01*
X336061Y654247D01*
X336102Y654092D01*
X336140Y653935D01*
X336173Y653778D01*
X336203Y653620D01*
X336229Y653461D01*
X336250Y653302D01*
X336268Y653142D01*
X336282Y652982D01*
X336292Y652821D01*
X336298Y652661D01*
X336300Y652500D01*
X336298Y652339D01*
X336292Y652179D01*
X336282Y652018D01*
X336268Y651858D01*
X336250Y651698D01*
X336229Y651539D01*
X336203Y651380D01*
X336173Y651222D01*
X336140Y651065D01*
X336102Y650908D01*
X336061Y650753D01*
X336016Y650599D01*
X335967Y650446D01*
X335914Y650294D01*
X335858Y650143D01*
X335797Y649994D01*
X335734Y649846D01*
X335666Y649700D01*
X335595Y649556D01*
X335521Y649414D01*
X335443Y649273D01*
X335361Y649135D01*
X335276Y648998D01*
X335188Y648864D01*
X335096Y648732D01*
X335001Y648602D01*
X334903Y648474D01*
X334802Y648349D01*
X334698Y648227D01*
X334591Y648107D01*
X334481Y647990D01*
X334368Y647875D01*
X334252Y647764D01*
X334133Y647655D01*
X334012Y647550D01*
X333888Y647447D01*
X333762Y647347D01*
X333634Y647251D01*
X333503Y647158D01*
X333369Y647068D01*
X333234Y646981D01*
X333096Y646898D01*
X332957Y646818D01*
X332815Y646742D01*
X332672Y646669D01*
X332527Y646600D01*
X332380Y646534D01*
X332232Y646472D01*
X332082Y646414D01*
X331931Y646359D01*
X331778Y646308D01*
X331624Y646261D01*
X331469Y646218D01*
X331313Y646179D01*
X331157Y646143D01*
X330999Y646112D01*
X330841Y646084D01*
X330682Y646060D01*
X330522Y646040D01*
X330362Y646024D01*
X330202Y646012D01*
X330041Y646004D01*
X329880Y646000D01*
X329720Y646000D01*
X329559Y646004D01*
X329398Y646012D01*
X329238Y646024D01*
X329078Y646040D01*
X328918Y646060D01*
X328759Y646084D01*
X328601Y646112D01*
X328443Y646143D01*
X328287Y646179D01*
X328131Y646218D01*
X327976Y646261D01*
X327822Y646308D01*
X327669Y646359D01*
X327518Y646414D01*
X327368Y646472D01*
X327220Y646534D01*
X327073Y646600D01*
X326928Y646669D01*
X326785Y646742D01*
X326643Y646818D01*
X326504Y646898D01*
X326366Y646981D01*
X326231Y647068D01*
X326097Y647158D01*
X325966Y647251D01*
X325838Y647347D01*
X325712Y647447D01*
X325588Y647550D01*
X325467Y647655D01*
X325348Y647764D01*
X325232Y647875D01*
X325119Y647990D01*
X325009Y648107D01*
X324902Y648227D01*
X324798Y648349D01*
X324697Y648474D01*
X324599Y648602D01*
X324504Y648732D01*
X324412Y648864D01*
X324324Y648998D01*
X324239Y649135D01*
X324157Y649273D01*
X324079Y649414D01*
X324005Y649556D01*
X323934Y649700D01*
X323866Y649846D01*
X323803Y649994D01*
X323742Y650143D01*
X323686Y650294D01*
X323633Y650446D01*
X323584Y650599D01*
X323539Y650753D01*
X323498Y650908D01*
X323460Y651065D01*
X323427Y651222D01*
X323397Y651380D01*
X323371Y651539D01*
X323350Y651698D01*
X323332Y651858D01*
X323318Y652018D01*
X323308Y652179D01*
X323302Y652339D01*
X323300Y652500D01*
X273300Y652500D02*
X273302Y652661D01*
X273308Y652821D01*
X273318Y652982D01*
X273332Y653142D01*
X273350Y653302D01*
X273371Y653461D01*
X273397Y653620D01*
X273427Y653778D01*
X273460Y653935D01*
X273498Y654092D01*
X273539Y654247D01*
X273584Y654401D01*
X273633Y654554D01*
X273686Y654706D01*
X273742Y654857D01*
X273803Y655006D01*
X273866Y655154D01*
X273934Y655300D01*
X274005Y655444D01*
X274079Y655586D01*
X274157Y655727D01*
X274239Y655865D01*
X274324Y656002D01*
X274412Y656136D01*
X274504Y656268D01*
X274599Y656398D01*
X274697Y656526D01*
X274798Y656651D01*
X274902Y656773D01*
X275009Y656893D01*
X275119Y657010D01*
X275232Y657125D01*
X275348Y657236D01*
X275467Y657345D01*
X275588Y657450D01*
X275712Y657553D01*
X275838Y657653D01*
X275966Y657749D01*
X276097Y657842D01*
X276231Y657932D01*
X276366Y658019D01*
X276504Y658102D01*
X276643Y658182D01*
X276785Y658258D01*
X276928Y658331D01*
X277073Y658400D01*
X277220Y658466D01*
X277368Y658528D01*
X277518Y658586D01*
X277669Y658641D01*
X277822Y658692D01*
X277976Y658739D01*
X278131Y658782D01*
X278287Y658821D01*
X278443Y658857D01*
X278601Y658888D01*
X278759Y658916D01*
X278918Y658940D01*
X279078Y658960D01*
X279238Y658976D01*
X279398Y658988D01*
X279559Y658996D01*
X279720Y659000D01*
X279880Y659000D01*
X280041Y658996D01*
X280202Y658988D01*
X280362Y658976D01*
X280522Y658960D01*
X280682Y658940D01*
X280841Y658916D01*
X280999Y658888D01*
X281157Y658857D01*
X281313Y658821D01*
X281469Y658782D01*
X281624Y658739D01*
X281778Y658692D01*
X281931Y658641D01*
X282082Y658586D01*
X282232Y658528D01*
X282380Y658466D01*
X282527Y658400D01*
X282672Y658331D01*
X282815Y658258D01*
X282957Y658182D01*
X283096Y658102D01*
X283234Y658019D01*
X283369Y657932D01*
X283503Y657842D01*
X283634Y657749D01*
X283762Y657653D01*
X283888Y657553D01*
X284012Y657450D01*
X284133Y657345D01*
X284252Y657236D01*
X284368Y657125D01*
X284481Y657010D01*
X284591Y656893D01*
X284698Y656773D01*
X284802Y656651D01*
X284903Y656526D01*
X285001Y656398D01*
X285096Y656268D01*
X285188Y656136D01*
X285276Y656002D01*
X285361Y655865D01*
X285443Y655727D01*
X285521Y655586D01*
X285595Y655444D01*
X285666Y655300D01*
X285734Y655154D01*
X285797Y655006D01*
X285858Y654857D01*
X285914Y654706D01*
X285967Y654554D01*
X286016Y654401D01*
X286061Y654247D01*
X286102Y654092D01*
X286140Y653935D01*
X286173Y653778D01*
X286203Y653620D01*
X286229Y653461D01*
X286250Y653302D01*
X286268Y653142D01*
X286282Y652982D01*
X286292Y652821D01*
X286298Y652661D01*
X286300Y652500D01*
X286298Y652339D01*
X286292Y652179D01*
X286282Y652018D01*
X286268Y651858D01*
X286250Y651698D01*
X286229Y651539D01*
X286203Y651380D01*
X286173Y651222D01*
X286140Y651065D01*
X286102Y650908D01*
X286061Y650753D01*
X286016Y650599D01*
X285967Y650446D01*
X285914Y650294D01*
X285858Y650143D01*
X285797Y649994D01*
X285734Y649846D01*
X285666Y649700D01*
X285595Y649556D01*
X285521Y649414D01*
X285443Y649273D01*
X285361Y649135D01*
X285276Y648998D01*
X285188Y648864D01*
X285096Y648732D01*
X285001Y648602D01*
X284903Y648474D01*
X284802Y648349D01*
X284698Y648227D01*
X284591Y648107D01*
X284481Y647990D01*
X284368Y647875D01*
X284252Y647764D01*
X284133Y647655D01*
X284012Y647550D01*
X283888Y647447D01*
X283762Y647347D01*
X283634Y647251D01*
X283503Y647158D01*
X283369Y647068D01*
X283234Y646981D01*
X283096Y646898D01*
X282957Y646818D01*
X282815Y646742D01*
X282672Y646669D01*
X282527Y646600D01*
X282380Y646534D01*
X282232Y646472D01*
X282082Y646414D01*
X281931Y646359D01*
X281778Y646308D01*
X281624Y646261D01*
X281469Y646218D01*
X281313Y646179D01*
X281157Y646143D01*
X280999Y646112D01*
X280841Y646084D01*
X280682Y646060D01*
X280522Y646040D01*
X280362Y646024D01*
X280202Y646012D01*
X280041Y646004D01*
X279880Y646000D01*
X279720Y646000D01*
X279559Y646004D01*
X279398Y646012D01*
X279238Y646024D01*
X279078Y646040D01*
X278918Y646060D01*
X278759Y646084D01*
X278601Y646112D01*
X278443Y646143D01*
X278287Y646179D01*
X278131Y646218D01*
X277976Y646261D01*
X277822Y646308D01*
X277669Y646359D01*
X277518Y646414D01*
X277368Y646472D01*
X277220Y646534D01*
X277073Y646600D01*
X276928Y646669D01*
X276785Y646742D01*
X276643Y646818D01*
X276504Y646898D01*
X276366Y646981D01*
X276231Y647068D01*
X276097Y647158D01*
X275966Y647251D01*
X275838Y647347D01*
X275712Y647447D01*
X275588Y647550D01*
X275467Y647655D01*
X275348Y647764D01*
X275232Y647875D01*
X275119Y647990D01*
X275009Y648107D01*
X274902Y648227D01*
X274798Y648349D01*
X274697Y648474D01*
X274599Y648602D01*
X274504Y648732D01*
X274412Y648864D01*
X274324Y648998D01*
X274239Y649135D01*
X274157Y649273D01*
X274079Y649414D01*
X274005Y649556D01*
X273934Y649700D01*
X273866Y649846D01*
X273803Y649994D01*
X273742Y650143D01*
X273686Y650294D01*
X273633Y650446D01*
X273584Y650599D01*
X273539Y650753D01*
X273498Y650908D01*
X273460Y651065D01*
X273427Y651222D01*
X273397Y651380D01*
X273371Y651539D01*
X273350Y651698D01*
X273332Y651858D01*
X273318Y652018D01*
X273308Y652179D01*
X273302Y652339D01*
X273300Y652500D01*
X323300Y741500D02*
X323302Y741661D01*
X323308Y741821D01*
X323318Y741982D01*
X323332Y742142D01*
X323350Y742302D01*
X323371Y742461D01*
X323397Y742620D01*
X323427Y742778D01*
X323460Y742935D01*
X323498Y743092D01*
X323539Y743247D01*
X323584Y743401D01*
X323633Y743554D01*
X323686Y743706D01*
X323742Y743857D01*
X323803Y744006D01*
X323866Y744154D01*
X323934Y744300D01*
X324005Y744444D01*
X324079Y744586D01*
X324157Y744727D01*
X324239Y744865D01*
X324324Y745002D01*
X324412Y745136D01*
X324504Y745268D01*
X324599Y745398D01*
X324697Y745526D01*
X324798Y745651D01*
X324902Y745773D01*
X325009Y745893D01*
X325119Y746010D01*
X325232Y746125D01*
X325348Y746236D01*
X325467Y746345D01*
X325588Y746450D01*
X325712Y746553D01*
X325838Y746653D01*
X325966Y746749D01*
X326097Y746842D01*
X326231Y746932D01*
X326366Y747019D01*
X326504Y747102D01*
X326643Y747182D01*
X326785Y747258D01*
X326928Y747331D01*
X327073Y747400D01*
X327220Y747466D01*
X327368Y747528D01*
X327518Y747586D01*
X327669Y747641D01*
X327822Y747692D01*
X327976Y747739D01*
X328131Y747782D01*
X328287Y747821D01*
X328443Y747857D01*
X328601Y747888D01*
X328759Y747916D01*
X328918Y747940D01*
X329078Y747960D01*
X329238Y747976D01*
X329398Y747988D01*
X329559Y747996D01*
X329720Y748000D01*
X329880Y748000D01*
X330041Y747996D01*
X330202Y747988D01*
X330362Y747976D01*
X330522Y747960D01*
X330682Y747940D01*
X330841Y747916D01*
X330999Y747888D01*
X331157Y747857D01*
X331313Y747821D01*
X331469Y747782D01*
X331624Y747739D01*
X331778Y747692D01*
X331931Y747641D01*
X332082Y747586D01*
X332232Y747528D01*
X332380Y747466D01*
X332527Y747400D01*
X332672Y747331D01*
X332815Y747258D01*
X332957Y747182D01*
X333096Y747102D01*
X333234Y747019D01*
X333369Y746932D01*
X333503Y746842D01*
X333634Y746749D01*
X333762Y746653D01*
X333888Y746553D01*
X334012Y746450D01*
X334133Y746345D01*
X334252Y746236D01*
X334368Y746125D01*
X334481Y746010D01*
X334591Y745893D01*
X334698Y745773D01*
X334802Y745651D01*
X334903Y745526D01*
X335001Y745398D01*
X335096Y745268D01*
X335188Y745136D01*
X335276Y745002D01*
X335361Y744865D01*
X335443Y744727D01*
X335521Y744586D01*
X335595Y744444D01*
X335666Y744300D01*
X335734Y744154D01*
X335797Y744006D01*
X335858Y743857D01*
X335914Y743706D01*
X335967Y743554D01*
X336016Y743401D01*
X336061Y743247D01*
X336102Y743092D01*
X336140Y742935D01*
X336173Y742778D01*
X336203Y742620D01*
X336229Y742461D01*
X336250Y742302D01*
X336268Y742142D01*
X336282Y741982D01*
X336292Y741821D01*
X336298Y741661D01*
X336300Y741500D01*
X336298Y741339D01*
X336292Y741179D01*
X336282Y741018D01*
X336268Y740858D01*
X336250Y740698D01*
X336229Y740539D01*
X336203Y740380D01*
X336173Y740222D01*
X336140Y740065D01*
X336102Y739908D01*
X336061Y739753D01*
X336016Y739599D01*
X335967Y739446D01*
X335914Y739294D01*
X335858Y739143D01*
X335797Y738994D01*
X335734Y738846D01*
X335666Y738700D01*
X335595Y738556D01*
X335521Y738414D01*
X335443Y738273D01*
X335361Y738135D01*
X335276Y737998D01*
X335188Y737864D01*
X335096Y737732D01*
X335001Y737602D01*
X334903Y737474D01*
X334802Y737349D01*
X334698Y737227D01*
X334591Y737107D01*
X334481Y736990D01*
X334368Y736875D01*
X334252Y736764D01*
X334133Y736655D01*
X334012Y736550D01*
X333888Y736447D01*
X333762Y736347D01*
X333634Y736251D01*
X333503Y736158D01*
X333369Y736068D01*
X333234Y735981D01*
X333096Y735898D01*
X332957Y735818D01*
X332815Y735742D01*
X332672Y735669D01*
X332527Y735600D01*
X332380Y735534D01*
X332232Y735472D01*
X332082Y735414D01*
X331931Y735359D01*
X331778Y735308D01*
X331624Y735261D01*
X331469Y735218D01*
X331313Y735179D01*
X331157Y735143D01*
X330999Y735112D01*
X330841Y735084D01*
X330682Y735060D01*
X330522Y735040D01*
X330362Y735024D01*
X330202Y735012D01*
X330041Y735004D01*
X329880Y735000D01*
X329720Y735000D01*
X329559Y735004D01*
X329398Y735012D01*
X329238Y735024D01*
X329078Y735040D01*
X328918Y735060D01*
X328759Y735084D01*
X328601Y735112D01*
X328443Y735143D01*
X328287Y735179D01*
X328131Y735218D01*
X327976Y735261D01*
X327822Y735308D01*
X327669Y735359D01*
X327518Y735414D01*
X327368Y735472D01*
X327220Y735534D01*
X327073Y735600D01*
X326928Y735669D01*
X326785Y735742D01*
X326643Y735818D01*
X326504Y735898D01*
X326366Y735981D01*
X326231Y736068D01*
X326097Y736158D01*
X325966Y736251D01*
X325838Y736347D01*
X325712Y736447D01*
X325588Y736550D01*
X325467Y736655D01*
X325348Y736764D01*
X325232Y736875D01*
X325119Y736990D01*
X325009Y737107D01*
X324902Y737227D01*
X324798Y737349D01*
X324697Y737474D01*
X324599Y737602D01*
X324504Y737732D01*
X324412Y737864D01*
X324324Y737998D01*
X324239Y738135D01*
X324157Y738273D01*
X324079Y738414D01*
X324005Y738556D01*
X323934Y738700D01*
X323866Y738846D01*
X323803Y738994D01*
X323742Y739143D01*
X323686Y739294D01*
X323633Y739446D01*
X323584Y739599D01*
X323539Y739753D01*
X323498Y739908D01*
X323460Y740065D01*
X323427Y740222D01*
X323397Y740380D01*
X323371Y740539D01*
X323350Y740698D01*
X323332Y740858D01*
X323318Y741018D01*
X323308Y741179D01*
X323302Y741339D01*
X323300Y741500D01*
X273300Y741500D02*
X273302Y741661D01*
X273308Y741821D01*
X273318Y741982D01*
X273332Y742142D01*
X273350Y742302D01*
X273371Y742461D01*
X273397Y742620D01*
X273427Y742778D01*
X273460Y742935D01*
X273498Y743092D01*
X273539Y743247D01*
X273584Y743401D01*
X273633Y743554D01*
X273686Y743706D01*
X273742Y743857D01*
X273803Y744006D01*
X273866Y744154D01*
X273934Y744300D01*
X274005Y744444D01*
X274079Y744586D01*
X274157Y744727D01*
X274239Y744865D01*
X274324Y745002D01*
X274412Y745136D01*
X274504Y745268D01*
X274599Y745398D01*
X274697Y745526D01*
X274798Y745651D01*
X274902Y745773D01*
X275009Y745893D01*
X275119Y746010D01*
X275232Y746125D01*
X275348Y746236D01*
X275467Y746345D01*
X275588Y746450D01*
X275712Y746553D01*
X275838Y746653D01*
X275966Y746749D01*
X276097Y746842D01*
X276231Y746932D01*
X276366Y747019D01*
X276504Y747102D01*
X276643Y747182D01*
X276785Y747258D01*
X276928Y747331D01*
X277073Y747400D01*
X277220Y747466D01*
X277368Y747528D01*
X277518Y747586D01*
X277669Y747641D01*
X277822Y747692D01*
X277976Y747739D01*
X278131Y747782D01*
X278287Y747821D01*
X278443Y747857D01*
X278601Y747888D01*
X278759Y747916D01*
X278918Y747940D01*
X279078Y747960D01*
X279238Y747976D01*
X279398Y747988D01*
X279559Y747996D01*
X279720Y748000D01*
X279880Y748000D01*
X280041Y747996D01*
X280202Y747988D01*
X280362Y747976D01*
X280522Y747960D01*
X280682Y747940D01*
X280841Y747916D01*
X280999Y747888D01*
X281157Y747857D01*
X281313Y747821D01*
X281469Y747782D01*
X281624Y747739D01*
X281778Y747692D01*
X281931Y747641D01*
X282082Y747586D01*
X282232Y747528D01*
X282380Y747466D01*
X282527Y747400D01*
X282672Y747331D01*
X282815Y747258D01*
X282957Y747182D01*
X283096Y747102D01*
X283234Y747019D01*
X283369Y746932D01*
X283503Y746842D01*
X283634Y746749D01*
X283762Y746653D01*
X283888Y746553D01*
X284012Y746450D01*
X284133Y746345D01*
X284252Y746236D01*
X284368Y746125D01*
X284481Y746010D01*
X284591Y745893D01*
X284698Y745773D01*
X284802Y745651D01*
X284903Y745526D01*
X285001Y745398D01*
X285096Y745268D01*
X285188Y745136D01*
X285276Y745002D01*
X285361Y744865D01*
X285443Y744727D01*
X285521Y744586D01*
X285595Y744444D01*
X285666Y744300D01*
X285734Y744154D01*
X285797Y744006D01*
X285858Y743857D01*
X285914Y743706D01*
X285967Y743554D01*
X286016Y743401D01*
X286061Y743247D01*
X286102Y743092D01*
X286140Y742935D01*
X286173Y742778D01*
X286203Y742620D01*
X286229Y742461D01*
X286250Y742302D01*
X286268Y742142D01*
X286282Y741982D01*
X286292Y741821D01*
X286298Y741661D01*
X286300Y741500D01*
X286298Y741339D01*
X286292Y741179D01*
X286282Y741018D01*
X286268Y740858D01*
X286250Y740698D01*
X286229Y740539D01*
X286203Y740380D01*
X286173Y740222D01*
X286140Y740065D01*
X286102Y739908D01*
X286061Y739753D01*
X286016Y739599D01*
X285967Y739446D01*
X285914Y739294D01*
X285858Y739143D01*
X285797Y738994D01*
X285734Y738846D01*
X285666Y738700D01*
X285595Y738556D01*
X285521Y738414D01*
X285443Y738273D01*
X285361Y738135D01*
X285276Y737998D01*
X285188Y737864D01*
X285096Y737732D01*
X285001Y737602D01*
X284903Y737474D01*
X284802Y737349D01*
X284698Y737227D01*
X284591Y737107D01*
X284481Y736990D01*
X284368Y736875D01*
X284252Y736764D01*
X284133Y736655D01*
X284012Y736550D01*
X283888Y736447D01*
X283762Y736347D01*
X283634Y736251D01*
X283503Y736158D01*
X283369Y736068D01*
X283234Y735981D01*
X283096Y735898D01*
X282957Y735818D01*
X282815Y735742D01*
X282672Y735669D01*
X282527Y735600D01*
X282380Y735534D01*
X282232Y735472D01*
X282082Y735414D01*
X281931Y735359D01*
X281778Y735308D01*
X281624Y735261D01*
X281469Y735218D01*
X281313Y735179D01*
X281157Y735143D01*
X280999Y735112D01*
X280841Y735084D01*
X280682Y735060D01*
X280522Y735040D01*
X280362Y735024D01*
X280202Y735012D01*
X280041Y735004D01*
X279880Y735000D01*
X279720Y735000D01*
X279559Y735004D01*
X279398Y735012D01*
X279238Y735024D01*
X279078Y735040D01*
X278918Y735060D01*
X278759Y735084D01*
X278601Y735112D01*
X278443Y735143D01*
X278287Y735179D01*
X278131Y735218D01*
X277976Y735261D01*
X277822Y735308D01*
X277669Y735359D01*
X277518Y735414D01*
X277368Y735472D01*
X277220Y735534D01*
X277073Y735600D01*
X276928Y735669D01*
X276785Y735742D01*
X276643Y735818D01*
X276504Y735898D01*
X276366Y735981D01*
X276231Y736068D01*
X276097Y736158D01*
X275966Y736251D01*
X275838Y736347D01*
X275712Y736447D01*
X275588Y736550D01*
X275467Y736655D01*
X275348Y736764D01*
X275232Y736875D01*
X275119Y736990D01*
X275009Y737107D01*
X274902Y737227D01*
X274798Y737349D01*
X274697Y737474D01*
X274599Y737602D01*
X274504Y737732D01*
X274412Y737864D01*
X274324Y737998D01*
X274239Y738135D01*
X274157Y738273D01*
X274079Y738414D01*
X274005Y738556D01*
X273934Y738700D01*
X273866Y738846D01*
X273803Y738994D01*
X273742Y739143D01*
X273686Y739294D01*
X273633Y739446D01*
X273584Y739599D01*
X273539Y739753D01*
X273498Y739908D01*
X273460Y740065D01*
X273427Y740222D01*
X273397Y740380D01*
X273371Y740539D01*
X273350Y740698D01*
X273332Y740858D01*
X273318Y741018D01*
X273308Y741179D01*
X273302Y741339D01*
X273300Y741500D01*
D10*
X275800Y698500D02*
X275809Y699212D01*
X275835Y699923D01*
X275879Y700633D01*
X275940Y701342D01*
X276018Y702050D01*
X276114Y702755D01*
X276227Y703458D01*
X276357Y704158D01*
X276505Y704854D01*
X276669Y705546D01*
X276850Y706235D01*
X277049Y706918D01*
X277264Y707597D01*
X277495Y708270D01*
X277743Y708937D01*
X278007Y709598D01*
X278288Y710252D01*
X278584Y710899D01*
X278896Y711539D01*
X279224Y712171D01*
X279567Y712794D01*
X279926Y713409D01*
X280299Y714015D01*
X280687Y714612D01*
X281090Y715198D01*
X281507Y715775D01*
X281938Y716342D01*
X282383Y716897D01*
X282841Y717442D01*
X283312Y717975D01*
X283797Y718497D01*
X284294Y719006D01*
X284803Y719503D01*
X285325Y719988D01*
X285858Y720459D01*
X286403Y720917D01*
X286958Y721362D01*
X287525Y721793D01*
X288102Y722210D01*
X288688Y722613D01*
X289285Y723001D01*
X289891Y723374D01*
X290506Y723733D01*
X291129Y724076D01*
X291761Y724404D01*
X292401Y724716D01*
X293048Y725012D01*
X293702Y725293D01*
X294363Y725557D01*
X295030Y725805D01*
X295703Y726036D01*
X296382Y726251D01*
X297065Y726450D01*
X297754Y726631D01*
X298446Y726795D01*
X299142Y726943D01*
X299842Y727073D01*
X300545Y727186D01*
X301250Y727282D01*
X301958Y727360D01*
X302667Y727421D01*
X303377Y727465D01*
X304088Y727491D01*
X304800Y727500D01*
X305512Y727491D01*
X306223Y727465D01*
X306933Y727421D01*
X307642Y727360D01*
X308350Y727282D01*
X309055Y727186D01*
X309758Y727073D01*
X310458Y726943D01*
X311154Y726795D01*
X311846Y726631D01*
X312535Y726450D01*
X313218Y726251D01*
X313897Y726036D01*
X314570Y725805D01*
X315237Y725557D01*
X315898Y725293D01*
X316552Y725012D01*
X317199Y724716D01*
X317839Y724404D01*
X318471Y724076D01*
X319094Y723733D01*
X319709Y723374D01*
X320315Y723001D01*
X320912Y722613D01*
X321498Y722210D01*
X322075Y721793D01*
X322642Y721362D01*
X323197Y720917D01*
X323742Y720459D01*
X324275Y719988D01*
X324797Y719503D01*
X325306Y719006D01*
X325803Y718497D01*
X326288Y717975D01*
X326759Y717442D01*
X327217Y716897D01*
X327662Y716342D01*
X328093Y715775D01*
X328510Y715198D01*
X328913Y714612D01*
X329301Y714015D01*
X329674Y713409D01*
X330033Y712794D01*
X330376Y712171D01*
X330704Y711539D01*
X331016Y710899D01*
X331312Y710252D01*
X331593Y709598D01*
X331857Y708937D01*
X332105Y708270D01*
X332336Y707597D01*
X332551Y706918D01*
X332750Y706235D01*
X332931Y705546D01*
X333095Y704854D01*
X333243Y704158D01*
X333373Y703458D01*
X333486Y702755D01*
X333582Y702050D01*
X333660Y701342D01*
X333721Y700633D01*
X333765Y699923D01*
X333791Y699212D01*
X333800Y698500D01*
X333791Y697788D01*
X333765Y697077D01*
X333721Y696367D01*
X333660Y695658D01*
X333582Y694950D01*
X333486Y694245D01*
X333373Y693542D01*
X333243Y692842D01*
X333095Y692146D01*
X332931Y691454D01*
X332750Y690765D01*
X332551Y690082D01*
X332336Y689403D01*
X332105Y688730D01*
X331857Y688063D01*
X331593Y687402D01*
X331312Y686748D01*
X331016Y686101D01*
X330704Y685461D01*
X330376Y684829D01*
X330033Y684206D01*
X329674Y683591D01*
X329301Y682985D01*
X328913Y682388D01*
X328510Y681802D01*
X328093Y681225D01*
X327662Y680658D01*
X327217Y680103D01*
X326759Y679558D01*
X326288Y679025D01*
X325803Y678503D01*
X325306Y677994D01*
X324797Y677497D01*
X324275Y677012D01*
X323742Y676541D01*
X323197Y676083D01*
X322642Y675638D01*
X322075Y675207D01*
X321498Y674790D01*
X320912Y674387D01*
X320315Y673999D01*
X319709Y673626D01*
X319094Y673267D01*
X318471Y672924D01*
X317839Y672596D01*
X317199Y672284D01*
X316552Y671988D01*
X315898Y671707D01*
X315237Y671443D01*
X314570Y671195D01*
X313897Y670964D01*
X313218Y670749D01*
X312535Y670550D01*
X311846Y670369D01*
X311154Y670205D01*
X310458Y670057D01*
X309758Y669927D01*
X309055Y669814D01*
X308350Y669718D01*
X307642Y669640D01*
X306933Y669579D01*
X306223Y669535D01*
X305512Y669509D01*
X304800Y669500D01*
X304088Y669509D01*
X303377Y669535D01*
X302667Y669579D01*
X301958Y669640D01*
X301250Y669718D01*
X300545Y669814D01*
X299842Y669927D01*
X299142Y670057D01*
X298446Y670205D01*
X297754Y670369D01*
X297065Y670550D01*
X296382Y670749D01*
X295703Y670964D01*
X295030Y671195D01*
X294363Y671443D01*
X293702Y671707D01*
X293048Y671988D01*
X292401Y672284D01*
X291761Y672596D01*
X291129Y672924D01*
X290506Y673267D01*
X289891Y673626D01*
X289285Y673999D01*
X288688Y674387D01*
X288102Y674790D01*
X287525Y675207D01*
X286958Y675638D01*
X286403Y676083D01*
X285858Y676541D01*
X285325Y677012D01*
X284803Y677497D01*
X284294Y677994D01*
X283797Y678503D01*
X283312Y679025D01*
X282841Y679558D01*
X282383Y680103D01*
X281938Y680658D01*
X281507Y681225D01*
X281090Y681802D01*
X280687Y682388D01*
X280299Y682985D01*
X279926Y683591D01*
X279567Y684206D01*
X279224Y684829D01*
X278896Y685461D01*
X278584Y686101D01*
X278288Y686748D01*
X278007Y687402D01*
X277743Y688063D01*
X277495Y688730D01*
X277264Y689403D01*
X277049Y690082D01*
X276850Y690765D01*
X276669Y691454D01*
X276505Y692146D01*
X276357Y692842D01*
X276227Y693542D01*
X276114Y694245D01*
X276018Y694950D01*
X275940Y695658D01*
X275879Y696367D01*
X275835Y697077D01*
X275809Y697788D01*
X275800Y698500D01*
X281299Y698500D02*
X281306Y699077D01*
X281327Y699653D01*
X281363Y700229D01*
X281412Y700804D01*
X281476Y701377D01*
X281553Y701948D01*
X281645Y702518D01*
X281751Y703085D01*
X281870Y703649D01*
X282003Y704210D01*
X282150Y704768D01*
X282311Y705322D01*
X282485Y705872D01*
X282673Y706417D01*
X282874Y706958D01*
X283088Y707493D01*
X283315Y708024D01*
X283555Y708548D01*
X283808Y709066D01*
X284074Y709578D01*
X284352Y710084D01*
X284643Y710582D01*
X284945Y711073D01*
X285260Y711556D01*
X285586Y712032D01*
X285924Y712500D01*
X286273Y712959D01*
X286633Y713409D01*
X287005Y713850D01*
X287387Y714282D01*
X287779Y714705D01*
X288182Y715118D01*
X288595Y715521D01*
X289018Y715913D01*
X289450Y716295D01*
X289891Y716667D01*
X290341Y717027D01*
X290800Y717376D01*
X291268Y717714D01*
X291744Y718040D01*
X292227Y718355D01*
X292718Y718657D01*
X293216Y718948D01*
X293722Y719226D01*
X294234Y719492D01*
X294752Y719745D01*
X295276Y719985D01*
X295807Y720212D01*
X296342Y720426D01*
X296883Y720627D01*
X297428Y720815D01*
X297978Y720989D01*
X298532Y721150D01*
X299090Y721297D01*
X299651Y721430D01*
X300215Y721549D01*
X300782Y721655D01*
X301352Y721747D01*
X301923Y721824D01*
X302496Y721888D01*
X303071Y721937D01*
X303647Y721973D01*
X304223Y721994D01*
X304800Y722001D01*
X305377Y721994D01*
X305953Y721973D01*
X306529Y721937D01*
X307104Y721888D01*
X307677Y721824D01*
X308248Y721747D01*
X308818Y721655D01*
X309385Y721549D01*
X309949Y721430D01*
X310510Y721297D01*
X311068Y721150D01*
X311622Y720989D01*
X312172Y720815D01*
X312717Y720627D01*
X313258Y720426D01*
X313793Y720212D01*
X314324Y719985D01*
X314848Y719745D01*
X315366Y719492D01*
X315878Y719226D01*
X316384Y718948D01*
X316882Y718657D01*
X317373Y718355D01*
X317856Y718040D01*
X318332Y717714D01*
X318800Y717376D01*
X319259Y717027D01*
X319709Y716667D01*
X320150Y716295D01*
X320582Y715913D01*
X321005Y715521D01*
X321418Y715118D01*
X321821Y714705D01*
X322213Y714282D01*
X322595Y713850D01*
X322967Y713409D01*
X323327Y712959D01*
X323676Y712500D01*
X324014Y712032D01*
X324340Y711556D01*
X324655Y711073D01*
X324957Y710582D01*
X325248Y710084D01*
X325526Y709578D01*
X325792Y709066D01*
X326045Y708548D01*
X326285Y708024D01*
X326512Y707493D01*
X326726Y706958D01*
X326927Y706417D01*
X327115Y705872D01*
X327289Y705322D01*
X327450Y704768D01*
X327597Y704210D01*
X327730Y703649D01*
X327849Y703085D01*
X327955Y702518D01*
X328047Y701948D01*
X328124Y701377D01*
X328188Y700804D01*
X328237Y700229D01*
X328273Y699653D01*
X328294Y699077D01*
X328301Y698500D01*
X328294Y697923D01*
X328273Y697347D01*
X328237Y696771D01*
X328188Y696196D01*
X328124Y695623D01*
X328047Y695052D01*
X327955Y694482D01*
X327849Y693915D01*
X327730Y693351D01*
X327597Y692790D01*
X327450Y692232D01*
X327289Y691678D01*
X327115Y691128D01*
X326927Y690583D01*
X326726Y690042D01*
X326512Y689507D01*
X326285Y688976D01*
X326045Y688452D01*
X325792Y687934D01*
X325526Y687422D01*
X325248Y686916D01*
X324957Y686418D01*
X324655Y685927D01*
X324340Y685444D01*
X324014Y684968D01*
X323676Y684500D01*
X323327Y684041D01*
X322967Y683591D01*
X322595Y683150D01*
X322213Y682718D01*
X321821Y682295D01*
X321418Y681882D01*
X321005Y681479D01*
X320582Y681087D01*
X320150Y680705D01*
X319709Y680333D01*
X319259Y679973D01*
X318800Y679624D01*
X318332Y679286D01*
X317856Y678960D01*
X317373Y678645D01*
X316882Y678343D01*
X316384Y678052D01*
X315878Y677774D01*
X315366Y677508D01*
X314848Y677255D01*
X314324Y677015D01*
X313793Y676788D01*
X313258Y676574D01*
X312717Y676373D01*
X312172Y676185D01*
X311622Y676011D01*
X311068Y675850D01*
X310510Y675703D01*
X309949Y675570D01*
X309385Y675451D01*
X308818Y675345D01*
X308248Y675253D01*
X307677Y675176D01*
X307104Y675112D01*
X306529Y675063D01*
X305953Y675027D01*
X305377Y675006D01*
X304800Y674999D01*
X304223Y675006D01*
X303647Y675027D01*
X303071Y675063D01*
X302496Y675112D01*
X301923Y675176D01*
X301352Y675253D01*
X300782Y675345D01*
X300215Y675451D01*
X299651Y675570D01*
X299090Y675703D01*
X298532Y675850D01*
X297978Y676011D01*
X297428Y676185D01*
X296883Y676373D01*
X296342Y676574D01*
X295807Y676788D01*
X295276Y677015D01*
X294752Y677255D01*
X294234Y677508D01*
X293722Y677774D01*
X293216Y678052D01*
X292718Y678343D01*
X292227Y678645D01*
X291744Y678960D01*
X291268Y679286D01*
X290800Y679624D01*
X290341Y679973D01*
X289891Y680333D01*
X289450Y680705D01*
X289018Y681087D01*
X288595Y681479D01*
X288182Y681882D01*
X287779Y682295D01*
X287387Y682718D01*
X287005Y683150D01*
X286633Y683591D01*
X286273Y684041D01*
X285924Y684500D01*
X285586Y684968D01*
X285260Y685444D01*
X284945Y685927D01*
X284643Y686418D01*
X284352Y686916D01*
X284074Y687422D01*
X283808Y687934D01*
X283555Y688452D01*
X283315Y688976D01*
X283088Y689507D01*
X282874Y690042D01*
X282673Y690583D01*
X282485Y691128D01*
X282311Y691678D01*
X282150Y692232D01*
X282003Y692790D01*
X281870Y693351D01*
X281751Y693915D01*
X281645Y694482D01*
X281553Y695052D01*
X281476Y695623D01*
X281412Y696196D01*
X281363Y696771D01*
X281327Y697347D01*
X281306Y697923D01*
X281299Y698500D01*
X670200Y752500D02*
X752200Y752500D01*
X752200Y639500D02*
X670200Y639500D01*
X752200Y747000D02*
X757700Y747000D01*
X752200Y747000D02*
X752200Y752500D01*
X752200Y645000D02*
X752200Y639500D01*
X752200Y645000D02*
X757700Y645000D01*
X670200Y645000D02*
X664700Y645000D01*
X670200Y645000D02*
X670200Y639500D01*
X670200Y747000D02*
X670200Y752500D01*
X670200Y747000D02*
X664700Y747000D01*
X757700Y747000D02*
X757700Y725000D01*
X757700Y677000D02*
X757700Y645000D01*
X664700Y725000D02*
X664700Y747000D01*
X664700Y677000D02*
X664700Y645000D01*
D11*
X729700Y652500D02*
X729702Y652661D01*
X729708Y652821D01*
X729718Y652982D01*
X729732Y653142D01*
X729750Y653302D01*
X729771Y653461D01*
X729797Y653620D01*
X729827Y653778D01*
X729860Y653935D01*
X729898Y654092D01*
X729939Y654247D01*
X729984Y654401D01*
X730033Y654554D01*
X730086Y654706D01*
X730142Y654857D01*
X730203Y655006D01*
X730266Y655154D01*
X730334Y655300D01*
X730405Y655444D01*
X730479Y655586D01*
X730557Y655727D01*
X730639Y655865D01*
X730724Y656002D01*
X730812Y656136D01*
X730904Y656268D01*
X730999Y656398D01*
X731097Y656526D01*
X731198Y656651D01*
X731302Y656773D01*
X731409Y656893D01*
X731519Y657010D01*
X731632Y657125D01*
X731748Y657236D01*
X731867Y657345D01*
X731988Y657450D01*
X732112Y657553D01*
X732238Y657653D01*
X732366Y657749D01*
X732497Y657842D01*
X732631Y657932D01*
X732766Y658019D01*
X732904Y658102D01*
X733043Y658182D01*
X733185Y658258D01*
X733328Y658331D01*
X733473Y658400D01*
X733620Y658466D01*
X733768Y658528D01*
X733918Y658586D01*
X734069Y658641D01*
X734222Y658692D01*
X734376Y658739D01*
X734531Y658782D01*
X734687Y658821D01*
X734843Y658857D01*
X735001Y658888D01*
X735159Y658916D01*
X735318Y658940D01*
X735478Y658960D01*
X735638Y658976D01*
X735798Y658988D01*
X735959Y658996D01*
X736120Y659000D01*
X736280Y659000D01*
X736441Y658996D01*
X736602Y658988D01*
X736762Y658976D01*
X736922Y658960D01*
X737082Y658940D01*
X737241Y658916D01*
X737399Y658888D01*
X737557Y658857D01*
X737713Y658821D01*
X737869Y658782D01*
X738024Y658739D01*
X738178Y658692D01*
X738331Y658641D01*
X738482Y658586D01*
X738632Y658528D01*
X738780Y658466D01*
X738927Y658400D01*
X739072Y658331D01*
X739215Y658258D01*
X739357Y658182D01*
X739496Y658102D01*
X739634Y658019D01*
X739769Y657932D01*
X739903Y657842D01*
X740034Y657749D01*
X740162Y657653D01*
X740288Y657553D01*
X740412Y657450D01*
X740533Y657345D01*
X740652Y657236D01*
X740768Y657125D01*
X740881Y657010D01*
X740991Y656893D01*
X741098Y656773D01*
X741202Y656651D01*
X741303Y656526D01*
X741401Y656398D01*
X741496Y656268D01*
X741588Y656136D01*
X741676Y656002D01*
X741761Y655865D01*
X741843Y655727D01*
X741921Y655586D01*
X741995Y655444D01*
X742066Y655300D01*
X742134Y655154D01*
X742197Y655006D01*
X742258Y654857D01*
X742314Y654706D01*
X742367Y654554D01*
X742416Y654401D01*
X742461Y654247D01*
X742502Y654092D01*
X742540Y653935D01*
X742573Y653778D01*
X742603Y653620D01*
X742629Y653461D01*
X742650Y653302D01*
X742668Y653142D01*
X742682Y652982D01*
X742692Y652821D01*
X742698Y652661D01*
X742700Y652500D01*
X742698Y652339D01*
X742692Y652179D01*
X742682Y652018D01*
X742668Y651858D01*
X742650Y651698D01*
X742629Y651539D01*
X742603Y651380D01*
X742573Y651222D01*
X742540Y651065D01*
X742502Y650908D01*
X742461Y650753D01*
X742416Y650599D01*
X742367Y650446D01*
X742314Y650294D01*
X742258Y650143D01*
X742197Y649994D01*
X742134Y649846D01*
X742066Y649700D01*
X741995Y649556D01*
X741921Y649414D01*
X741843Y649273D01*
X741761Y649135D01*
X741676Y648998D01*
X741588Y648864D01*
X741496Y648732D01*
X741401Y648602D01*
X741303Y648474D01*
X741202Y648349D01*
X741098Y648227D01*
X740991Y648107D01*
X740881Y647990D01*
X740768Y647875D01*
X740652Y647764D01*
X740533Y647655D01*
X740412Y647550D01*
X740288Y647447D01*
X740162Y647347D01*
X740034Y647251D01*
X739903Y647158D01*
X739769Y647068D01*
X739634Y646981D01*
X739496Y646898D01*
X739357Y646818D01*
X739215Y646742D01*
X739072Y646669D01*
X738927Y646600D01*
X738780Y646534D01*
X738632Y646472D01*
X738482Y646414D01*
X738331Y646359D01*
X738178Y646308D01*
X738024Y646261D01*
X737869Y646218D01*
X737713Y646179D01*
X737557Y646143D01*
X737399Y646112D01*
X737241Y646084D01*
X737082Y646060D01*
X736922Y646040D01*
X736762Y646024D01*
X736602Y646012D01*
X736441Y646004D01*
X736280Y646000D01*
X736120Y646000D01*
X735959Y646004D01*
X735798Y646012D01*
X735638Y646024D01*
X735478Y646040D01*
X735318Y646060D01*
X735159Y646084D01*
X735001Y646112D01*
X734843Y646143D01*
X734687Y646179D01*
X734531Y646218D01*
X734376Y646261D01*
X734222Y646308D01*
X734069Y646359D01*
X733918Y646414D01*
X733768Y646472D01*
X733620Y646534D01*
X733473Y646600D01*
X733328Y646669D01*
X733185Y646742D01*
X733043Y646818D01*
X732904Y646898D01*
X732766Y646981D01*
X732631Y647068D01*
X732497Y647158D01*
X732366Y647251D01*
X732238Y647347D01*
X732112Y647447D01*
X731988Y647550D01*
X731867Y647655D01*
X731748Y647764D01*
X731632Y647875D01*
X731519Y647990D01*
X731409Y648107D01*
X731302Y648227D01*
X731198Y648349D01*
X731097Y648474D01*
X730999Y648602D01*
X730904Y648732D01*
X730812Y648864D01*
X730724Y648998D01*
X730639Y649135D01*
X730557Y649273D01*
X730479Y649414D01*
X730405Y649556D01*
X730334Y649700D01*
X730266Y649846D01*
X730203Y649994D01*
X730142Y650143D01*
X730086Y650294D01*
X730033Y650446D01*
X729984Y650599D01*
X729939Y650753D01*
X729898Y650908D01*
X729860Y651065D01*
X729827Y651222D01*
X729797Y651380D01*
X729771Y651539D01*
X729750Y651698D01*
X729732Y651858D01*
X729718Y652018D01*
X729708Y652179D01*
X729702Y652339D01*
X729700Y652500D01*
X679700Y652500D02*
X679702Y652661D01*
X679708Y652821D01*
X679718Y652982D01*
X679732Y653142D01*
X679750Y653302D01*
X679771Y653461D01*
X679797Y653620D01*
X679827Y653778D01*
X679860Y653935D01*
X679898Y654092D01*
X679939Y654247D01*
X679984Y654401D01*
X680033Y654554D01*
X680086Y654706D01*
X680142Y654857D01*
X680203Y655006D01*
X680266Y655154D01*
X680334Y655300D01*
X680405Y655444D01*
X680479Y655586D01*
X680557Y655727D01*
X680639Y655865D01*
X680724Y656002D01*
X680812Y656136D01*
X680904Y656268D01*
X680999Y656398D01*
X681097Y656526D01*
X681198Y656651D01*
X681302Y656773D01*
X681409Y656893D01*
X681519Y657010D01*
X681632Y657125D01*
X681748Y657236D01*
X681867Y657345D01*
X681988Y657450D01*
X682112Y657553D01*
X682238Y657653D01*
X682366Y657749D01*
X682497Y657842D01*
X682631Y657932D01*
X682766Y658019D01*
X682904Y658102D01*
X683043Y658182D01*
X683185Y658258D01*
X683328Y658331D01*
X683473Y658400D01*
X683620Y658466D01*
X683768Y658528D01*
X683918Y658586D01*
X684069Y658641D01*
X684222Y658692D01*
X684376Y658739D01*
X684531Y658782D01*
X684687Y658821D01*
X684843Y658857D01*
X685001Y658888D01*
X685159Y658916D01*
X685318Y658940D01*
X685478Y658960D01*
X685638Y658976D01*
X685798Y658988D01*
X685959Y658996D01*
X686120Y659000D01*
X686280Y659000D01*
X686441Y658996D01*
X686602Y658988D01*
X686762Y658976D01*
X686922Y658960D01*
X687082Y658940D01*
X687241Y658916D01*
X687399Y658888D01*
X687557Y658857D01*
X687713Y658821D01*
X687869Y658782D01*
X688024Y658739D01*
X688178Y658692D01*
X688331Y658641D01*
X688482Y658586D01*
X688632Y658528D01*
X688780Y658466D01*
X688927Y658400D01*
X689072Y658331D01*
X689215Y658258D01*
X689357Y658182D01*
X689496Y658102D01*
X689634Y658019D01*
X689769Y657932D01*
X689903Y657842D01*
X690034Y657749D01*
X690162Y657653D01*
X690288Y657553D01*
X690412Y657450D01*
X690533Y657345D01*
X690652Y657236D01*
X690768Y657125D01*
X690881Y657010D01*
X690991Y656893D01*
X691098Y656773D01*
X691202Y656651D01*
X691303Y656526D01*
X691401Y656398D01*
X691496Y656268D01*
X691588Y656136D01*
X691676Y656002D01*
X691761Y655865D01*
X691843Y655727D01*
X691921Y655586D01*
X691995Y655444D01*
X692066Y655300D01*
X692134Y655154D01*
X692197Y655006D01*
X692258Y654857D01*
X692314Y654706D01*
X692367Y654554D01*
X692416Y654401D01*
X692461Y654247D01*
X692502Y654092D01*
X692540Y653935D01*
X692573Y653778D01*
X692603Y653620D01*
X692629Y653461D01*
X692650Y653302D01*
X692668Y653142D01*
X692682Y652982D01*
X692692Y652821D01*
X692698Y652661D01*
X692700Y652500D01*
X692698Y652339D01*
X692692Y652179D01*
X692682Y652018D01*
X692668Y651858D01*
X692650Y651698D01*
X692629Y651539D01*
X692603Y651380D01*
X692573Y651222D01*
X692540Y651065D01*
X692502Y650908D01*
X692461Y650753D01*
X692416Y650599D01*
X692367Y650446D01*
X692314Y650294D01*
X692258Y650143D01*
X692197Y649994D01*
X692134Y649846D01*
X692066Y649700D01*
X691995Y649556D01*
X691921Y649414D01*
X691843Y649273D01*
X691761Y649135D01*
X691676Y648998D01*
X691588Y648864D01*
X691496Y648732D01*
X691401Y648602D01*
X691303Y648474D01*
X691202Y648349D01*
X691098Y648227D01*
X690991Y648107D01*
X690881Y647990D01*
X690768Y647875D01*
X690652Y647764D01*
X690533Y647655D01*
X690412Y647550D01*
X690288Y647447D01*
X690162Y647347D01*
X690034Y647251D01*
X689903Y647158D01*
X689769Y647068D01*
X689634Y646981D01*
X689496Y646898D01*
X689357Y646818D01*
X689215Y646742D01*
X689072Y646669D01*
X688927Y646600D01*
X688780Y646534D01*
X688632Y646472D01*
X688482Y646414D01*
X688331Y646359D01*
X688178Y646308D01*
X688024Y646261D01*
X687869Y646218D01*
X687713Y646179D01*
X687557Y646143D01*
X687399Y646112D01*
X687241Y646084D01*
X687082Y646060D01*
X686922Y646040D01*
X686762Y646024D01*
X686602Y646012D01*
X686441Y646004D01*
X686280Y646000D01*
X686120Y646000D01*
X685959Y646004D01*
X685798Y646012D01*
X685638Y646024D01*
X685478Y646040D01*
X685318Y646060D01*
X685159Y646084D01*
X685001Y646112D01*
X684843Y646143D01*
X684687Y646179D01*
X684531Y646218D01*
X684376Y646261D01*
X684222Y646308D01*
X684069Y646359D01*
X683918Y646414D01*
X683768Y646472D01*
X683620Y646534D01*
X683473Y646600D01*
X683328Y646669D01*
X683185Y646742D01*
X683043Y646818D01*
X682904Y646898D01*
X682766Y646981D01*
X682631Y647068D01*
X682497Y647158D01*
X682366Y647251D01*
X682238Y647347D01*
X682112Y647447D01*
X681988Y647550D01*
X681867Y647655D01*
X681748Y647764D01*
X681632Y647875D01*
X681519Y647990D01*
X681409Y648107D01*
X681302Y648227D01*
X681198Y648349D01*
X681097Y648474D01*
X680999Y648602D01*
X680904Y648732D01*
X680812Y648864D01*
X680724Y648998D01*
X680639Y649135D01*
X680557Y649273D01*
X680479Y649414D01*
X680405Y649556D01*
X680334Y649700D01*
X680266Y649846D01*
X680203Y649994D01*
X680142Y650143D01*
X680086Y650294D01*
X680033Y650446D01*
X679984Y650599D01*
X679939Y650753D01*
X679898Y650908D01*
X679860Y651065D01*
X679827Y651222D01*
X679797Y651380D01*
X679771Y651539D01*
X679750Y651698D01*
X679732Y651858D01*
X679718Y652018D01*
X679708Y652179D01*
X679702Y652339D01*
X679700Y652500D01*
X729700Y741500D02*
X729702Y741661D01*
X729708Y741821D01*
X729718Y741982D01*
X729732Y742142D01*
X729750Y742302D01*
X729771Y742461D01*
X729797Y742620D01*
X729827Y742778D01*
X729860Y742935D01*
X729898Y743092D01*
X729939Y743247D01*
X729984Y743401D01*
X730033Y743554D01*
X730086Y743706D01*
X730142Y743857D01*
X730203Y744006D01*
X730266Y744154D01*
X730334Y744300D01*
X730405Y744444D01*
X730479Y744586D01*
X730557Y744727D01*
X730639Y744865D01*
X730724Y745002D01*
X730812Y745136D01*
X730904Y745268D01*
X730999Y745398D01*
X731097Y745526D01*
X731198Y745651D01*
X731302Y745773D01*
X731409Y745893D01*
X731519Y746010D01*
X731632Y746125D01*
X731748Y746236D01*
X731867Y746345D01*
X731988Y746450D01*
X732112Y746553D01*
X732238Y746653D01*
X732366Y746749D01*
X732497Y746842D01*
X732631Y746932D01*
X732766Y747019D01*
X732904Y747102D01*
X733043Y747182D01*
X733185Y747258D01*
X733328Y747331D01*
X733473Y747400D01*
X733620Y747466D01*
X733768Y747528D01*
X733918Y747586D01*
X734069Y747641D01*
X734222Y747692D01*
X734376Y747739D01*
X734531Y747782D01*
X734687Y747821D01*
X734843Y747857D01*
X735001Y747888D01*
X735159Y747916D01*
X735318Y747940D01*
X735478Y747960D01*
X735638Y747976D01*
X735798Y747988D01*
X735959Y747996D01*
X736120Y748000D01*
X736280Y748000D01*
X736441Y747996D01*
X736602Y747988D01*
X736762Y747976D01*
X736922Y747960D01*
X737082Y747940D01*
X737241Y747916D01*
X737399Y747888D01*
X737557Y747857D01*
X737713Y747821D01*
X737869Y747782D01*
X738024Y747739D01*
X738178Y747692D01*
X738331Y747641D01*
X738482Y747586D01*
X738632Y747528D01*
X738780Y747466D01*
X738927Y747400D01*
X739072Y747331D01*
X739215Y747258D01*
X739357Y747182D01*
X739496Y747102D01*
X739634Y747019D01*
X739769Y746932D01*
X739903Y746842D01*
X740034Y746749D01*
X740162Y746653D01*
X740288Y746553D01*
X740412Y746450D01*
X740533Y746345D01*
X740652Y746236D01*
X740768Y746125D01*
X740881Y746010D01*
X740991Y745893D01*
X741098Y745773D01*
X741202Y745651D01*
X741303Y745526D01*
X741401Y745398D01*
X741496Y745268D01*
X741588Y745136D01*
X741676Y745002D01*
X741761Y744865D01*
X741843Y744727D01*
X741921Y744586D01*
X741995Y744444D01*
X742066Y744300D01*
X742134Y744154D01*
X742197Y744006D01*
X742258Y743857D01*
X742314Y743706D01*
X742367Y743554D01*
X742416Y743401D01*
X742461Y743247D01*
X742502Y743092D01*
X742540Y742935D01*
X742573Y742778D01*
X742603Y742620D01*
X742629Y742461D01*
X742650Y742302D01*
X742668Y742142D01*
X742682Y741982D01*
X742692Y741821D01*
X742698Y741661D01*
X742700Y741500D01*
X742698Y741339D01*
X742692Y741179D01*
X742682Y741018D01*
X742668Y740858D01*
X742650Y740698D01*
X742629Y740539D01*
X742603Y740380D01*
X742573Y740222D01*
X742540Y740065D01*
X742502Y739908D01*
X742461Y739753D01*
X742416Y739599D01*
X742367Y739446D01*
X742314Y739294D01*
X742258Y739143D01*
X742197Y738994D01*
X742134Y738846D01*
X742066Y738700D01*
X741995Y738556D01*
X741921Y738414D01*
X741843Y738273D01*
X741761Y738135D01*
X741676Y737998D01*
X741588Y737864D01*
X741496Y737732D01*
X741401Y737602D01*
X741303Y737474D01*
X741202Y737349D01*
X741098Y737227D01*
X740991Y737107D01*
X740881Y736990D01*
X740768Y736875D01*
X740652Y736764D01*
X740533Y736655D01*
X740412Y736550D01*
X740288Y736447D01*
X740162Y736347D01*
X740034Y736251D01*
X739903Y736158D01*
X739769Y736068D01*
X739634Y735981D01*
X739496Y735898D01*
X739357Y735818D01*
X739215Y735742D01*
X739072Y735669D01*
X738927Y735600D01*
X738780Y735534D01*
X738632Y735472D01*
X738482Y735414D01*
X738331Y735359D01*
X738178Y735308D01*
X738024Y735261D01*
X737869Y735218D01*
X737713Y735179D01*
X737557Y735143D01*
X737399Y735112D01*
X737241Y735084D01*
X737082Y735060D01*
X736922Y735040D01*
X736762Y735024D01*
X736602Y735012D01*
X736441Y735004D01*
X736280Y735000D01*
X736120Y735000D01*
X735959Y735004D01*
X735798Y735012D01*
X735638Y735024D01*
X735478Y735040D01*
X735318Y735060D01*
X735159Y735084D01*
X735001Y735112D01*
X734843Y735143D01*
X734687Y735179D01*
X734531Y735218D01*
X734376Y735261D01*
X734222Y735308D01*
X734069Y735359D01*
X733918Y735414D01*
X733768Y735472D01*
X733620Y735534D01*
X733473Y735600D01*
X733328Y735669D01*
X733185Y735742D01*
X733043Y735818D01*
X732904Y735898D01*
X732766Y735981D01*
X732631Y736068D01*
X732497Y736158D01*
X732366Y736251D01*
X732238Y736347D01*
X732112Y736447D01*
X731988Y736550D01*
X731867Y736655D01*
X731748Y736764D01*
X731632Y736875D01*
X731519Y736990D01*
X731409Y737107D01*
X731302Y737227D01*
X731198Y737349D01*
X731097Y737474D01*
X730999Y737602D01*
X730904Y737732D01*
X730812Y737864D01*
X730724Y737998D01*
X730639Y738135D01*
X730557Y738273D01*
X730479Y738414D01*
X730405Y738556D01*
X730334Y738700D01*
X730266Y738846D01*
X730203Y738994D01*
X730142Y739143D01*
X730086Y739294D01*
X730033Y739446D01*
X729984Y739599D01*
X729939Y739753D01*
X729898Y739908D01*
X729860Y740065D01*
X729827Y740222D01*
X729797Y740380D01*
X729771Y740539D01*
X729750Y740698D01*
X729732Y740858D01*
X729718Y741018D01*
X729708Y741179D01*
X729702Y741339D01*
X729700Y741500D01*
X679700Y741500D02*
X679702Y741661D01*
X679708Y741821D01*
X679718Y741982D01*
X679732Y742142D01*
X679750Y742302D01*
X679771Y742461D01*
X679797Y742620D01*
X679827Y742778D01*
X679860Y742935D01*
X679898Y743092D01*
X679939Y743247D01*
X679984Y743401D01*
X680033Y743554D01*
X680086Y743706D01*
X680142Y743857D01*
X680203Y744006D01*
X680266Y744154D01*
X680334Y744300D01*
X680405Y744444D01*
X680479Y744586D01*
X680557Y744727D01*
X680639Y744865D01*
X680724Y745002D01*
X680812Y745136D01*
X680904Y745268D01*
X680999Y745398D01*
X681097Y745526D01*
X681198Y745651D01*
X681302Y745773D01*
X681409Y745893D01*
X681519Y746010D01*
X681632Y746125D01*
X681748Y746236D01*
X681867Y746345D01*
X681988Y746450D01*
X682112Y746553D01*
X682238Y746653D01*
X682366Y746749D01*
X682497Y746842D01*
X682631Y746932D01*
X682766Y747019D01*
X682904Y747102D01*
X683043Y747182D01*
X683185Y747258D01*
X683328Y747331D01*
X683473Y747400D01*
X683620Y747466D01*
X683768Y747528D01*
X683918Y747586D01*
X684069Y747641D01*
X684222Y747692D01*
X684376Y747739D01*
X684531Y747782D01*
X684687Y747821D01*
X684843Y747857D01*
X685001Y747888D01*
X685159Y747916D01*
X685318Y747940D01*
X685478Y747960D01*
X685638Y747976D01*
X685798Y747988D01*
X685959Y747996D01*
X686120Y748000D01*
X686280Y748000D01*
X686441Y747996D01*
X686602Y747988D01*
X686762Y747976D01*
X686922Y747960D01*
X687082Y747940D01*
X687241Y747916D01*
X687399Y747888D01*
X687557Y747857D01*
X687713Y747821D01*
X687869Y747782D01*
X688024Y747739D01*
X688178Y747692D01*
X688331Y747641D01*
X688482Y747586D01*
X688632Y747528D01*
X688780Y747466D01*
X688927Y747400D01*
X689072Y747331D01*
X689215Y747258D01*
X689357Y747182D01*
X689496Y747102D01*
X689634Y747019D01*
X689769Y746932D01*
X689903Y746842D01*
X690034Y746749D01*
X690162Y746653D01*
X690288Y746553D01*
X690412Y746450D01*
X690533Y746345D01*
X690652Y746236D01*
X690768Y746125D01*
X690881Y746010D01*
X690991Y745893D01*
X691098Y745773D01*
X691202Y745651D01*
X691303Y745526D01*
X691401Y745398D01*
X691496Y745268D01*
X691588Y745136D01*
X691676Y745002D01*
X691761Y744865D01*
X691843Y744727D01*
X691921Y744586D01*
X691995Y744444D01*
X692066Y744300D01*
X692134Y744154D01*
X692197Y744006D01*
X692258Y743857D01*
X692314Y743706D01*
X692367Y743554D01*
X692416Y743401D01*
X692461Y743247D01*
X692502Y743092D01*
X692540Y742935D01*
X692573Y742778D01*
X692603Y742620D01*
X692629Y742461D01*
X692650Y742302D01*
X692668Y742142D01*
X692682Y741982D01*
X692692Y741821D01*
X692698Y741661D01*
X692700Y741500D01*
X692698Y741339D01*
X692692Y741179D01*
X692682Y741018D01*
X692668Y740858D01*
X692650Y740698D01*
X692629Y740539D01*
X692603Y740380D01*
X692573Y740222D01*
X692540Y740065D01*
X692502Y739908D01*
X692461Y739753D01*
X692416Y739599D01*
X692367Y739446D01*
X692314Y739294D01*
X692258Y739143D01*
X692197Y738994D01*
X692134Y738846D01*
X692066Y738700D01*
X691995Y738556D01*
X691921Y738414D01*
X691843Y738273D01*
X691761Y738135D01*
X691676Y737998D01*
X691588Y737864D01*
X691496Y737732D01*
X691401Y737602D01*
X691303Y737474D01*
X691202Y737349D01*
X691098Y737227D01*
X690991Y737107D01*
X690881Y736990D01*
X690768Y736875D01*
X690652Y736764D01*
X690533Y736655D01*
X690412Y736550D01*
X690288Y736447D01*
X690162Y736347D01*
X690034Y736251D01*
X689903Y736158D01*
X689769Y736068D01*
X689634Y735981D01*
X689496Y735898D01*
X689357Y735818D01*
X689215Y735742D01*
X689072Y735669D01*
X688927Y735600D01*
X688780Y735534D01*
X688632Y735472D01*
X688482Y735414D01*
X688331Y735359D01*
X688178Y735308D01*
X688024Y735261D01*
X687869Y735218D01*
X687713Y735179D01*
X687557Y735143D01*
X687399Y735112D01*
X687241Y735084D01*
X687082Y735060D01*
X686922Y735040D01*
X686762Y735024D01*
X686602Y735012D01*
X686441Y735004D01*
X686280Y735000D01*
X686120Y735000D01*
X685959Y735004D01*
X685798Y735012D01*
X685638Y735024D01*
X685478Y735040D01*
X685318Y735060D01*
X685159Y735084D01*
X685001Y735112D01*
X684843Y735143D01*
X684687Y735179D01*
X684531Y735218D01*
X684376Y735261D01*
X684222Y735308D01*
X684069Y735359D01*
X683918Y735414D01*
X683768Y735472D01*
X683620Y735534D01*
X683473Y735600D01*
X683328Y735669D01*
X683185Y735742D01*
X683043Y735818D01*
X682904Y735898D01*
X682766Y735981D01*
X682631Y736068D01*
X682497Y736158D01*
X682366Y736251D01*
X682238Y736347D01*
X682112Y736447D01*
X681988Y736550D01*
X681867Y736655D01*
X681748Y736764D01*
X681632Y736875D01*
X681519Y736990D01*
X681409Y737107D01*
X681302Y737227D01*
X681198Y737349D01*
X681097Y737474D01*
X680999Y737602D01*
X680904Y737732D01*
X680812Y737864D01*
X680724Y737998D01*
X680639Y738135D01*
X680557Y738273D01*
X680479Y738414D01*
X680405Y738556D01*
X680334Y738700D01*
X680266Y738846D01*
X680203Y738994D01*
X680142Y739143D01*
X680086Y739294D01*
X680033Y739446D01*
X679984Y739599D01*
X679939Y739753D01*
X679898Y739908D01*
X679860Y740065D01*
X679827Y740222D01*
X679797Y740380D01*
X679771Y740539D01*
X679750Y740698D01*
X679732Y740858D01*
X679718Y741018D01*
X679708Y741179D01*
X679702Y741339D01*
X679700Y741500D01*
D10*
X682200Y698500D02*
X682209Y699212D01*
X682235Y699923D01*
X682279Y700633D01*
X682340Y701342D01*
X682418Y702050D01*
X682514Y702755D01*
X682627Y703458D01*
X682757Y704158D01*
X682905Y704854D01*
X683069Y705546D01*
X683250Y706235D01*
X683449Y706918D01*
X683664Y707597D01*
X683895Y708270D01*
X684143Y708937D01*
X684407Y709598D01*
X684688Y710252D01*
X684984Y710899D01*
X685296Y711539D01*
X685624Y712171D01*
X685967Y712794D01*
X686326Y713409D01*
X686699Y714015D01*
X687087Y714612D01*
X687490Y715198D01*
X687907Y715775D01*
X688338Y716342D01*
X688783Y716897D01*
X689241Y717442D01*
X689712Y717975D01*
X690197Y718497D01*
X690694Y719006D01*
X691203Y719503D01*
X691725Y719988D01*
X692258Y720459D01*
X692803Y720917D01*
X693358Y721362D01*
X693925Y721793D01*
X694502Y722210D01*
X695088Y722613D01*
X695685Y723001D01*
X696291Y723374D01*
X696906Y723733D01*
X697529Y724076D01*
X698161Y724404D01*
X698801Y724716D01*
X699448Y725012D01*
X700102Y725293D01*
X700763Y725557D01*
X701430Y725805D01*
X702103Y726036D01*
X702782Y726251D01*
X703465Y726450D01*
X704154Y726631D01*
X704846Y726795D01*
X705542Y726943D01*
X706242Y727073D01*
X706945Y727186D01*
X707650Y727282D01*
X708358Y727360D01*
X709067Y727421D01*
X709777Y727465D01*
X710488Y727491D01*
X711200Y727500D01*
X711912Y727491D01*
X712623Y727465D01*
X713333Y727421D01*
X714042Y727360D01*
X714750Y727282D01*
X715455Y727186D01*
X716158Y727073D01*
X716858Y726943D01*
X717554Y726795D01*
X718246Y726631D01*
X718935Y726450D01*
X719618Y726251D01*
X720297Y726036D01*
X720970Y725805D01*
X721637Y725557D01*
X722298Y725293D01*
X722952Y725012D01*
X723599Y724716D01*
X724239Y724404D01*
X724871Y724076D01*
X725494Y723733D01*
X726109Y723374D01*
X726715Y723001D01*
X727312Y722613D01*
X727898Y722210D01*
X728475Y721793D01*
X729042Y721362D01*
X729597Y720917D01*
X730142Y720459D01*
X730675Y719988D01*
X731197Y719503D01*
X731706Y719006D01*
X732203Y718497D01*
X732688Y717975D01*
X733159Y717442D01*
X733617Y716897D01*
X734062Y716342D01*
X734493Y715775D01*
X734910Y715198D01*
X735313Y714612D01*
X735701Y714015D01*
X736074Y713409D01*
X736433Y712794D01*
X736776Y712171D01*
X737104Y711539D01*
X737416Y710899D01*
X737712Y710252D01*
X737993Y709598D01*
X738257Y708937D01*
X738505Y708270D01*
X738736Y707597D01*
X738951Y706918D01*
X739150Y706235D01*
X739331Y705546D01*
X739495Y704854D01*
X739643Y704158D01*
X739773Y703458D01*
X739886Y702755D01*
X739982Y702050D01*
X740060Y701342D01*
X740121Y700633D01*
X740165Y699923D01*
X740191Y699212D01*
X740200Y698500D01*
X740191Y697788D01*
X740165Y697077D01*
X740121Y696367D01*
X740060Y695658D01*
X739982Y694950D01*
X739886Y694245D01*
X739773Y693542D01*
X739643Y692842D01*
X739495Y692146D01*
X739331Y691454D01*
X739150Y690765D01*
X738951Y690082D01*
X738736Y689403D01*
X738505Y688730D01*
X738257Y688063D01*
X737993Y687402D01*
X737712Y686748D01*
X737416Y686101D01*
X737104Y685461D01*
X736776Y684829D01*
X736433Y684206D01*
X736074Y683591D01*
X735701Y682985D01*
X735313Y682388D01*
X734910Y681802D01*
X734493Y681225D01*
X734062Y680658D01*
X733617Y680103D01*
X733159Y679558D01*
X732688Y679025D01*
X732203Y678503D01*
X731706Y677994D01*
X731197Y677497D01*
X730675Y677012D01*
X730142Y676541D01*
X729597Y676083D01*
X729042Y675638D01*
X728475Y675207D01*
X727898Y674790D01*
X727312Y674387D01*
X726715Y673999D01*
X726109Y673626D01*
X725494Y673267D01*
X724871Y672924D01*
X724239Y672596D01*
X723599Y672284D01*
X722952Y671988D01*
X722298Y671707D01*
X721637Y671443D01*
X720970Y671195D01*
X720297Y670964D01*
X719618Y670749D01*
X718935Y670550D01*
X718246Y670369D01*
X717554Y670205D01*
X716858Y670057D01*
X716158Y669927D01*
X715455Y669814D01*
X714750Y669718D01*
X714042Y669640D01*
X713333Y669579D01*
X712623Y669535D01*
X711912Y669509D01*
X711200Y669500D01*
X710488Y669509D01*
X709777Y669535D01*
X709067Y669579D01*
X708358Y669640D01*
X707650Y669718D01*
X706945Y669814D01*
X706242Y669927D01*
X705542Y670057D01*
X704846Y670205D01*
X704154Y670369D01*
X703465Y670550D01*
X702782Y670749D01*
X702103Y670964D01*
X701430Y671195D01*
X700763Y671443D01*
X700102Y671707D01*
X699448Y671988D01*
X698801Y672284D01*
X698161Y672596D01*
X697529Y672924D01*
X696906Y673267D01*
X696291Y673626D01*
X695685Y673999D01*
X695088Y674387D01*
X694502Y674790D01*
X693925Y675207D01*
X693358Y675638D01*
X692803Y676083D01*
X692258Y676541D01*
X691725Y677012D01*
X691203Y677497D01*
X690694Y677994D01*
X690197Y678503D01*
X689712Y679025D01*
X689241Y679558D01*
X688783Y680103D01*
X688338Y680658D01*
X687907Y681225D01*
X687490Y681802D01*
X687087Y682388D01*
X686699Y682985D01*
X686326Y683591D01*
X685967Y684206D01*
X685624Y684829D01*
X685296Y685461D01*
X684984Y686101D01*
X684688Y686748D01*
X684407Y687402D01*
X684143Y688063D01*
X683895Y688730D01*
X683664Y689403D01*
X683449Y690082D01*
X683250Y690765D01*
X683069Y691454D01*
X682905Y692146D01*
X682757Y692842D01*
X682627Y693542D01*
X682514Y694245D01*
X682418Y694950D01*
X682340Y695658D01*
X682279Y696367D01*
X682235Y697077D01*
X682209Y697788D01*
X682200Y698500D01*
X687699Y698500D02*
X687706Y699077D01*
X687727Y699653D01*
X687763Y700229D01*
X687812Y700804D01*
X687876Y701377D01*
X687953Y701948D01*
X688045Y702518D01*
X688151Y703085D01*
X688270Y703649D01*
X688403Y704210D01*
X688550Y704768D01*
X688711Y705322D01*
X688885Y705872D01*
X689073Y706417D01*
X689274Y706958D01*
X689488Y707493D01*
X689715Y708024D01*
X689955Y708548D01*
X690208Y709066D01*
X690474Y709578D01*
X690752Y710084D01*
X691043Y710582D01*
X691345Y711073D01*
X691660Y711556D01*
X691986Y712032D01*
X692324Y712500D01*
X692673Y712959D01*
X693033Y713409D01*
X693405Y713850D01*
X693787Y714282D01*
X694179Y714705D01*
X694582Y715118D01*
X694995Y715521D01*
X695418Y715913D01*
X695850Y716295D01*
X696291Y716667D01*
X696741Y717027D01*
X697200Y717376D01*
X697668Y717714D01*
X698144Y718040D01*
X698627Y718355D01*
X699118Y718657D01*
X699616Y718948D01*
X700122Y719226D01*
X700634Y719492D01*
X701152Y719745D01*
X701676Y719985D01*
X702207Y720212D01*
X702742Y720426D01*
X703283Y720627D01*
X703828Y720815D01*
X704378Y720989D01*
X704932Y721150D01*
X705490Y721297D01*
X706051Y721430D01*
X706615Y721549D01*
X707182Y721655D01*
X707752Y721747D01*
X708323Y721824D01*
X708896Y721888D01*
X709471Y721937D01*
X710047Y721973D01*
X710623Y721994D01*
X711200Y722001D01*
X711777Y721994D01*
X712353Y721973D01*
X712929Y721937D01*
X713504Y721888D01*
X714077Y721824D01*
X714648Y721747D01*
X715218Y721655D01*
X715785Y721549D01*
X716349Y721430D01*
X716910Y721297D01*
X717468Y721150D01*
X718022Y720989D01*
X718572Y720815D01*
X719117Y720627D01*
X719658Y720426D01*
X720193Y720212D01*
X720724Y719985D01*
X721248Y719745D01*
X721766Y719492D01*
X722278Y719226D01*
X722784Y718948D01*
X723282Y718657D01*
X723773Y718355D01*
X724256Y718040D01*
X724732Y717714D01*
X725200Y717376D01*
X725659Y717027D01*
X726109Y716667D01*
X726550Y716295D01*
X726982Y715913D01*
X727405Y715521D01*
X727818Y715118D01*
X728221Y714705D01*
X728613Y714282D01*
X728995Y713850D01*
X729367Y713409D01*
X729727Y712959D01*
X730076Y712500D01*
X730414Y712032D01*
X730740Y711556D01*
X731055Y711073D01*
X731357Y710582D01*
X731648Y710084D01*
X731926Y709578D01*
X732192Y709066D01*
X732445Y708548D01*
X732685Y708024D01*
X732912Y707493D01*
X733126Y706958D01*
X733327Y706417D01*
X733515Y705872D01*
X733689Y705322D01*
X733850Y704768D01*
X733997Y704210D01*
X734130Y703649D01*
X734249Y703085D01*
X734355Y702518D01*
X734447Y701948D01*
X734524Y701377D01*
X734588Y700804D01*
X734637Y700229D01*
X734673Y699653D01*
X734694Y699077D01*
X734701Y698500D01*
X734694Y697923D01*
X734673Y697347D01*
X734637Y696771D01*
X734588Y696196D01*
X734524Y695623D01*
X734447Y695052D01*
X734355Y694482D01*
X734249Y693915D01*
X734130Y693351D01*
X733997Y692790D01*
X733850Y692232D01*
X733689Y691678D01*
X733515Y691128D01*
X733327Y690583D01*
X733126Y690042D01*
X732912Y689507D01*
X732685Y688976D01*
X732445Y688452D01*
X732192Y687934D01*
X731926Y687422D01*
X731648Y686916D01*
X731357Y686418D01*
X731055Y685927D01*
X730740Y685444D01*
X730414Y684968D01*
X730076Y684500D01*
X729727Y684041D01*
X729367Y683591D01*
X728995Y683150D01*
X728613Y682718D01*
X728221Y682295D01*
X727818Y681882D01*
X727405Y681479D01*
X726982Y681087D01*
X726550Y680705D01*
X726109Y680333D01*
X725659Y679973D01*
X725200Y679624D01*
X724732Y679286D01*
X724256Y678960D01*
X723773Y678645D01*
X723282Y678343D01*
X722784Y678052D01*
X722278Y677774D01*
X721766Y677508D01*
X721248Y677255D01*
X720724Y677015D01*
X720193Y676788D01*
X719658Y676574D01*
X719117Y676373D01*
X718572Y676185D01*
X718022Y676011D01*
X717468Y675850D01*
X716910Y675703D01*
X716349Y675570D01*
X715785Y675451D01*
X715218Y675345D01*
X714648Y675253D01*
X714077Y675176D01*
X713504Y675112D01*
X712929Y675063D01*
X712353Y675027D01*
X711777Y675006D01*
X711200Y674999D01*
X710623Y675006D01*
X710047Y675027D01*
X709471Y675063D01*
X708896Y675112D01*
X708323Y675176D01*
X707752Y675253D01*
X707182Y675345D01*
X706615Y675451D01*
X706051Y675570D01*
X705490Y675703D01*
X704932Y675850D01*
X704378Y676011D01*
X703828Y676185D01*
X703283Y676373D01*
X702742Y676574D01*
X702207Y676788D01*
X701676Y677015D01*
X701152Y677255D01*
X700634Y677508D01*
X700122Y677774D01*
X699616Y678052D01*
X699118Y678343D01*
X698627Y678645D01*
X698144Y678960D01*
X697668Y679286D01*
X697200Y679624D01*
X696741Y679973D01*
X696291Y680333D01*
X695850Y680705D01*
X695418Y681087D01*
X694995Y681479D01*
X694582Y681882D01*
X694179Y682295D01*
X693787Y682718D01*
X693405Y683150D01*
X693033Y683591D01*
X692673Y684041D01*
X692324Y684500D01*
X691986Y684968D01*
X691660Y685444D01*
X691345Y685927D01*
X691043Y686418D01*
X690752Y686916D01*
X690474Y687422D01*
X690208Y687934D01*
X689955Y688452D01*
X689715Y688976D01*
X689488Y689507D01*
X689274Y690042D01*
X689073Y690583D01*
X688885Y691128D01*
X688711Y691678D01*
X688550Y692232D01*
X688403Y692790D01*
X688270Y693351D01*
X688151Y693915D01*
X688045Y694482D01*
X687953Y695052D01*
X687876Y695623D01*
X687812Y696196D01*
X687763Y696771D01*
X687727Y697347D01*
X687706Y697923D01*
X687699Y698500D01*
X873400Y752500D02*
X955400Y752500D01*
X955400Y639500D02*
X873400Y639500D01*
X955400Y747000D02*
X960900Y747000D01*
X955400Y747000D02*
X955400Y752500D01*
X955400Y645000D02*
X955400Y639500D01*
X955400Y645000D02*
X960900Y645000D01*
X873400Y645000D02*
X867900Y645000D01*
X873400Y645000D02*
X873400Y639500D01*
X873400Y747000D02*
X873400Y752500D01*
X873400Y747000D02*
X867900Y747000D01*
X960900Y747000D02*
X960900Y725000D01*
X960900Y677000D02*
X960900Y645000D01*
X867900Y725000D02*
X867900Y747000D01*
X867900Y677000D02*
X867900Y645000D01*
D11*
X932900Y652500D02*
X932902Y652661D01*
X932908Y652821D01*
X932918Y652982D01*
X932932Y653142D01*
X932950Y653302D01*
X932971Y653461D01*
X932997Y653620D01*
X933027Y653778D01*
X933060Y653935D01*
X933098Y654092D01*
X933139Y654247D01*
X933184Y654401D01*
X933233Y654554D01*
X933286Y654706D01*
X933342Y654857D01*
X933403Y655006D01*
X933466Y655154D01*
X933534Y655300D01*
X933605Y655444D01*
X933679Y655586D01*
X933757Y655727D01*
X933839Y655865D01*
X933924Y656002D01*
X934012Y656136D01*
X934104Y656268D01*
X934199Y656398D01*
X934297Y656526D01*
X934398Y656651D01*
X934502Y656773D01*
X934609Y656893D01*
X934719Y657010D01*
X934832Y657125D01*
X934948Y657236D01*
X935067Y657345D01*
X935188Y657450D01*
X935312Y657553D01*
X935438Y657653D01*
X935566Y657749D01*
X935697Y657842D01*
X935831Y657932D01*
X935966Y658019D01*
X936104Y658102D01*
X936243Y658182D01*
X936385Y658258D01*
X936528Y658331D01*
X936673Y658400D01*
X936820Y658466D01*
X936968Y658528D01*
X937118Y658586D01*
X937269Y658641D01*
X937422Y658692D01*
X937576Y658739D01*
X937731Y658782D01*
X937887Y658821D01*
X938043Y658857D01*
X938201Y658888D01*
X938359Y658916D01*
X938518Y658940D01*
X938678Y658960D01*
X938838Y658976D01*
X938998Y658988D01*
X939159Y658996D01*
X939320Y659000D01*
X939480Y659000D01*
X939641Y658996D01*
X939802Y658988D01*
X939962Y658976D01*
X940122Y658960D01*
X940282Y658940D01*
X940441Y658916D01*
X940599Y658888D01*
X940757Y658857D01*
X940913Y658821D01*
X941069Y658782D01*
X941224Y658739D01*
X941378Y658692D01*
X941531Y658641D01*
X941682Y658586D01*
X941832Y658528D01*
X941980Y658466D01*
X942127Y658400D01*
X942272Y658331D01*
X942415Y658258D01*
X942557Y658182D01*
X942696Y658102D01*
X942834Y658019D01*
X942969Y657932D01*
X943103Y657842D01*
X943234Y657749D01*
X943362Y657653D01*
X943488Y657553D01*
X943612Y657450D01*
X943733Y657345D01*
X943852Y657236D01*
X943968Y657125D01*
X944081Y657010D01*
X944191Y656893D01*
X944298Y656773D01*
X944402Y656651D01*
X944503Y656526D01*
X944601Y656398D01*
X944696Y656268D01*
X944788Y656136D01*
X944876Y656002D01*
X944961Y655865D01*
X945043Y655727D01*
X945121Y655586D01*
X945195Y655444D01*
X945266Y655300D01*
X945334Y655154D01*
X945397Y655006D01*
X945458Y654857D01*
X945514Y654706D01*
X945567Y654554D01*
X945616Y654401D01*
X945661Y654247D01*
X945702Y654092D01*
X945740Y653935D01*
X945773Y653778D01*
X945803Y653620D01*
X945829Y653461D01*
X945850Y653302D01*
X945868Y653142D01*
X945882Y652982D01*
X945892Y652821D01*
X945898Y652661D01*
X945900Y652500D01*
X945898Y652339D01*
X945892Y652179D01*
X945882Y652018D01*
X945868Y651858D01*
X945850Y651698D01*
X945829Y651539D01*
X945803Y651380D01*
X945773Y651222D01*
X945740Y651065D01*
X945702Y650908D01*
X945661Y650753D01*
X945616Y650599D01*
X945567Y650446D01*
X945514Y650294D01*
X945458Y650143D01*
X945397Y649994D01*
X945334Y649846D01*
X945266Y649700D01*
X945195Y649556D01*
X945121Y649414D01*
X945043Y649273D01*
X944961Y649135D01*
X944876Y648998D01*
X944788Y648864D01*
X944696Y648732D01*
X944601Y648602D01*
X944503Y648474D01*
X944402Y648349D01*
X944298Y648227D01*
X944191Y648107D01*
X944081Y647990D01*
X943968Y647875D01*
X943852Y647764D01*
X943733Y647655D01*
X943612Y647550D01*
X943488Y647447D01*
X943362Y647347D01*
X943234Y647251D01*
X943103Y647158D01*
X942969Y647068D01*
X942834Y646981D01*
X942696Y646898D01*
X942557Y646818D01*
X942415Y646742D01*
X942272Y646669D01*
X942127Y646600D01*
X941980Y646534D01*
X941832Y646472D01*
X941682Y646414D01*
X941531Y646359D01*
X941378Y646308D01*
X941224Y646261D01*
X941069Y646218D01*
X940913Y646179D01*
X940757Y646143D01*
X940599Y646112D01*
X940441Y646084D01*
X940282Y646060D01*
X940122Y646040D01*
X939962Y646024D01*
X939802Y646012D01*
X939641Y646004D01*
X939480Y646000D01*
X939320Y646000D01*
X939159Y646004D01*
X938998Y646012D01*
X938838Y646024D01*
X938678Y646040D01*
X938518Y646060D01*
X938359Y646084D01*
X938201Y646112D01*
X938043Y646143D01*
X937887Y646179D01*
X937731Y646218D01*
X937576Y646261D01*
X937422Y646308D01*
X937269Y646359D01*
X937118Y646414D01*
X936968Y646472D01*
X936820Y646534D01*
X936673Y646600D01*
X936528Y646669D01*
X936385Y646742D01*
X936243Y646818D01*
X936104Y646898D01*
X935966Y646981D01*
X935831Y647068D01*
X935697Y647158D01*
X935566Y647251D01*
X935438Y647347D01*
X935312Y647447D01*
X935188Y647550D01*
X935067Y647655D01*
X934948Y647764D01*
X934832Y647875D01*
X934719Y647990D01*
X934609Y648107D01*
X934502Y648227D01*
X934398Y648349D01*
X934297Y648474D01*
X934199Y648602D01*
X934104Y648732D01*
X934012Y648864D01*
X933924Y648998D01*
X933839Y649135D01*
X933757Y649273D01*
X933679Y649414D01*
X933605Y649556D01*
X933534Y649700D01*
X933466Y649846D01*
X933403Y649994D01*
X933342Y650143D01*
X933286Y650294D01*
X933233Y650446D01*
X933184Y650599D01*
X933139Y650753D01*
X933098Y650908D01*
X933060Y651065D01*
X933027Y651222D01*
X932997Y651380D01*
X932971Y651539D01*
X932950Y651698D01*
X932932Y651858D01*
X932918Y652018D01*
X932908Y652179D01*
X932902Y652339D01*
X932900Y652500D01*
X882900Y652500D02*
X882902Y652661D01*
X882908Y652821D01*
X882918Y652982D01*
X882932Y653142D01*
X882950Y653302D01*
X882971Y653461D01*
X882997Y653620D01*
X883027Y653778D01*
X883060Y653935D01*
X883098Y654092D01*
X883139Y654247D01*
X883184Y654401D01*
X883233Y654554D01*
X883286Y654706D01*
X883342Y654857D01*
X883403Y655006D01*
X883466Y655154D01*
X883534Y655300D01*
X883605Y655444D01*
X883679Y655586D01*
X883757Y655727D01*
X883839Y655865D01*
X883924Y656002D01*
X884012Y656136D01*
X884104Y656268D01*
X884199Y656398D01*
X884297Y656526D01*
X884398Y656651D01*
X884502Y656773D01*
X884609Y656893D01*
X884719Y657010D01*
X884832Y657125D01*
X884948Y657236D01*
X885067Y657345D01*
X885188Y657450D01*
X885312Y657553D01*
X885438Y657653D01*
X885566Y657749D01*
X885697Y657842D01*
X885831Y657932D01*
X885966Y658019D01*
X886104Y658102D01*
X886243Y658182D01*
X886385Y658258D01*
X886528Y658331D01*
X886673Y658400D01*
X886820Y658466D01*
X886968Y658528D01*
X887118Y658586D01*
X887269Y658641D01*
X887422Y658692D01*
X887576Y658739D01*
X887731Y658782D01*
X887887Y658821D01*
X888043Y658857D01*
X888201Y658888D01*
X888359Y658916D01*
X888518Y658940D01*
X888678Y658960D01*
X888838Y658976D01*
X888998Y658988D01*
X889159Y658996D01*
X889320Y659000D01*
X889480Y659000D01*
X889641Y658996D01*
X889802Y658988D01*
X889962Y658976D01*
X890122Y658960D01*
X890282Y658940D01*
X890441Y658916D01*
X890599Y658888D01*
X890757Y658857D01*
X890913Y658821D01*
X891069Y658782D01*
X891224Y658739D01*
X891378Y658692D01*
X891531Y658641D01*
X891682Y658586D01*
X891832Y658528D01*
X891980Y658466D01*
X892127Y658400D01*
X892272Y658331D01*
X892415Y658258D01*
X892557Y658182D01*
X892696Y658102D01*
X892834Y658019D01*
X892969Y657932D01*
X893103Y657842D01*
X893234Y657749D01*
X893362Y657653D01*
X893488Y657553D01*
X893612Y657450D01*
X893733Y657345D01*
X893852Y657236D01*
X893968Y657125D01*
X894081Y657010D01*
X894191Y656893D01*
X894298Y656773D01*
X894402Y656651D01*
X894503Y656526D01*
X894601Y656398D01*
X894696Y656268D01*
X894788Y656136D01*
X894876Y656002D01*
X894961Y655865D01*
X895043Y655727D01*
X895121Y655586D01*
X895195Y655444D01*
X895266Y655300D01*
X895334Y655154D01*
X895397Y655006D01*
X895458Y654857D01*
X895514Y654706D01*
X895567Y654554D01*
X895616Y654401D01*
X895661Y654247D01*
X895702Y654092D01*
X895740Y653935D01*
X895773Y653778D01*
X895803Y653620D01*
X895829Y653461D01*
X895850Y653302D01*
X895868Y653142D01*
X895882Y652982D01*
X895892Y652821D01*
X895898Y652661D01*
X895900Y652500D01*
X895898Y652339D01*
X895892Y652179D01*
X895882Y652018D01*
X895868Y651858D01*
X895850Y651698D01*
X895829Y651539D01*
X895803Y651380D01*
X895773Y651222D01*
X895740Y651065D01*
X895702Y650908D01*
X895661Y650753D01*
X895616Y650599D01*
X895567Y650446D01*
X895514Y650294D01*
X895458Y650143D01*
X895397Y649994D01*
X895334Y649846D01*
X895266Y649700D01*
X895195Y649556D01*
X895121Y649414D01*
X895043Y649273D01*
X894961Y649135D01*
X894876Y648998D01*
X894788Y648864D01*
X894696Y648732D01*
X894601Y648602D01*
X894503Y648474D01*
X894402Y648349D01*
X894298Y648227D01*
X894191Y648107D01*
X894081Y647990D01*
X893968Y647875D01*
X893852Y647764D01*
X893733Y647655D01*
X893612Y647550D01*
X893488Y647447D01*
X893362Y647347D01*
X893234Y647251D01*
X893103Y647158D01*
X892969Y647068D01*
X892834Y646981D01*
X892696Y646898D01*
X892557Y646818D01*
X892415Y646742D01*
X892272Y646669D01*
X892127Y646600D01*
X891980Y646534D01*
X891832Y646472D01*
X891682Y646414D01*
X891531Y646359D01*
X891378Y646308D01*
X891224Y646261D01*
X891069Y646218D01*
X890913Y646179D01*
X890757Y646143D01*
X890599Y646112D01*
X890441Y646084D01*
X890282Y646060D01*
X890122Y646040D01*
X889962Y646024D01*
X889802Y646012D01*
X889641Y646004D01*
X889480Y646000D01*
X889320Y646000D01*
X889159Y646004D01*
X888998Y646012D01*
X888838Y646024D01*
X888678Y646040D01*
X888518Y646060D01*
X888359Y646084D01*
X888201Y646112D01*
X888043Y646143D01*
X887887Y646179D01*
X887731Y646218D01*
X887576Y646261D01*
X887422Y646308D01*
X887269Y646359D01*
X887118Y646414D01*
X886968Y646472D01*
X886820Y646534D01*
X886673Y646600D01*
X886528Y646669D01*
X886385Y646742D01*
X886243Y646818D01*
X886104Y646898D01*
X885966Y646981D01*
X885831Y647068D01*
X885697Y647158D01*
X885566Y647251D01*
X885438Y647347D01*
X885312Y647447D01*
X885188Y647550D01*
X885067Y647655D01*
X884948Y647764D01*
X884832Y647875D01*
X884719Y647990D01*
X884609Y648107D01*
X884502Y648227D01*
X884398Y648349D01*
X884297Y648474D01*
X884199Y648602D01*
X884104Y648732D01*
X884012Y648864D01*
X883924Y648998D01*
X883839Y649135D01*
X883757Y649273D01*
X883679Y649414D01*
X883605Y649556D01*
X883534Y649700D01*
X883466Y649846D01*
X883403Y649994D01*
X883342Y650143D01*
X883286Y650294D01*
X883233Y650446D01*
X883184Y650599D01*
X883139Y650753D01*
X883098Y650908D01*
X883060Y651065D01*
X883027Y651222D01*
X882997Y651380D01*
X882971Y651539D01*
X882950Y651698D01*
X882932Y651858D01*
X882918Y652018D01*
X882908Y652179D01*
X882902Y652339D01*
X882900Y652500D01*
X932900Y741500D02*
X932902Y741661D01*
X932908Y741821D01*
X932918Y741982D01*
X932932Y742142D01*
X932950Y742302D01*
X932971Y742461D01*
X932997Y742620D01*
X933027Y742778D01*
X933060Y742935D01*
X933098Y743092D01*
X933139Y743247D01*
X933184Y743401D01*
X933233Y743554D01*
X933286Y743706D01*
X933342Y743857D01*
X933403Y744006D01*
X933466Y744154D01*
X933534Y744300D01*
X933605Y744444D01*
X933679Y744586D01*
X933757Y744727D01*
X933839Y744865D01*
X933924Y745002D01*
X934012Y745136D01*
X934104Y745268D01*
X934199Y745398D01*
X934297Y745526D01*
X934398Y745651D01*
X934502Y745773D01*
X934609Y745893D01*
X934719Y746010D01*
X934832Y746125D01*
X934948Y746236D01*
X935067Y746345D01*
X935188Y746450D01*
X935312Y746553D01*
X935438Y746653D01*
X935566Y746749D01*
X935697Y746842D01*
X935831Y746932D01*
X935966Y747019D01*
X936104Y747102D01*
X936243Y747182D01*
X936385Y747258D01*
X936528Y747331D01*
X936673Y747400D01*
X936820Y747466D01*
X936968Y747528D01*
X937118Y747586D01*
X937269Y747641D01*
X937422Y747692D01*
X937576Y747739D01*
X937731Y747782D01*
X937887Y747821D01*
X938043Y747857D01*
X938201Y747888D01*
X938359Y747916D01*
X938518Y747940D01*
X938678Y747960D01*
X938838Y747976D01*
X938998Y747988D01*
X939159Y747996D01*
X939320Y748000D01*
X939480Y748000D01*
X939641Y747996D01*
X939802Y747988D01*
X939962Y747976D01*
X940122Y747960D01*
X940282Y747940D01*
X940441Y747916D01*
X940599Y747888D01*
X940757Y747857D01*
X940913Y747821D01*
X941069Y747782D01*
X941224Y747739D01*
X941378Y747692D01*
X941531Y747641D01*
X941682Y747586D01*
X941832Y747528D01*
X941980Y747466D01*
X942127Y747400D01*
X942272Y747331D01*
X942415Y747258D01*
X942557Y747182D01*
X942696Y747102D01*
X942834Y747019D01*
X942969Y746932D01*
X943103Y746842D01*
X943234Y746749D01*
X943362Y746653D01*
X943488Y746553D01*
X943612Y746450D01*
X943733Y746345D01*
X943852Y746236D01*
X943968Y746125D01*
X944081Y746010D01*
X944191Y745893D01*
X944298Y745773D01*
X944402Y745651D01*
X944503Y745526D01*
X944601Y745398D01*
X944696Y745268D01*
X944788Y745136D01*
X944876Y745002D01*
X944961Y744865D01*
X945043Y744727D01*
X945121Y744586D01*
X945195Y744444D01*
X945266Y744300D01*
X945334Y744154D01*
X945397Y744006D01*
X945458Y743857D01*
X945514Y743706D01*
X945567Y743554D01*
X945616Y743401D01*
X945661Y743247D01*
X945702Y743092D01*
X945740Y742935D01*
X945773Y742778D01*
X945803Y742620D01*
X945829Y742461D01*
X945850Y742302D01*
X945868Y742142D01*
X945882Y741982D01*
X945892Y741821D01*
X945898Y741661D01*
X945900Y741500D01*
X945898Y741339D01*
X945892Y741179D01*
X945882Y741018D01*
X945868Y740858D01*
X945850Y740698D01*
X945829Y740539D01*
X945803Y740380D01*
X945773Y740222D01*
X945740Y740065D01*
X945702Y739908D01*
X945661Y739753D01*
X945616Y739599D01*
X945567Y739446D01*
X945514Y739294D01*
X945458Y739143D01*
X945397Y738994D01*
X945334Y738846D01*
X945266Y738700D01*
X945195Y738556D01*
X945121Y738414D01*
X945043Y738273D01*
X944961Y738135D01*
X944876Y737998D01*
X944788Y737864D01*
X944696Y737732D01*
X944601Y737602D01*
X944503Y737474D01*
X944402Y737349D01*
X944298Y737227D01*
X944191Y737107D01*
X944081Y736990D01*
X943968Y736875D01*
X943852Y736764D01*
X943733Y736655D01*
X943612Y736550D01*
X943488Y736447D01*
X943362Y736347D01*
X943234Y736251D01*
X943103Y736158D01*
X942969Y736068D01*
X942834Y735981D01*
X942696Y735898D01*
X942557Y735818D01*
X942415Y735742D01*
X942272Y735669D01*
X942127Y735600D01*
X941980Y735534D01*
X941832Y735472D01*
X941682Y735414D01*
X941531Y735359D01*
X941378Y735308D01*
X941224Y735261D01*
X941069Y735218D01*
X940913Y735179D01*
X940757Y735143D01*
X940599Y735112D01*
X940441Y735084D01*
X940282Y735060D01*
X940122Y735040D01*
X939962Y735024D01*
X939802Y735012D01*
X939641Y735004D01*
X939480Y735000D01*
X939320Y735000D01*
X939159Y735004D01*
X938998Y735012D01*
X938838Y735024D01*
X938678Y735040D01*
X938518Y735060D01*
X938359Y735084D01*
X938201Y735112D01*
X938043Y735143D01*
X937887Y735179D01*
X937731Y735218D01*
X937576Y735261D01*
X937422Y735308D01*
X937269Y735359D01*
X937118Y735414D01*
X936968Y735472D01*
X936820Y735534D01*
X936673Y735600D01*
X936528Y735669D01*
X936385Y735742D01*
X936243Y735818D01*
X936104Y735898D01*
X935966Y735981D01*
X935831Y736068D01*
X935697Y736158D01*
X935566Y736251D01*
X935438Y736347D01*
X935312Y736447D01*
X935188Y736550D01*
X935067Y736655D01*
X934948Y736764D01*
X934832Y736875D01*
X934719Y736990D01*
X934609Y737107D01*
X934502Y737227D01*
X934398Y737349D01*
X934297Y737474D01*
X934199Y737602D01*
X934104Y737732D01*
X934012Y737864D01*
X933924Y737998D01*
X933839Y738135D01*
X933757Y738273D01*
X933679Y738414D01*
X933605Y738556D01*
X933534Y738700D01*
X933466Y738846D01*
X933403Y738994D01*
X933342Y739143D01*
X933286Y739294D01*
X933233Y739446D01*
X933184Y739599D01*
X933139Y739753D01*
X933098Y739908D01*
X933060Y740065D01*
X933027Y740222D01*
X932997Y740380D01*
X932971Y740539D01*
X932950Y740698D01*
X932932Y740858D01*
X932918Y741018D01*
X932908Y741179D01*
X932902Y741339D01*
X932900Y741500D01*
X882900Y741500D02*
X882902Y741661D01*
X882908Y741821D01*
X882918Y741982D01*
X882932Y742142D01*
X882950Y742302D01*
X882971Y742461D01*
X882997Y742620D01*
X883027Y742778D01*
X883060Y742935D01*
X883098Y743092D01*
X883139Y743247D01*
X883184Y743401D01*
X883233Y743554D01*
X883286Y743706D01*
X883342Y743857D01*
X883403Y744006D01*
X883466Y744154D01*
X883534Y744300D01*
X883605Y744444D01*
X883679Y744586D01*
X883757Y744727D01*
X883839Y744865D01*
X883924Y745002D01*
X884012Y745136D01*
X884104Y745268D01*
X884199Y745398D01*
X884297Y745526D01*
X884398Y745651D01*
X884502Y745773D01*
X884609Y745893D01*
X884719Y746010D01*
X884832Y746125D01*
X884948Y746236D01*
X885067Y746345D01*
X885188Y746450D01*
X885312Y746553D01*
X885438Y746653D01*
X885566Y746749D01*
X885697Y746842D01*
X885831Y746932D01*
X885966Y747019D01*
X886104Y747102D01*
X886243Y747182D01*
X886385Y747258D01*
X886528Y747331D01*
X886673Y747400D01*
X886820Y747466D01*
X886968Y747528D01*
X887118Y747586D01*
X887269Y747641D01*
X887422Y747692D01*
X887576Y747739D01*
X887731Y747782D01*
X887887Y747821D01*
X888043Y747857D01*
X888201Y747888D01*
X888359Y747916D01*
X888518Y747940D01*
X888678Y747960D01*
X888838Y747976D01*
X888998Y747988D01*
X889159Y747996D01*
X889320Y748000D01*
X889480Y748000D01*
X889641Y747996D01*
X889802Y747988D01*
X889962Y747976D01*
X890122Y747960D01*
X890282Y747940D01*
X890441Y747916D01*
X890599Y747888D01*
X890757Y747857D01*
X890913Y747821D01*
X891069Y747782D01*
X891224Y747739D01*
X891378Y747692D01*
X891531Y747641D01*
X891682Y747586D01*
X891832Y747528D01*
X891980Y747466D01*
X892127Y747400D01*
X892272Y747331D01*
X892415Y747258D01*
X892557Y747182D01*
X892696Y747102D01*
X892834Y747019D01*
X892969Y746932D01*
X893103Y746842D01*
X893234Y746749D01*
X893362Y746653D01*
X893488Y746553D01*
X893612Y746450D01*
X893733Y746345D01*
X893852Y746236D01*
X893968Y746125D01*
X894081Y746010D01*
X894191Y745893D01*
X894298Y745773D01*
X894402Y745651D01*
X894503Y745526D01*
X894601Y745398D01*
X894696Y745268D01*
X894788Y745136D01*
X894876Y745002D01*
X894961Y744865D01*
X895043Y744727D01*
X895121Y744586D01*
X895195Y744444D01*
X895266Y744300D01*
X895334Y744154D01*
X895397Y744006D01*
X895458Y743857D01*
X895514Y743706D01*
X895567Y743554D01*
X895616Y743401D01*
X895661Y743247D01*
X895702Y743092D01*
X895740Y742935D01*
X895773Y742778D01*
X895803Y742620D01*
X895829Y742461D01*
X895850Y742302D01*
X895868Y742142D01*
X895882Y741982D01*
X895892Y741821D01*
X895898Y741661D01*
X895900Y741500D01*
X895898Y741339D01*
X895892Y741179D01*
X895882Y741018D01*
X895868Y740858D01*
X895850Y740698D01*
X895829Y740539D01*
X895803Y740380D01*
X895773Y740222D01*
X895740Y740065D01*
X895702Y739908D01*
X895661Y739753D01*
X895616Y739599D01*
X895567Y739446D01*
X895514Y739294D01*
X895458Y739143D01*
X895397Y738994D01*
X895334Y738846D01*
X895266Y738700D01*
X895195Y738556D01*
X895121Y738414D01*
X895043Y738273D01*
X894961Y738135D01*
X894876Y737998D01*
X894788Y737864D01*
X894696Y737732D01*
X894601Y737602D01*
X894503Y737474D01*
X894402Y737349D01*
X894298Y737227D01*
X894191Y737107D01*
X894081Y736990D01*
X893968Y736875D01*
X893852Y736764D01*
X893733Y736655D01*
X893612Y736550D01*
X893488Y736447D01*
X893362Y736347D01*
X893234Y736251D01*
X893103Y736158D01*
X892969Y736068D01*
X892834Y735981D01*
X892696Y735898D01*
X892557Y735818D01*
X892415Y735742D01*
X892272Y735669D01*
X892127Y735600D01*
X891980Y735534D01*
X891832Y735472D01*
X891682Y735414D01*
X891531Y735359D01*
X891378Y735308D01*
X891224Y735261D01*
X891069Y735218D01*
X890913Y735179D01*
X890757Y735143D01*
X890599Y735112D01*
X890441Y735084D01*
X890282Y735060D01*
X890122Y735040D01*
X889962Y735024D01*
X889802Y735012D01*
X889641Y735004D01*
X889480Y735000D01*
X889320Y735000D01*
X889159Y735004D01*
X888998Y735012D01*
X888838Y735024D01*
X888678Y735040D01*
X888518Y735060D01*
X888359Y735084D01*
X888201Y735112D01*
X888043Y735143D01*
X887887Y735179D01*
X887731Y735218D01*
X887576Y735261D01*
X887422Y735308D01*
X887269Y735359D01*
X887118Y735414D01*
X886968Y735472D01*
X886820Y735534D01*
X886673Y735600D01*
X886528Y735669D01*
X886385Y735742D01*
X886243Y735818D01*
X886104Y735898D01*
X885966Y735981D01*
X885831Y736068D01*
X885697Y736158D01*
X885566Y736251D01*
X885438Y736347D01*
X885312Y736447D01*
X885188Y736550D01*
X885067Y736655D01*
X884948Y736764D01*
X884832Y736875D01*
X884719Y736990D01*
X884609Y737107D01*
X884502Y737227D01*
X884398Y737349D01*
X884297Y737474D01*
X884199Y737602D01*
X884104Y737732D01*
X884012Y737864D01*
X883924Y737998D01*
X883839Y738135D01*
X883757Y738273D01*
X883679Y738414D01*
X883605Y738556D01*
X883534Y738700D01*
X883466Y738846D01*
X883403Y738994D01*
X883342Y739143D01*
X883286Y739294D01*
X883233Y739446D01*
X883184Y739599D01*
X883139Y739753D01*
X883098Y739908D01*
X883060Y740065D01*
X883027Y740222D01*
X882997Y740380D01*
X882971Y740539D01*
X882950Y740698D01*
X882932Y740858D01*
X882918Y741018D01*
X882908Y741179D01*
X882902Y741339D01*
X882900Y741500D01*
D10*
X885400Y698500D02*
X885409Y699212D01*
X885435Y699923D01*
X885479Y700633D01*
X885540Y701342D01*
X885618Y702050D01*
X885714Y702755D01*
X885827Y703458D01*
X885957Y704158D01*
X886105Y704854D01*
X886269Y705546D01*
X886450Y706235D01*
X886649Y706918D01*
X886864Y707597D01*
X887095Y708270D01*
X887343Y708937D01*
X887607Y709598D01*
X887888Y710252D01*
X888184Y710899D01*
X888496Y711539D01*
X888824Y712171D01*
X889167Y712794D01*
X889526Y713409D01*
X889899Y714015D01*
X890287Y714612D01*
X890690Y715198D01*
X891107Y715775D01*
X891538Y716342D01*
X891983Y716897D01*
X892441Y717442D01*
X892912Y717975D01*
X893397Y718497D01*
X893894Y719006D01*
X894403Y719503D01*
X894925Y719988D01*
X895458Y720459D01*
X896003Y720917D01*
X896558Y721362D01*
X897125Y721793D01*
X897702Y722210D01*
X898288Y722613D01*
X898885Y723001D01*
X899491Y723374D01*
X900106Y723733D01*
X900729Y724076D01*
X901361Y724404D01*
X902001Y724716D01*
X902648Y725012D01*
X903302Y725293D01*
X903963Y725557D01*
X904630Y725805D01*
X905303Y726036D01*
X905982Y726251D01*
X906665Y726450D01*
X907354Y726631D01*
X908046Y726795D01*
X908742Y726943D01*
X909442Y727073D01*
X910145Y727186D01*
X910850Y727282D01*
X911558Y727360D01*
X912267Y727421D01*
X912977Y727465D01*
X913688Y727491D01*
X914400Y727500D01*
X915112Y727491D01*
X915823Y727465D01*
X916533Y727421D01*
X917242Y727360D01*
X917950Y727282D01*
X918655Y727186D01*
X919358Y727073D01*
X920058Y726943D01*
X920754Y726795D01*
X921446Y726631D01*
X922135Y726450D01*
X922818Y726251D01*
X923497Y726036D01*
X924170Y725805D01*
X924837Y725557D01*
X925498Y725293D01*
X926152Y725012D01*
X926799Y724716D01*
X927439Y724404D01*
X928071Y724076D01*
X928694Y723733D01*
X929309Y723374D01*
X929915Y723001D01*
X930512Y722613D01*
X931098Y722210D01*
X931675Y721793D01*
X932242Y721362D01*
X932797Y720917D01*
X933342Y720459D01*
X933875Y719988D01*
X934397Y719503D01*
X934906Y719006D01*
X935403Y718497D01*
X935888Y717975D01*
X936359Y717442D01*
X936817Y716897D01*
X937262Y716342D01*
X937693Y715775D01*
X938110Y715198D01*
X938513Y714612D01*
X938901Y714015D01*
X939274Y713409D01*
X939633Y712794D01*
X939976Y712171D01*
X940304Y711539D01*
X940616Y710899D01*
X940912Y710252D01*
X941193Y709598D01*
X941457Y708937D01*
X941705Y708270D01*
X941936Y707597D01*
X942151Y706918D01*
X942350Y706235D01*
X942531Y705546D01*
X942695Y704854D01*
X942843Y704158D01*
X942973Y703458D01*
X943086Y702755D01*
X943182Y702050D01*
X943260Y701342D01*
X943321Y700633D01*
X943365Y699923D01*
X943391Y699212D01*
X943400Y698500D01*
X943391Y697788D01*
X943365Y697077D01*
X943321Y696367D01*
X943260Y695658D01*
X943182Y694950D01*
X943086Y694245D01*
X942973Y693542D01*
X942843Y692842D01*
X942695Y692146D01*
X942531Y691454D01*
X942350Y690765D01*
X942151Y690082D01*
X941936Y689403D01*
X941705Y688730D01*
X941457Y688063D01*
X941193Y687402D01*
X940912Y686748D01*
X940616Y686101D01*
X940304Y685461D01*
X939976Y684829D01*
X939633Y684206D01*
X939274Y683591D01*
X938901Y682985D01*
X938513Y682388D01*
X938110Y681802D01*
X937693Y681225D01*
X937262Y680658D01*
X936817Y680103D01*
X936359Y679558D01*
X935888Y679025D01*
X935403Y678503D01*
X934906Y677994D01*
X934397Y677497D01*
X933875Y677012D01*
X933342Y676541D01*
X932797Y676083D01*
X932242Y675638D01*
X931675Y675207D01*
X931098Y674790D01*
X930512Y674387D01*
X929915Y673999D01*
X929309Y673626D01*
X928694Y673267D01*
X928071Y672924D01*
X927439Y672596D01*
X926799Y672284D01*
X926152Y671988D01*
X925498Y671707D01*
X924837Y671443D01*
X924170Y671195D01*
X923497Y670964D01*
X922818Y670749D01*
X922135Y670550D01*
X921446Y670369D01*
X920754Y670205D01*
X920058Y670057D01*
X919358Y669927D01*
X918655Y669814D01*
X917950Y669718D01*
X917242Y669640D01*
X916533Y669579D01*
X915823Y669535D01*
X915112Y669509D01*
X914400Y669500D01*
X913688Y669509D01*
X912977Y669535D01*
X912267Y669579D01*
X911558Y669640D01*
X910850Y669718D01*
X910145Y669814D01*
X909442Y669927D01*
X908742Y670057D01*
X908046Y670205D01*
X907354Y670369D01*
X906665Y670550D01*
X905982Y670749D01*
X905303Y670964D01*
X904630Y671195D01*
X903963Y671443D01*
X903302Y671707D01*
X902648Y671988D01*
X902001Y672284D01*
X901361Y672596D01*
X900729Y672924D01*
X900106Y673267D01*
X899491Y673626D01*
X898885Y673999D01*
X898288Y674387D01*
X897702Y674790D01*
X897125Y675207D01*
X896558Y675638D01*
X896003Y676083D01*
X895458Y676541D01*
X894925Y677012D01*
X894403Y677497D01*
X893894Y677994D01*
X893397Y678503D01*
X892912Y679025D01*
X892441Y679558D01*
X891983Y680103D01*
X891538Y680658D01*
X891107Y681225D01*
X890690Y681802D01*
X890287Y682388D01*
X889899Y682985D01*
X889526Y683591D01*
X889167Y684206D01*
X888824Y684829D01*
X888496Y685461D01*
X888184Y686101D01*
X887888Y686748D01*
X887607Y687402D01*
X887343Y688063D01*
X887095Y688730D01*
X886864Y689403D01*
X886649Y690082D01*
X886450Y690765D01*
X886269Y691454D01*
X886105Y692146D01*
X885957Y692842D01*
X885827Y693542D01*
X885714Y694245D01*
X885618Y694950D01*
X885540Y695658D01*
X885479Y696367D01*
X885435Y697077D01*
X885409Y697788D01*
X885400Y698500D01*
X890899Y698500D02*
X890906Y699077D01*
X890927Y699653D01*
X890963Y700229D01*
X891012Y700804D01*
X891076Y701377D01*
X891153Y701948D01*
X891245Y702518D01*
X891351Y703085D01*
X891470Y703649D01*
X891603Y704210D01*
X891750Y704768D01*
X891911Y705322D01*
X892085Y705872D01*
X892273Y706417D01*
X892474Y706958D01*
X892688Y707493D01*
X892915Y708024D01*
X893155Y708548D01*
X893408Y709066D01*
X893674Y709578D01*
X893952Y710084D01*
X894243Y710582D01*
X894545Y711073D01*
X894860Y711556D01*
X895186Y712032D01*
X895524Y712500D01*
X895873Y712959D01*
X896233Y713409D01*
X896605Y713850D01*
X896987Y714282D01*
X897379Y714705D01*
X897782Y715118D01*
X898195Y715521D01*
X898618Y715913D01*
X899050Y716295D01*
X899491Y716667D01*
X899941Y717027D01*
X900400Y717376D01*
X900868Y717714D01*
X901344Y718040D01*
X901827Y718355D01*
X902318Y718657D01*
X902816Y718948D01*
X903322Y719226D01*
X903834Y719492D01*
X904352Y719745D01*
X904876Y719985D01*
X905407Y720212D01*
X905942Y720426D01*
X906483Y720627D01*
X907028Y720815D01*
X907578Y720989D01*
X908132Y721150D01*
X908690Y721297D01*
X909251Y721430D01*
X909815Y721549D01*
X910382Y721655D01*
X910952Y721747D01*
X911523Y721824D01*
X912096Y721888D01*
X912671Y721937D01*
X913247Y721973D01*
X913823Y721994D01*
X914400Y722001D01*
X914977Y721994D01*
X915553Y721973D01*
X916129Y721937D01*
X916704Y721888D01*
X917277Y721824D01*
X917848Y721747D01*
X918418Y721655D01*
X918985Y721549D01*
X919549Y721430D01*
X920110Y721297D01*
X920668Y721150D01*
X921222Y720989D01*
X921772Y720815D01*
X922317Y720627D01*
X922858Y720426D01*
X923393Y720212D01*
X923924Y719985D01*
X924448Y719745D01*
X924966Y719492D01*
X925478Y719226D01*
X925984Y718948D01*
X926482Y718657D01*
X926973Y718355D01*
X927456Y718040D01*
X927932Y717714D01*
X928400Y717376D01*
X928859Y717027D01*
X929309Y716667D01*
X929750Y716295D01*
X930182Y715913D01*
X930605Y715521D01*
X931018Y715118D01*
X931421Y714705D01*
X931813Y714282D01*
X932195Y713850D01*
X932567Y713409D01*
X932927Y712959D01*
X933276Y712500D01*
X933614Y712032D01*
X933940Y711556D01*
X934255Y711073D01*
X934557Y710582D01*
X934848Y710084D01*
X935126Y709578D01*
X935392Y709066D01*
X935645Y708548D01*
X935885Y708024D01*
X936112Y707493D01*
X936326Y706958D01*
X936527Y706417D01*
X936715Y705872D01*
X936889Y705322D01*
X937050Y704768D01*
X937197Y704210D01*
X937330Y703649D01*
X937449Y703085D01*
X937555Y702518D01*
X937647Y701948D01*
X937724Y701377D01*
X937788Y700804D01*
X937837Y700229D01*
X937873Y699653D01*
X937894Y699077D01*
X937901Y698500D01*
X937894Y697923D01*
X937873Y697347D01*
X937837Y696771D01*
X937788Y696196D01*
X937724Y695623D01*
X937647Y695052D01*
X937555Y694482D01*
X937449Y693915D01*
X937330Y693351D01*
X937197Y692790D01*
X937050Y692232D01*
X936889Y691678D01*
X936715Y691128D01*
X936527Y690583D01*
X936326Y690042D01*
X936112Y689507D01*
X935885Y688976D01*
X935645Y688452D01*
X935392Y687934D01*
X935126Y687422D01*
X934848Y686916D01*
X934557Y686418D01*
X934255Y685927D01*
X933940Y685444D01*
X933614Y684968D01*
X933276Y684500D01*
X932927Y684041D01*
X932567Y683591D01*
X932195Y683150D01*
X931813Y682718D01*
X931421Y682295D01*
X931018Y681882D01*
X930605Y681479D01*
X930182Y681087D01*
X929750Y680705D01*
X929309Y680333D01*
X928859Y679973D01*
X928400Y679624D01*
X927932Y679286D01*
X927456Y678960D01*
X926973Y678645D01*
X926482Y678343D01*
X925984Y678052D01*
X925478Y677774D01*
X924966Y677508D01*
X924448Y677255D01*
X923924Y677015D01*
X923393Y676788D01*
X922858Y676574D01*
X922317Y676373D01*
X921772Y676185D01*
X921222Y676011D01*
X920668Y675850D01*
X920110Y675703D01*
X919549Y675570D01*
X918985Y675451D01*
X918418Y675345D01*
X917848Y675253D01*
X917277Y675176D01*
X916704Y675112D01*
X916129Y675063D01*
X915553Y675027D01*
X914977Y675006D01*
X914400Y674999D01*
X913823Y675006D01*
X913247Y675027D01*
X912671Y675063D01*
X912096Y675112D01*
X911523Y675176D01*
X910952Y675253D01*
X910382Y675345D01*
X909815Y675451D01*
X909251Y675570D01*
X908690Y675703D01*
X908132Y675850D01*
X907578Y676011D01*
X907028Y676185D01*
X906483Y676373D01*
X905942Y676574D01*
X905407Y676788D01*
X904876Y677015D01*
X904352Y677255D01*
X903834Y677508D01*
X903322Y677774D01*
X902816Y678052D01*
X902318Y678343D01*
X901827Y678645D01*
X901344Y678960D01*
X900868Y679286D01*
X900400Y679624D01*
X899941Y679973D01*
X899491Y680333D01*
X899050Y680705D01*
X898618Y681087D01*
X898195Y681479D01*
X897782Y681882D01*
X897379Y682295D01*
X896987Y682718D01*
X896605Y683150D01*
X896233Y683591D01*
X895873Y684041D01*
X895524Y684500D01*
X895186Y684968D01*
X894860Y685444D01*
X894545Y685927D01*
X894243Y686418D01*
X893952Y686916D01*
X893674Y687422D01*
X893408Y687934D01*
X893155Y688452D01*
X892915Y688976D01*
X892688Y689507D01*
X892474Y690042D01*
X892273Y690583D01*
X892085Y691128D01*
X891911Y691678D01*
X891750Y692232D01*
X891603Y692790D01*
X891470Y693351D01*
X891351Y693915D01*
X891245Y694482D01*
X891153Y695052D01*
X891076Y695623D01*
X891012Y696196D01*
X890963Y696771D01*
X890927Y697347D01*
X890906Y697923D01*
X890899Y698500D01*
X38100Y723900D02*
X38100Y762000D01*
X38100Y673100D02*
X38100Y635000D01*
X165100Y635000D01*
X165100Y673100D01*
X165100Y723900D02*
X165100Y762000D01*
X139700Y762000D01*
X63500Y762000D02*
X38100Y762000D01*
X88900Y762000D02*
X114300Y762000D01*
X467000Y752500D02*
X549000Y752500D01*
X549000Y639500D02*
X467000Y639500D01*
X549000Y747000D02*
X554500Y747000D01*
X549000Y747000D02*
X549000Y752500D01*
X549000Y645000D02*
X549000Y639500D01*
X549000Y645000D02*
X554500Y645000D01*
X467000Y645000D02*
X461500Y645000D01*
X467000Y645000D02*
X467000Y639500D01*
X467000Y747000D02*
X467000Y752500D01*
X467000Y747000D02*
X461500Y747000D01*
X554500Y747000D02*
X554500Y725000D01*
X554500Y677000D02*
X554500Y645000D01*
X461500Y725000D02*
X461500Y747000D01*
X461500Y677000D02*
X461500Y645000D01*
D11*
X526500Y652500D02*
X526502Y652661D01*
X526508Y652821D01*
X526518Y652982D01*
X526532Y653142D01*
X526550Y653302D01*
X526571Y653461D01*
X526597Y653620D01*
X526627Y653778D01*
X526660Y653935D01*
X526698Y654092D01*
X526739Y654247D01*
X526784Y654401D01*
X526833Y654554D01*
X526886Y654706D01*
X526942Y654857D01*
X527003Y655006D01*
X527066Y655154D01*
X527134Y655300D01*
X527205Y655444D01*
X527279Y655586D01*
X527357Y655727D01*
X527439Y655865D01*
X527524Y656002D01*
X527612Y656136D01*
X527704Y656268D01*
X527799Y656398D01*
X527897Y656526D01*
X527998Y656651D01*
X528102Y656773D01*
X528209Y656893D01*
X528319Y657010D01*
X528432Y657125D01*
X528548Y657236D01*
X528667Y657345D01*
X528788Y657450D01*
X528912Y657553D01*
X529038Y657653D01*
X529166Y657749D01*
X529297Y657842D01*
X529431Y657932D01*
X529566Y658019D01*
X529704Y658102D01*
X529843Y658182D01*
X529985Y658258D01*
X530128Y658331D01*
X530273Y658400D01*
X530420Y658466D01*
X530568Y658528D01*
X530718Y658586D01*
X530869Y658641D01*
X531022Y658692D01*
X531176Y658739D01*
X531331Y658782D01*
X531487Y658821D01*
X531643Y658857D01*
X531801Y658888D01*
X531959Y658916D01*
X532118Y658940D01*
X532278Y658960D01*
X532438Y658976D01*
X532598Y658988D01*
X532759Y658996D01*
X532920Y659000D01*
X533080Y659000D01*
X533241Y658996D01*
X533402Y658988D01*
X533562Y658976D01*
X533722Y658960D01*
X533882Y658940D01*
X534041Y658916D01*
X534199Y658888D01*
X534357Y658857D01*
X534513Y658821D01*
X534669Y658782D01*
X534824Y658739D01*
X534978Y658692D01*
X535131Y658641D01*
X535282Y658586D01*
X535432Y658528D01*
X535580Y658466D01*
X535727Y658400D01*
X535872Y658331D01*
X536015Y658258D01*
X536157Y658182D01*
X536296Y658102D01*
X536434Y658019D01*
X536569Y657932D01*
X536703Y657842D01*
X536834Y657749D01*
X536962Y657653D01*
X537088Y657553D01*
X537212Y657450D01*
X537333Y657345D01*
X537452Y657236D01*
X537568Y657125D01*
X537681Y657010D01*
X537791Y656893D01*
X537898Y656773D01*
X538002Y656651D01*
X538103Y656526D01*
X538201Y656398D01*
X538296Y656268D01*
X538388Y656136D01*
X538476Y656002D01*
X538561Y655865D01*
X538643Y655727D01*
X538721Y655586D01*
X538795Y655444D01*
X538866Y655300D01*
X538934Y655154D01*
X538997Y655006D01*
X539058Y654857D01*
X539114Y654706D01*
X539167Y654554D01*
X539216Y654401D01*
X539261Y654247D01*
X539302Y654092D01*
X539340Y653935D01*
X539373Y653778D01*
X539403Y653620D01*
X539429Y653461D01*
X539450Y653302D01*
X539468Y653142D01*
X539482Y652982D01*
X539492Y652821D01*
X539498Y652661D01*
X539500Y652500D01*
X539498Y652339D01*
X539492Y652179D01*
X539482Y652018D01*
X539468Y651858D01*
X539450Y651698D01*
X539429Y651539D01*
X539403Y651380D01*
X539373Y651222D01*
X539340Y651065D01*
X539302Y650908D01*
X539261Y650753D01*
X539216Y650599D01*
X539167Y650446D01*
X539114Y650294D01*
X539058Y650143D01*
X538997Y649994D01*
X538934Y649846D01*
X538866Y649700D01*
X538795Y649556D01*
X538721Y649414D01*
X538643Y649273D01*
X538561Y649135D01*
X538476Y648998D01*
X538388Y648864D01*
X538296Y648732D01*
X538201Y648602D01*
X538103Y648474D01*
X538002Y648349D01*
X537898Y648227D01*
X537791Y648107D01*
X537681Y647990D01*
X537568Y647875D01*
X537452Y647764D01*
X537333Y647655D01*
X537212Y647550D01*
X537088Y647447D01*
X536962Y647347D01*
X536834Y647251D01*
X536703Y647158D01*
X536569Y647068D01*
X536434Y646981D01*
X536296Y646898D01*
X536157Y646818D01*
X536015Y646742D01*
X535872Y646669D01*
X535727Y646600D01*
X535580Y646534D01*
X535432Y646472D01*
X535282Y646414D01*
X535131Y646359D01*
X534978Y646308D01*
X534824Y646261D01*
X534669Y646218D01*
X534513Y646179D01*
X534357Y646143D01*
X534199Y646112D01*
X534041Y646084D01*
X533882Y646060D01*
X533722Y646040D01*
X533562Y646024D01*
X533402Y646012D01*
X533241Y646004D01*
X533080Y646000D01*
X532920Y646000D01*
X532759Y646004D01*
X532598Y646012D01*
X532438Y646024D01*
X532278Y646040D01*
X532118Y646060D01*
X531959Y646084D01*
X531801Y646112D01*
X531643Y646143D01*
X531487Y646179D01*
X531331Y646218D01*
X531176Y646261D01*
X531022Y646308D01*
X530869Y646359D01*
X530718Y646414D01*
X530568Y646472D01*
X530420Y646534D01*
X530273Y646600D01*
X530128Y646669D01*
X529985Y646742D01*
X529843Y646818D01*
X529704Y646898D01*
X529566Y646981D01*
X529431Y647068D01*
X529297Y647158D01*
X529166Y647251D01*
X529038Y647347D01*
X528912Y647447D01*
X528788Y647550D01*
X528667Y647655D01*
X528548Y647764D01*
X528432Y647875D01*
X528319Y647990D01*
X528209Y648107D01*
X528102Y648227D01*
X527998Y648349D01*
X527897Y648474D01*
X527799Y648602D01*
X527704Y648732D01*
X527612Y648864D01*
X527524Y648998D01*
X527439Y649135D01*
X527357Y649273D01*
X527279Y649414D01*
X527205Y649556D01*
X527134Y649700D01*
X527066Y649846D01*
X527003Y649994D01*
X526942Y650143D01*
X526886Y650294D01*
X526833Y650446D01*
X526784Y650599D01*
X526739Y650753D01*
X526698Y650908D01*
X526660Y651065D01*
X526627Y651222D01*
X526597Y651380D01*
X526571Y651539D01*
X526550Y651698D01*
X526532Y651858D01*
X526518Y652018D01*
X526508Y652179D01*
X526502Y652339D01*
X526500Y652500D01*
X476500Y652500D02*
X476502Y652661D01*
X476508Y652821D01*
X476518Y652982D01*
X476532Y653142D01*
X476550Y653302D01*
X476571Y653461D01*
X476597Y653620D01*
X476627Y653778D01*
X476660Y653935D01*
X476698Y654092D01*
X476739Y654247D01*
X476784Y654401D01*
X476833Y654554D01*
X476886Y654706D01*
X476942Y654857D01*
X477003Y655006D01*
X477066Y655154D01*
X477134Y655300D01*
X477205Y655444D01*
X477279Y655586D01*
X477357Y655727D01*
X477439Y655865D01*
X477524Y656002D01*
X477612Y656136D01*
X477704Y656268D01*
X477799Y656398D01*
X477897Y656526D01*
X477998Y656651D01*
X478102Y656773D01*
X478209Y656893D01*
X478319Y657010D01*
X478432Y657125D01*
X478548Y657236D01*
X478667Y657345D01*
X478788Y657450D01*
X478912Y657553D01*
X479038Y657653D01*
X479166Y657749D01*
X479297Y657842D01*
X479431Y657932D01*
X479566Y658019D01*
X479704Y658102D01*
X479843Y658182D01*
X479985Y658258D01*
X480128Y658331D01*
X480273Y658400D01*
X480420Y658466D01*
X480568Y658528D01*
X480718Y658586D01*
X480869Y658641D01*
X481022Y658692D01*
X481176Y658739D01*
X481331Y658782D01*
X481487Y658821D01*
X481643Y658857D01*
X481801Y658888D01*
X481959Y658916D01*
X482118Y658940D01*
X482278Y658960D01*
X482438Y658976D01*
X482598Y658988D01*
X482759Y658996D01*
X482920Y659000D01*
X483080Y659000D01*
X483241Y658996D01*
X483402Y658988D01*
X483562Y658976D01*
X483722Y658960D01*
X483882Y658940D01*
X484041Y658916D01*
X484199Y658888D01*
X484357Y658857D01*
X484513Y658821D01*
X484669Y658782D01*
X484824Y658739D01*
X484978Y658692D01*
X485131Y658641D01*
X485282Y658586D01*
X485432Y658528D01*
X485580Y658466D01*
X485727Y658400D01*
X485872Y658331D01*
X486015Y658258D01*
X486157Y658182D01*
X486296Y658102D01*
X486434Y658019D01*
X486569Y657932D01*
X486703Y657842D01*
X486834Y657749D01*
X486962Y657653D01*
X487088Y657553D01*
X487212Y657450D01*
X487333Y657345D01*
X487452Y657236D01*
X487568Y657125D01*
X487681Y657010D01*
X487791Y656893D01*
X487898Y656773D01*
X488002Y656651D01*
X488103Y656526D01*
X488201Y656398D01*
X488296Y656268D01*
X488388Y656136D01*
X488476Y656002D01*
X488561Y655865D01*
X488643Y655727D01*
X488721Y655586D01*
X488795Y655444D01*
X488866Y655300D01*
X488934Y655154D01*
X488997Y655006D01*
X489058Y654857D01*
X489114Y654706D01*
X489167Y654554D01*
X489216Y654401D01*
X489261Y654247D01*
X489302Y654092D01*
X489340Y653935D01*
X489373Y653778D01*
X489403Y653620D01*
X489429Y653461D01*
X489450Y653302D01*
X489468Y653142D01*
X489482Y652982D01*
X489492Y652821D01*
X489498Y652661D01*
X489500Y652500D01*
X489498Y652339D01*
X489492Y652179D01*
X489482Y652018D01*
X489468Y651858D01*
X489450Y651698D01*
X489429Y651539D01*
X489403Y651380D01*
X489373Y651222D01*
X489340Y651065D01*
X489302Y650908D01*
X489261Y650753D01*
X489216Y650599D01*
X489167Y650446D01*
X489114Y650294D01*
X489058Y650143D01*
X488997Y649994D01*
X488934Y649846D01*
X488866Y649700D01*
X488795Y649556D01*
X488721Y649414D01*
X488643Y649273D01*
X488561Y649135D01*
X488476Y648998D01*
X488388Y648864D01*
X488296Y648732D01*
X488201Y648602D01*
X488103Y648474D01*
X488002Y648349D01*
X487898Y648227D01*
X487791Y648107D01*
X487681Y647990D01*
X487568Y647875D01*
X487452Y647764D01*
X487333Y647655D01*
X487212Y647550D01*
X487088Y647447D01*
X486962Y647347D01*
X486834Y647251D01*
X486703Y647158D01*
X486569Y647068D01*
X486434Y646981D01*
X486296Y646898D01*
X486157Y646818D01*
X486015Y646742D01*
X485872Y646669D01*
X485727Y646600D01*
X485580Y646534D01*
X485432Y646472D01*
X485282Y646414D01*
X485131Y646359D01*
X484978Y646308D01*
X484824Y646261D01*
X484669Y646218D01*
X484513Y646179D01*
X484357Y646143D01*
X484199Y646112D01*
X484041Y646084D01*
X483882Y646060D01*
X483722Y646040D01*
X483562Y646024D01*
X483402Y646012D01*
X483241Y646004D01*
X483080Y646000D01*
X482920Y646000D01*
X482759Y646004D01*
X482598Y646012D01*
X482438Y646024D01*
X482278Y646040D01*
X482118Y646060D01*
X481959Y646084D01*
X481801Y646112D01*
X481643Y646143D01*
X481487Y646179D01*
X481331Y646218D01*
X481176Y646261D01*
X481022Y646308D01*
X480869Y646359D01*
X480718Y646414D01*
X480568Y646472D01*
X480420Y646534D01*
X480273Y646600D01*
X480128Y646669D01*
X479985Y646742D01*
X479843Y646818D01*
X479704Y646898D01*
X479566Y646981D01*
X479431Y647068D01*
X479297Y647158D01*
X479166Y647251D01*
X479038Y647347D01*
X478912Y647447D01*
X478788Y647550D01*
X478667Y647655D01*
X478548Y647764D01*
X478432Y647875D01*
X478319Y647990D01*
X478209Y648107D01*
X478102Y648227D01*
X477998Y648349D01*
X477897Y648474D01*
X477799Y648602D01*
X477704Y648732D01*
X477612Y648864D01*
X477524Y648998D01*
X477439Y649135D01*
X477357Y649273D01*
X477279Y649414D01*
X477205Y649556D01*
X477134Y649700D01*
X477066Y649846D01*
X477003Y649994D01*
X476942Y650143D01*
X476886Y650294D01*
X476833Y650446D01*
X476784Y650599D01*
X476739Y650753D01*
X476698Y650908D01*
X476660Y651065D01*
X476627Y651222D01*
X476597Y651380D01*
X476571Y651539D01*
X476550Y651698D01*
X476532Y651858D01*
X476518Y652018D01*
X476508Y652179D01*
X476502Y652339D01*
X476500Y652500D01*
X526500Y741500D02*
X526502Y741661D01*
X526508Y741821D01*
X526518Y741982D01*
X526532Y742142D01*
X526550Y742302D01*
X526571Y742461D01*
X526597Y742620D01*
X526627Y742778D01*
X526660Y742935D01*
X526698Y743092D01*
X526739Y743247D01*
X526784Y743401D01*
X526833Y743554D01*
X526886Y743706D01*
X526942Y743857D01*
X527003Y744006D01*
X527066Y744154D01*
X527134Y744300D01*
X527205Y744444D01*
X527279Y744586D01*
X527357Y744727D01*
X527439Y744865D01*
X527524Y745002D01*
X527612Y745136D01*
X527704Y745268D01*
X527799Y745398D01*
X527897Y745526D01*
X527998Y745651D01*
X528102Y745773D01*
X528209Y745893D01*
X528319Y746010D01*
X528432Y746125D01*
X528548Y746236D01*
X528667Y746345D01*
X528788Y746450D01*
X528912Y746553D01*
X529038Y746653D01*
X529166Y746749D01*
X529297Y746842D01*
X529431Y746932D01*
X529566Y747019D01*
X529704Y747102D01*
X529843Y747182D01*
X529985Y747258D01*
X530128Y747331D01*
X530273Y747400D01*
X530420Y747466D01*
X530568Y747528D01*
X530718Y747586D01*
X530869Y747641D01*
X531022Y747692D01*
X531176Y747739D01*
X531331Y747782D01*
X531487Y747821D01*
X531643Y747857D01*
X531801Y747888D01*
X531959Y747916D01*
X532118Y747940D01*
X532278Y747960D01*
X532438Y747976D01*
X532598Y747988D01*
X532759Y747996D01*
X532920Y748000D01*
X533080Y748000D01*
X533241Y747996D01*
X533402Y747988D01*
X533562Y747976D01*
X533722Y747960D01*
X533882Y747940D01*
X534041Y747916D01*
X534199Y747888D01*
X534357Y747857D01*
X534513Y747821D01*
X534669Y747782D01*
X534824Y747739D01*
X534978Y747692D01*
X535131Y747641D01*
X535282Y747586D01*
X535432Y747528D01*
X535580Y747466D01*
X535727Y747400D01*
X535872Y747331D01*
X536015Y747258D01*
X536157Y747182D01*
X536296Y747102D01*
X536434Y747019D01*
X536569Y746932D01*
X536703Y746842D01*
X536834Y746749D01*
X536962Y746653D01*
X537088Y746553D01*
X537212Y746450D01*
X537333Y746345D01*
X537452Y746236D01*
X537568Y746125D01*
X537681Y746010D01*
X537791Y745893D01*
X537898Y745773D01*
X538002Y745651D01*
X538103Y745526D01*
X538201Y745398D01*
X538296Y745268D01*
X538388Y745136D01*
X538476Y745002D01*
X538561Y744865D01*
X538643Y744727D01*
X538721Y744586D01*
X538795Y744444D01*
X538866Y744300D01*
X538934Y744154D01*
X538997Y744006D01*
X539058Y743857D01*
X539114Y743706D01*
X539167Y743554D01*
X539216Y743401D01*
X539261Y743247D01*
X539302Y743092D01*
X539340Y742935D01*
X539373Y742778D01*
X539403Y742620D01*
X539429Y742461D01*
X539450Y742302D01*
X539468Y742142D01*
X539482Y741982D01*
X539492Y741821D01*
X539498Y741661D01*
X539500Y741500D01*
X539498Y741339D01*
X539492Y741179D01*
X539482Y741018D01*
X539468Y740858D01*
X539450Y740698D01*
X539429Y740539D01*
X539403Y740380D01*
X539373Y740222D01*
X539340Y740065D01*
X539302Y739908D01*
X539261Y739753D01*
X539216Y739599D01*
X539167Y739446D01*
X539114Y739294D01*
X539058Y739143D01*
X538997Y738994D01*
X538934Y738846D01*
X538866Y738700D01*
X538795Y738556D01*
X538721Y738414D01*
X538643Y738273D01*
X538561Y738135D01*
X538476Y737998D01*
X538388Y737864D01*
X538296Y737732D01*
X538201Y737602D01*
X538103Y737474D01*
X538002Y737349D01*
X537898Y737227D01*
X537791Y737107D01*
X537681Y736990D01*
X537568Y736875D01*
X537452Y736764D01*
X537333Y736655D01*
X537212Y736550D01*
X537088Y736447D01*
X536962Y736347D01*
X536834Y736251D01*
X536703Y736158D01*
X536569Y736068D01*
X536434Y735981D01*
X536296Y735898D01*
X536157Y735818D01*
X536015Y735742D01*
X535872Y735669D01*
X535727Y735600D01*
X535580Y735534D01*
X535432Y735472D01*
X535282Y735414D01*
X535131Y735359D01*
X534978Y735308D01*
X534824Y735261D01*
X534669Y735218D01*
X534513Y735179D01*
X534357Y735143D01*
X534199Y735112D01*
X534041Y735084D01*
X533882Y735060D01*
X533722Y735040D01*
X533562Y735024D01*
X533402Y735012D01*
X533241Y735004D01*
X533080Y735000D01*
X532920Y735000D01*
X532759Y735004D01*
X532598Y735012D01*
X532438Y735024D01*
X532278Y735040D01*
X532118Y735060D01*
X531959Y735084D01*
X531801Y735112D01*
X531643Y735143D01*
X531487Y735179D01*
X531331Y735218D01*
X531176Y735261D01*
X531022Y735308D01*
X530869Y735359D01*
X530718Y735414D01*
X530568Y735472D01*
X530420Y735534D01*
X530273Y735600D01*
X530128Y735669D01*
X529985Y735742D01*
X529843Y735818D01*
X529704Y735898D01*
X529566Y735981D01*
X529431Y736068D01*
X529297Y736158D01*
X529166Y736251D01*
X529038Y736347D01*
X528912Y736447D01*
X528788Y736550D01*
X528667Y736655D01*
X528548Y736764D01*
X528432Y736875D01*
X528319Y736990D01*
X528209Y737107D01*
X528102Y737227D01*
X527998Y737349D01*
X527897Y737474D01*
X527799Y737602D01*
X527704Y737732D01*
X527612Y737864D01*
X527524Y737998D01*
X527439Y738135D01*
X527357Y738273D01*
X527279Y738414D01*
X527205Y738556D01*
X527134Y738700D01*
X527066Y738846D01*
X527003Y738994D01*
X526942Y739143D01*
X526886Y739294D01*
X526833Y739446D01*
X526784Y739599D01*
X526739Y739753D01*
X526698Y739908D01*
X526660Y740065D01*
X526627Y740222D01*
X526597Y740380D01*
X526571Y740539D01*
X526550Y740698D01*
X526532Y740858D01*
X526518Y741018D01*
X526508Y741179D01*
X526502Y741339D01*
X526500Y741500D01*
X476500Y741500D02*
X476502Y741661D01*
X476508Y741821D01*
X476518Y741982D01*
X476532Y742142D01*
X476550Y742302D01*
X476571Y742461D01*
X476597Y742620D01*
X476627Y742778D01*
X476660Y742935D01*
X476698Y743092D01*
X476739Y743247D01*
X476784Y743401D01*
X476833Y743554D01*
X476886Y743706D01*
X476942Y743857D01*
X477003Y744006D01*
X477066Y744154D01*
X477134Y744300D01*
X477205Y744444D01*
X477279Y744586D01*
X477357Y744727D01*
X477439Y744865D01*
X477524Y745002D01*
X477612Y745136D01*
X477704Y745268D01*
X477799Y745398D01*
X477897Y745526D01*
X477998Y745651D01*
X478102Y745773D01*
X478209Y745893D01*
X478319Y746010D01*
X478432Y746125D01*
X478548Y746236D01*
X478667Y746345D01*
X478788Y746450D01*
X478912Y746553D01*
X479038Y746653D01*
X479166Y746749D01*
X479297Y746842D01*
X479431Y746932D01*
X479566Y747019D01*
X479704Y747102D01*
X479843Y747182D01*
X479985Y747258D01*
X480128Y747331D01*
X480273Y747400D01*
X480420Y747466D01*
X480568Y747528D01*
X480718Y747586D01*
X480869Y747641D01*
X481022Y747692D01*
X481176Y747739D01*
X481331Y747782D01*
X481487Y747821D01*
X481643Y747857D01*
X481801Y747888D01*
X481959Y747916D01*
X482118Y747940D01*
X482278Y747960D01*
X482438Y747976D01*
X482598Y747988D01*
X482759Y747996D01*
X482920Y748000D01*
X483080Y748000D01*
X483241Y747996D01*
X483402Y747988D01*
X483562Y747976D01*
X483722Y747960D01*
X483882Y747940D01*
X484041Y747916D01*
X484199Y747888D01*
X484357Y747857D01*
X484513Y747821D01*
X484669Y747782D01*
X484824Y747739D01*
X484978Y747692D01*
X485131Y747641D01*
X485282Y747586D01*
X485432Y747528D01*
X485580Y747466D01*
X485727Y747400D01*
X485872Y747331D01*
X486015Y747258D01*
X486157Y747182D01*
X486296Y747102D01*
X486434Y747019D01*
X486569Y746932D01*
X486703Y746842D01*
X486834Y746749D01*
X486962Y746653D01*
X487088Y746553D01*
X487212Y746450D01*
X487333Y746345D01*
X487452Y746236D01*
X487568Y746125D01*
X487681Y746010D01*
X487791Y745893D01*
X487898Y745773D01*
X488002Y745651D01*
X488103Y745526D01*
X488201Y745398D01*
X488296Y745268D01*
X488388Y745136D01*
X488476Y745002D01*
X488561Y744865D01*
X488643Y744727D01*
X488721Y744586D01*
X488795Y744444D01*
X488866Y744300D01*
X488934Y744154D01*
X488997Y744006D01*
X489058Y743857D01*
X489114Y743706D01*
X489167Y743554D01*
X489216Y743401D01*
X489261Y743247D01*
X489302Y743092D01*
X489340Y742935D01*
X489373Y742778D01*
X489403Y742620D01*
X489429Y742461D01*
X489450Y742302D01*
X489468Y742142D01*
X489482Y741982D01*
X489492Y741821D01*
X489498Y741661D01*
X489500Y741500D01*
X489498Y741339D01*
X489492Y741179D01*
X489482Y741018D01*
X489468Y740858D01*
X489450Y740698D01*
X489429Y740539D01*
X489403Y740380D01*
X489373Y740222D01*
X489340Y740065D01*
X489302Y739908D01*
X489261Y739753D01*
X489216Y739599D01*
X489167Y739446D01*
X489114Y739294D01*
X489058Y739143D01*
X488997Y738994D01*
X488934Y738846D01*
X488866Y738700D01*
X488795Y738556D01*
X488721Y738414D01*
X488643Y738273D01*
X488561Y738135D01*
X488476Y737998D01*
X488388Y737864D01*
X488296Y737732D01*
X488201Y737602D01*
X488103Y737474D01*
X488002Y737349D01*
X487898Y737227D01*
X487791Y737107D01*
X487681Y736990D01*
X487568Y736875D01*
X487452Y736764D01*
X487333Y736655D01*
X487212Y736550D01*
X487088Y736447D01*
X486962Y736347D01*
X486834Y736251D01*
X486703Y736158D01*
X486569Y736068D01*
X486434Y735981D01*
X486296Y735898D01*
X486157Y735818D01*
X486015Y735742D01*
X485872Y735669D01*
X485727Y735600D01*
X485580Y735534D01*
X485432Y735472D01*
X485282Y735414D01*
X485131Y735359D01*
X484978Y735308D01*
X484824Y735261D01*
X484669Y735218D01*
X484513Y735179D01*
X484357Y735143D01*
X484199Y735112D01*
X484041Y735084D01*
X483882Y735060D01*
X483722Y735040D01*
X483562Y735024D01*
X483402Y735012D01*
X483241Y735004D01*
X483080Y735000D01*
X482920Y735000D01*
X482759Y735004D01*
X482598Y735012D01*
X482438Y735024D01*
X482278Y735040D01*
X482118Y735060D01*
X481959Y735084D01*
X481801Y735112D01*
X481643Y735143D01*
X481487Y735179D01*
X481331Y735218D01*
X481176Y735261D01*
X481022Y735308D01*
X480869Y735359D01*
X480718Y735414D01*
X480568Y735472D01*
X480420Y735534D01*
X480273Y735600D01*
X480128Y735669D01*
X479985Y735742D01*
X479843Y735818D01*
X479704Y735898D01*
X479566Y735981D01*
X479431Y736068D01*
X479297Y736158D01*
X479166Y736251D01*
X479038Y736347D01*
X478912Y736447D01*
X478788Y736550D01*
X478667Y736655D01*
X478548Y736764D01*
X478432Y736875D01*
X478319Y736990D01*
X478209Y737107D01*
X478102Y737227D01*
X477998Y737349D01*
X477897Y737474D01*
X477799Y737602D01*
X477704Y737732D01*
X477612Y737864D01*
X477524Y737998D01*
X477439Y738135D01*
X477357Y738273D01*
X477279Y738414D01*
X477205Y738556D01*
X477134Y738700D01*
X477066Y738846D01*
X477003Y738994D01*
X476942Y739143D01*
X476886Y739294D01*
X476833Y739446D01*
X476784Y739599D01*
X476739Y739753D01*
X476698Y739908D01*
X476660Y740065D01*
X476627Y740222D01*
X476597Y740380D01*
X476571Y740539D01*
X476550Y740698D01*
X476532Y740858D01*
X476518Y741018D01*
X476508Y741179D01*
X476502Y741339D01*
X476500Y741500D01*
D10*
X479000Y698500D02*
X479009Y699212D01*
X479035Y699923D01*
X479079Y700633D01*
X479140Y701342D01*
X479218Y702050D01*
X479314Y702755D01*
X479427Y703458D01*
X479557Y704158D01*
X479705Y704854D01*
X479869Y705546D01*
X480050Y706235D01*
X480249Y706918D01*
X480464Y707597D01*
X480695Y708270D01*
X480943Y708937D01*
X481207Y709598D01*
X481488Y710252D01*
X481784Y710899D01*
X482096Y711539D01*
X482424Y712171D01*
X482767Y712794D01*
X483126Y713409D01*
X483499Y714015D01*
X483887Y714612D01*
X484290Y715198D01*
X484707Y715775D01*
X485138Y716342D01*
X485583Y716897D01*
X486041Y717442D01*
X486512Y717975D01*
X486997Y718497D01*
X487494Y719006D01*
X488003Y719503D01*
X488525Y719988D01*
X489058Y720459D01*
X489603Y720917D01*
X490158Y721362D01*
X490725Y721793D01*
X491302Y722210D01*
X491888Y722613D01*
X492485Y723001D01*
X493091Y723374D01*
X493706Y723733D01*
X494329Y724076D01*
X494961Y724404D01*
X495601Y724716D01*
X496248Y725012D01*
X496902Y725293D01*
X497563Y725557D01*
X498230Y725805D01*
X498903Y726036D01*
X499582Y726251D01*
X500265Y726450D01*
X500954Y726631D01*
X501646Y726795D01*
X502342Y726943D01*
X503042Y727073D01*
X503745Y727186D01*
X504450Y727282D01*
X505158Y727360D01*
X505867Y727421D01*
X506577Y727465D01*
X507288Y727491D01*
X508000Y727500D01*
X508712Y727491D01*
X509423Y727465D01*
X510133Y727421D01*
X510842Y727360D01*
X511550Y727282D01*
X512255Y727186D01*
X512958Y727073D01*
X513658Y726943D01*
X514354Y726795D01*
X515046Y726631D01*
X515735Y726450D01*
X516418Y726251D01*
X517097Y726036D01*
X517770Y725805D01*
X518437Y725557D01*
X519098Y725293D01*
X519752Y725012D01*
X520399Y724716D01*
X521039Y724404D01*
X521671Y724076D01*
X522294Y723733D01*
X522909Y723374D01*
X523515Y723001D01*
X524112Y722613D01*
X524698Y722210D01*
X525275Y721793D01*
X525842Y721362D01*
X526397Y720917D01*
X526942Y720459D01*
X527475Y719988D01*
X527997Y719503D01*
X528506Y719006D01*
X529003Y718497D01*
X529488Y717975D01*
X529959Y717442D01*
X530417Y716897D01*
X530862Y716342D01*
X531293Y715775D01*
X531710Y715198D01*
X532113Y714612D01*
X532501Y714015D01*
X532874Y713409D01*
X533233Y712794D01*
X533576Y712171D01*
X533904Y711539D01*
X534216Y710899D01*
X534512Y710252D01*
X534793Y709598D01*
X535057Y708937D01*
X535305Y708270D01*
X535536Y707597D01*
X535751Y706918D01*
X535950Y706235D01*
X536131Y705546D01*
X536295Y704854D01*
X536443Y704158D01*
X536573Y703458D01*
X536686Y702755D01*
X536782Y702050D01*
X536860Y701342D01*
X536921Y700633D01*
X536965Y699923D01*
X536991Y699212D01*
X537000Y698500D01*
X536991Y697788D01*
X536965Y697077D01*
X536921Y696367D01*
X536860Y695658D01*
X536782Y694950D01*
X536686Y694245D01*
X536573Y693542D01*
X536443Y692842D01*
X536295Y692146D01*
X536131Y691454D01*
X535950Y690765D01*
X535751Y690082D01*
X535536Y689403D01*
X535305Y688730D01*
X535057Y688063D01*
X534793Y687402D01*
X534512Y686748D01*
X534216Y686101D01*
X533904Y685461D01*
X533576Y684829D01*
X533233Y684206D01*
X532874Y683591D01*
X532501Y682985D01*
X532113Y682388D01*
X531710Y681802D01*
X531293Y681225D01*
X530862Y680658D01*
X530417Y680103D01*
X529959Y679558D01*
X529488Y679025D01*
X529003Y678503D01*
X528506Y677994D01*
X527997Y677497D01*
X527475Y677012D01*
X526942Y676541D01*
X526397Y676083D01*
X525842Y675638D01*
X525275Y675207D01*
X524698Y674790D01*
X524112Y674387D01*
X523515Y673999D01*
X522909Y673626D01*
X522294Y673267D01*
X521671Y672924D01*
X521039Y672596D01*
X520399Y672284D01*
X519752Y671988D01*
X519098Y671707D01*
X518437Y671443D01*
X517770Y671195D01*
X517097Y670964D01*
X516418Y670749D01*
X515735Y670550D01*
X515046Y670369D01*
X514354Y670205D01*
X513658Y670057D01*
X512958Y669927D01*
X512255Y669814D01*
X511550Y669718D01*
X510842Y669640D01*
X510133Y669579D01*
X509423Y669535D01*
X508712Y669509D01*
X508000Y669500D01*
X507288Y669509D01*
X506577Y669535D01*
X505867Y669579D01*
X505158Y669640D01*
X504450Y669718D01*
X503745Y669814D01*
X503042Y669927D01*
X502342Y670057D01*
X501646Y670205D01*
X500954Y670369D01*
X500265Y670550D01*
X499582Y670749D01*
X498903Y670964D01*
X498230Y671195D01*
X497563Y671443D01*
X496902Y671707D01*
X496248Y671988D01*
X495601Y672284D01*
X494961Y672596D01*
X494329Y672924D01*
X493706Y673267D01*
X493091Y673626D01*
X492485Y673999D01*
X491888Y674387D01*
X491302Y674790D01*
X490725Y675207D01*
X490158Y675638D01*
X489603Y676083D01*
X489058Y676541D01*
X488525Y677012D01*
X488003Y677497D01*
X487494Y677994D01*
X486997Y678503D01*
X486512Y679025D01*
X486041Y679558D01*
X485583Y680103D01*
X485138Y680658D01*
X484707Y681225D01*
X484290Y681802D01*
X483887Y682388D01*
X483499Y682985D01*
X483126Y683591D01*
X482767Y684206D01*
X482424Y684829D01*
X482096Y685461D01*
X481784Y686101D01*
X481488Y686748D01*
X481207Y687402D01*
X480943Y688063D01*
X480695Y688730D01*
X480464Y689403D01*
X480249Y690082D01*
X480050Y690765D01*
X479869Y691454D01*
X479705Y692146D01*
X479557Y692842D01*
X479427Y693542D01*
X479314Y694245D01*
X479218Y694950D01*
X479140Y695658D01*
X479079Y696367D01*
X479035Y697077D01*
X479009Y697788D01*
X479000Y698500D01*
X484499Y698500D02*
X484506Y699077D01*
X484527Y699653D01*
X484563Y700229D01*
X484612Y700804D01*
X484676Y701377D01*
X484753Y701948D01*
X484845Y702518D01*
X484951Y703085D01*
X485070Y703649D01*
X485203Y704210D01*
X485350Y704768D01*
X485511Y705322D01*
X485685Y705872D01*
X485873Y706417D01*
X486074Y706958D01*
X486288Y707493D01*
X486515Y708024D01*
X486755Y708548D01*
X487008Y709066D01*
X487274Y709578D01*
X487552Y710084D01*
X487843Y710582D01*
X488145Y711073D01*
X488460Y711556D01*
X488786Y712032D01*
X489124Y712500D01*
X489473Y712959D01*
X489833Y713409D01*
X490205Y713850D01*
X490587Y714282D01*
X490979Y714705D01*
X491382Y715118D01*
X491795Y715521D01*
X492218Y715913D01*
X492650Y716295D01*
X493091Y716667D01*
X493541Y717027D01*
X494000Y717376D01*
X494468Y717714D01*
X494944Y718040D01*
X495427Y718355D01*
X495918Y718657D01*
X496416Y718948D01*
X496922Y719226D01*
X497434Y719492D01*
X497952Y719745D01*
X498476Y719985D01*
X499007Y720212D01*
X499542Y720426D01*
X500083Y720627D01*
X500628Y720815D01*
X501178Y720989D01*
X501732Y721150D01*
X502290Y721297D01*
X502851Y721430D01*
X503415Y721549D01*
X503982Y721655D01*
X504552Y721747D01*
X505123Y721824D01*
X505696Y721888D01*
X506271Y721937D01*
X506847Y721973D01*
X507423Y721994D01*
X508000Y722001D01*
X508577Y721994D01*
X509153Y721973D01*
X509729Y721937D01*
X510304Y721888D01*
X510877Y721824D01*
X511448Y721747D01*
X512018Y721655D01*
X512585Y721549D01*
X513149Y721430D01*
X513710Y721297D01*
X514268Y721150D01*
X514822Y720989D01*
X515372Y720815D01*
X515917Y720627D01*
X516458Y720426D01*
X516993Y720212D01*
X517524Y719985D01*
X518048Y719745D01*
X518566Y719492D01*
X519078Y719226D01*
X519584Y718948D01*
X520082Y718657D01*
X520573Y718355D01*
X521056Y718040D01*
X521532Y717714D01*
X522000Y717376D01*
X522459Y717027D01*
X522909Y716667D01*
X523350Y716295D01*
X523782Y715913D01*
X524205Y715521D01*
X524618Y715118D01*
X525021Y714705D01*
X525413Y714282D01*
X525795Y713850D01*
X526167Y713409D01*
X526527Y712959D01*
X526876Y712500D01*
X527214Y712032D01*
X527540Y711556D01*
X527855Y711073D01*
X528157Y710582D01*
X528448Y710084D01*
X528726Y709578D01*
X528992Y709066D01*
X529245Y708548D01*
X529485Y708024D01*
X529712Y707493D01*
X529926Y706958D01*
X530127Y706417D01*
X530315Y705872D01*
X530489Y705322D01*
X530650Y704768D01*
X530797Y704210D01*
X530930Y703649D01*
X531049Y703085D01*
X531155Y702518D01*
X531247Y701948D01*
X531324Y701377D01*
X531388Y700804D01*
X531437Y700229D01*
X531473Y699653D01*
X531494Y699077D01*
X531501Y698500D01*
X531494Y697923D01*
X531473Y697347D01*
X531437Y696771D01*
X531388Y696196D01*
X531324Y695623D01*
X531247Y695052D01*
X531155Y694482D01*
X531049Y693915D01*
X530930Y693351D01*
X530797Y692790D01*
X530650Y692232D01*
X530489Y691678D01*
X530315Y691128D01*
X530127Y690583D01*
X529926Y690042D01*
X529712Y689507D01*
X529485Y688976D01*
X529245Y688452D01*
X528992Y687934D01*
X528726Y687422D01*
X528448Y686916D01*
X528157Y686418D01*
X527855Y685927D01*
X527540Y685444D01*
X527214Y684968D01*
X526876Y684500D01*
X526527Y684041D01*
X526167Y683591D01*
X525795Y683150D01*
X525413Y682718D01*
X525021Y682295D01*
X524618Y681882D01*
X524205Y681479D01*
X523782Y681087D01*
X523350Y680705D01*
X522909Y680333D01*
X522459Y679973D01*
X522000Y679624D01*
X521532Y679286D01*
X521056Y678960D01*
X520573Y678645D01*
X520082Y678343D01*
X519584Y678052D01*
X519078Y677774D01*
X518566Y677508D01*
X518048Y677255D01*
X517524Y677015D01*
X516993Y676788D01*
X516458Y676574D01*
X515917Y676373D01*
X515372Y676185D01*
X514822Y676011D01*
X514268Y675850D01*
X513710Y675703D01*
X513149Y675570D01*
X512585Y675451D01*
X512018Y675345D01*
X511448Y675253D01*
X510877Y675176D01*
X510304Y675112D01*
X509729Y675063D01*
X509153Y675027D01*
X508577Y675006D01*
X508000Y674999D01*
X507423Y675006D01*
X506847Y675027D01*
X506271Y675063D01*
X505696Y675112D01*
X505123Y675176D01*
X504552Y675253D01*
X503982Y675345D01*
X503415Y675451D01*
X502851Y675570D01*
X502290Y675703D01*
X501732Y675850D01*
X501178Y676011D01*
X500628Y676185D01*
X500083Y676373D01*
X499542Y676574D01*
X499007Y676788D01*
X498476Y677015D01*
X497952Y677255D01*
X497434Y677508D01*
X496922Y677774D01*
X496416Y678052D01*
X495918Y678343D01*
X495427Y678645D01*
X494944Y678960D01*
X494468Y679286D01*
X494000Y679624D01*
X493541Y679973D01*
X493091Y680333D01*
X492650Y680705D01*
X492218Y681087D01*
X491795Y681479D01*
X491382Y681882D01*
X490979Y682295D01*
X490587Y682718D01*
X490205Y683150D01*
X489833Y683591D01*
X489473Y684041D01*
X489124Y684500D01*
X488786Y684968D01*
X488460Y685444D01*
X488145Y685927D01*
X487843Y686418D01*
X487552Y686916D01*
X487274Y687422D01*
X487008Y687934D01*
X486755Y688452D01*
X486515Y688976D01*
X486288Y689507D01*
X486074Y690042D01*
X485873Y690583D01*
X485685Y691128D01*
X485511Y691678D01*
X485350Y692232D01*
X485203Y692790D01*
X485070Y693351D01*
X484951Y693915D01*
X484845Y694482D01*
X484753Y695052D01*
X484676Y695623D01*
X484612Y696196D01*
X484563Y696771D01*
X484527Y697347D01*
X484506Y697923D01*
X484499Y698500D01*
M02*
