M48
;GenerationSoftware,Autodesk,EAGLE,9.3.2*%
;CreationDate,2020-09-30T01:22:20Z*%
FMAT,2
ICI,OFF
METRIC,TZ,000.000
T7C0.350
T6C0.813
T5C1.016
T4C1.100
T3C1.600
T2C2.286
T1C2.540
%
G90
M71
T1
X50800Y48641
X50800Y53340
X50800Y58039
X71120Y48641
X71120Y53340
X71120Y58039
X10160Y58039
X91440Y48641
X91440Y53340
X91440Y58039
X10160Y32131
X10160Y36830
X10160Y41529
X30480Y41529
X30480Y36830
X30480Y32131
X91440Y36830
X50800Y36830
X91440Y32131
X50800Y41529
X50800Y32131
X71120Y41529
X71120Y36830
X71120Y32131
X10160Y48641
X10160Y53340
X91440Y41529
X30480Y48641
X30480Y53340
X30480Y58039
T2
X16764Y69850
X3556Y69850
T3
X46300Y69850
X75620Y69850
X66620Y69850
X25980Y69850
X34980Y69850
X55300Y69850
X86940Y69850
X95940Y69850
T4
X68620Y62850
X71120Y62850
X73620Y62850
X32980Y62850
X30480Y62850
X27980Y62850
X48300Y62850
X50800Y62850
X53300Y62850
X93940Y62850
X88940Y62850
X91440Y62850
T5
X3810Y35560
X3810Y38100
X98425Y33020
X3810Y27940
X10160Y62357
X7620Y76835
X12700Y76835
X7620Y62357
X12700Y62357
X98425Y27940
X3810Y30480
X98425Y35560
X49530Y77470
X3810Y45720
X3810Y33020
X3810Y43180
X3810Y40640
X98425Y43180
X52070Y77470
X98425Y30480
X98425Y45720
X98425Y38100
X98425Y40640
T6
X90170Y25400
X92710Y25400
X8890Y25400
X11430Y25400
T7
X17780Y33020
X58420Y57150
X41910Y3810
X49530Y19050
X64770Y3810
X37973Y35560
X58420Y38100
X22860Y35560
X36068Y39370
X39370Y39370
X57150Y5080
X45720Y5080
X55753Y44196
X43180Y27940
X46482Y22352
X62230Y38100
X40259Y35433
X62357Y43815
X24130Y44450
X53340Y26670
X25400Y46990
X38100Y54610
X35560Y45720
X62357Y44958
X22987Y54610
X63500Y35560
X64770Y49530
X43180Y54610
X66040Y36830
X68580Y6350
X50800Y16510
X45720Y7620
X66040Y55880
X78740Y49530
X15240Y46990
X62230Y17780
X24130Y22860
X35560Y52070
X96520Y50800
X22860Y57150
X74930Y9144
X74930Y15240
X71120Y15240
X35560Y5080
X71120Y2540
X74930Y17780
X19050Y38354
X81280Y54610
X55880Y3810
X63500Y54610
X86360Y54610
X78613Y57150
X62230Y57404
X20447Y57658
X38100Y52070
X43180Y52070
X55880Y34290
X48260Y3810
M30