G04 EAGLE Gerber RS-274X export*
G75*
%MOMM*%
%FSLAX34Y34*%
%LPD*%
%INBottom Copper*%
%IPPOS*%
%AMOC8*
5,1,8,0,0,1.08239X$1,22.5*%
G01*
%ADD10P,2.336880X8X22.500000*%
%ADD11C,0.756400*%
%ADD12C,0.254000*%

G36*
X800122Y10926D02*
X800122Y10926D01*
X800160Y10925D01*
X800319Y10938D01*
X800324Y10939D01*
X800330Y10939D01*
X800494Y10973D01*
X800797Y11071D01*
X800828Y11087D01*
X800863Y11096D01*
X801009Y11179D01*
X801266Y11366D01*
X801291Y11391D01*
X801321Y11410D01*
X801434Y11534D01*
X801621Y11791D01*
X801637Y11823D01*
X801660Y11851D01*
X801729Y12003D01*
X801827Y12306D01*
X801828Y12311D01*
X801831Y12317D01*
X801862Y12481D01*
X801875Y12640D01*
X801873Y12662D01*
X801877Y12700D01*
X801877Y148844D01*
X801874Y148864D01*
X801876Y148883D01*
X801854Y148985D01*
X801838Y149087D01*
X801828Y149104D01*
X801824Y149124D01*
X801771Y149213D01*
X801722Y149304D01*
X801708Y149318D01*
X801698Y149335D01*
X801619Y149402D01*
X801544Y149474D01*
X801526Y149482D01*
X801511Y149495D01*
X801415Y149534D01*
X801321Y149577D01*
X801301Y149579D01*
X801283Y149587D01*
X801116Y149605D01*
X788873Y149605D01*
X788783Y149591D01*
X788692Y149583D01*
X788662Y149571D01*
X788630Y149566D01*
X788549Y149523D01*
X788466Y149487D01*
X788433Y149461D01*
X788413Y149450D01*
X788391Y149427D01*
X788335Y149382D01*
X780230Y141277D01*
X780177Y141203D01*
X780117Y141134D01*
X780105Y141104D01*
X780086Y141078D01*
X780059Y140991D01*
X780025Y140906D01*
X780021Y140865D01*
X780014Y140843D01*
X780015Y140810D01*
X780007Y140739D01*
X780007Y137502D01*
X776898Y134393D01*
X772502Y134393D01*
X769393Y137502D01*
X769393Y141898D01*
X772502Y145007D01*
X775739Y145007D01*
X775829Y145021D01*
X775920Y145029D01*
X775950Y145041D01*
X775982Y145046D01*
X776062Y145089D01*
X776146Y145125D01*
X776178Y145151D01*
X776199Y145162D01*
X776221Y145185D01*
X776277Y145230D01*
X784382Y153335D01*
X786242Y155195D01*
X796544Y155195D01*
X796564Y155198D01*
X796583Y155196D01*
X796685Y155218D01*
X796787Y155234D01*
X796804Y155244D01*
X796824Y155248D01*
X796913Y155301D01*
X797004Y155350D01*
X797018Y155364D01*
X797035Y155374D01*
X797102Y155453D01*
X797174Y155528D01*
X797182Y155546D01*
X797195Y155561D01*
X797234Y155657D01*
X797277Y155751D01*
X797279Y155771D01*
X797287Y155789D01*
X797305Y155956D01*
X797305Y208900D01*
X799165Y210760D01*
X805240Y216835D01*
X807100Y218695D01*
X989127Y218695D01*
X989217Y218709D01*
X989308Y218717D01*
X989338Y218729D01*
X989370Y218734D01*
X989451Y218777D01*
X989534Y218813D01*
X989567Y218839D01*
X989587Y218850D01*
X989609Y218873D01*
X989665Y218918D01*
X1000282Y229535D01*
X1000335Y229609D01*
X1000395Y229678D01*
X1000407Y229708D01*
X1000426Y229734D01*
X1000453Y229821D01*
X1000487Y229906D01*
X1000491Y229947D01*
X1000498Y229969D01*
X1000497Y230002D01*
X1000505Y230073D01*
X1000505Y443027D01*
X1000491Y443117D01*
X1000483Y443208D01*
X1000471Y443238D01*
X1000466Y443270D01*
X1000423Y443350D01*
X1000387Y443434D01*
X1000361Y443466D01*
X1000350Y443487D01*
X1000327Y443509D01*
X1000282Y443565D01*
X991519Y452328D01*
X991461Y452370D01*
X991409Y452420D01*
X991362Y452442D01*
X991320Y452472D01*
X991251Y452493D01*
X991186Y452523D01*
X991134Y452529D01*
X991084Y452544D01*
X991013Y452542D01*
X990942Y452550D01*
X990891Y452539D01*
X990839Y452538D01*
X990771Y452513D01*
X990701Y452498D01*
X990656Y452471D01*
X990608Y452453D01*
X990552Y452409D01*
X990490Y452372D01*
X990456Y452332D01*
X990416Y452300D01*
X990403Y452280D01*
X983161Y445038D01*
X983149Y445022D01*
X983134Y445010D01*
X983078Y444922D01*
X983017Y444839D01*
X983012Y444820D01*
X983001Y444803D01*
X982976Y444702D01*
X982945Y444603D01*
X982946Y444584D01*
X982941Y444564D01*
X982949Y444461D01*
X982951Y444358D01*
X982958Y444339D01*
X982960Y444319D01*
X983000Y444224D01*
X983036Y444127D01*
X983048Y444111D01*
X983056Y444093D01*
X983161Y443962D01*
X990220Y436903D01*
X990220Y426697D01*
X983161Y419638D01*
X983149Y419622D01*
X983134Y419610D01*
X983078Y419522D01*
X983017Y419439D01*
X983012Y419420D01*
X983001Y419403D01*
X982976Y419302D01*
X982945Y419203D01*
X982946Y419184D01*
X982941Y419164D01*
X982949Y419061D01*
X982951Y418958D01*
X982958Y418939D01*
X982960Y418919D01*
X983000Y418824D01*
X983036Y418727D01*
X983048Y418711D01*
X983056Y418693D01*
X983161Y418562D01*
X990220Y411503D01*
X990220Y401297D01*
X983161Y394238D01*
X983149Y394222D01*
X983134Y394210D01*
X983078Y394122D01*
X983017Y394039D01*
X983012Y394020D01*
X983001Y394003D01*
X982976Y393902D01*
X982945Y393803D01*
X982946Y393784D01*
X982941Y393764D01*
X982949Y393661D01*
X982951Y393558D01*
X982958Y393539D01*
X982960Y393519D01*
X983000Y393424D01*
X983036Y393327D01*
X983048Y393311D01*
X983056Y393293D01*
X983161Y393162D01*
X990220Y386103D01*
X990220Y375897D01*
X983161Y368838D01*
X983149Y368822D01*
X983134Y368810D01*
X983078Y368722D01*
X983017Y368639D01*
X983012Y368620D01*
X983001Y368603D01*
X982976Y368502D01*
X982945Y368403D01*
X982946Y368384D01*
X982941Y368364D01*
X982949Y368261D01*
X982951Y368158D01*
X982958Y368139D01*
X982960Y368119D01*
X983000Y368024D01*
X983036Y367927D01*
X983048Y367911D01*
X983056Y367893D01*
X983161Y367762D01*
X990220Y360703D01*
X990220Y350497D01*
X983161Y343438D01*
X983149Y343422D01*
X983134Y343410D01*
X983078Y343322D01*
X983017Y343239D01*
X983012Y343220D01*
X983001Y343203D01*
X982976Y343102D01*
X982945Y343003D01*
X982946Y342984D01*
X982941Y342964D01*
X982949Y342861D01*
X982951Y342758D01*
X982958Y342739D01*
X982960Y342719D01*
X983000Y342624D01*
X983036Y342527D01*
X983048Y342511D01*
X983056Y342493D01*
X983161Y342362D01*
X990220Y335303D01*
X990220Y325097D01*
X983879Y318757D01*
X983868Y318741D01*
X983852Y318728D01*
X983796Y318641D01*
X983736Y318557D01*
X983730Y318538D01*
X983719Y318521D01*
X983694Y318421D01*
X983664Y318322D01*
X983664Y318302D01*
X983659Y318283D01*
X983667Y318180D01*
X983670Y318076D01*
X983677Y318057D01*
X983678Y318037D01*
X983719Y317943D01*
X983754Y317845D01*
X983767Y317829D01*
X983775Y317811D01*
X983879Y317680D01*
X991236Y310324D01*
X991236Y306323D01*
X978662Y306323D01*
X978642Y306320D01*
X978623Y306322D01*
X978521Y306300D01*
X978419Y306283D01*
X978402Y306274D01*
X978382Y306270D01*
X978293Y306217D01*
X978202Y306168D01*
X978188Y306154D01*
X978171Y306144D01*
X978104Y306065D01*
X978033Y305990D01*
X978024Y305972D01*
X978011Y305957D01*
X977973Y305861D01*
X977929Y305767D01*
X977927Y305747D01*
X977919Y305729D01*
X977901Y305562D01*
X977901Y304038D01*
X977904Y304018D01*
X977902Y303999D01*
X977924Y303897D01*
X977941Y303795D01*
X977950Y303778D01*
X977954Y303758D01*
X978007Y303669D01*
X978056Y303578D01*
X978070Y303564D01*
X978080Y303547D01*
X978159Y303480D01*
X978234Y303409D01*
X978252Y303400D01*
X978267Y303387D01*
X978363Y303348D01*
X978457Y303305D01*
X978477Y303303D01*
X978495Y303295D01*
X978662Y303277D01*
X991236Y303277D01*
X991236Y299276D01*
X983879Y291920D01*
X983868Y291904D01*
X983852Y291891D01*
X983796Y291804D01*
X983736Y291720D01*
X983730Y291701D01*
X983719Y291684D01*
X983694Y291584D01*
X983664Y291485D01*
X983664Y291465D01*
X983659Y291446D01*
X983667Y291343D01*
X983670Y291239D01*
X983677Y291220D01*
X983678Y291201D01*
X983719Y291106D01*
X983754Y291008D01*
X983767Y290992D01*
X983775Y290974D01*
X983879Y290843D01*
X990220Y284503D01*
X990220Y274297D01*
X983003Y267080D01*
X972797Y267080D01*
X965580Y274297D01*
X965580Y275844D01*
X965577Y275861D01*
X965579Y275877D01*
X965579Y275879D01*
X965579Y275883D01*
X965557Y275985D01*
X965541Y276087D01*
X965531Y276104D01*
X965527Y276124D01*
X965474Y276213D01*
X965425Y276304D01*
X965411Y276318D01*
X965401Y276335D01*
X965322Y276402D01*
X965247Y276474D01*
X965229Y276482D01*
X965214Y276495D01*
X965118Y276534D01*
X965024Y276577D01*
X965004Y276579D01*
X964986Y276587D01*
X964819Y276605D01*
X883955Y276605D01*
X883865Y276591D01*
X883774Y276583D01*
X883744Y276571D01*
X883712Y276566D01*
X883632Y276523D01*
X883548Y276487D01*
X883516Y276461D01*
X883495Y276450D01*
X883489Y276445D01*
X883489Y276444D01*
X883472Y276426D01*
X883417Y276382D01*
X832840Y225805D01*
X809731Y225805D01*
X809641Y225791D01*
X809550Y225783D01*
X809520Y225771D01*
X809488Y225766D01*
X809407Y225723D01*
X809323Y225687D01*
X809291Y225661D01*
X809271Y225650D01*
X809248Y225627D01*
X809193Y225582D01*
X790926Y207315D01*
X790873Y207242D01*
X790813Y207172D01*
X790801Y207142D01*
X790782Y207116D01*
X790755Y207029D01*
X790721Y206944D01*
X790717Y206903D01*
X790710Y206881D01*
X790711Y206848D01*
X790703Y206777D01*
X790703Y189850D01*
X790418Y189565D01*
X790371Y189501D01*
X790355Y189483D01*
X790351Y189476D01*
X790305Y189422D01*
X790293Y189392D01*
X790274Y189366D01*
X790247Y189279D01*
X790213Y189194D01*
X790209Y189153D01*
X790202Y189131D01*
X790203Y189098D01*
X790195Y189027D01*
X790195Y163942D01*
X788558Y162305D01*
X738073Y162305D01*
X737983Y162291D01*
X737892Y162283D01*
X737862Y162271D01*
X737830Y162266D01*
X737750Y162223D01*
X737666Y162187D01*
X737634Y162161D01*
X737613Y162150D01*
X737591Y162127D01*
X737535Y162082D01*
X722518Y147065D01*
X717495Y147065D01*
X717405Y147051D01*
X717314Y147043D01*
X717285Y147031D01*
X717253Y147026D01*
X717172Y146983D01*
X717088Y146947D01*
X717056Y146921D01*
X717035Y146910D01*
X717013Y146887D01*
X716957Y146842D01*
X714668Y144553D01*
X710272Y144553D01*
X707163Y147662D01*
X707163Y150899D01*
X707149Y150989D01*
X707141Y151080D01*
X707129Y151110D01*
X707124Y151142D01*
X707081Y151222D01*
X707045Y151306D01*
X707019Y151338D01*
X707008Y151359D01*
X706985Y151381D01*
X706940Y151437D01*
X696295Y162082D01*
X696221Y162135D01*
X696152Y162195D01*
X696122Y162207D01*
X696096Y162226D01*
X696009Y162253D01*
X695924Y162287D01*
X695883Y162291D01*
X695861Y162298D01*
X695828Y162297D01*
X695757Y162305D01*
X693365Y162305D01*
X693275Y162291D01*
X693184Y162283D01*
X693155Y162271D01*
X693123Y162266D01*
X693042Y162223D01*
X692958Y162187D01*
X692926Y162161D01*
X692905Y162150D01*
X692883Y162127D01*
X692827Y162082D01*
X691358Y160613D01*
X691305Y160539D01*
X691245Y160469D01*
X691233Y160439D01*
X691214Y160413D01*
X691187Y160326D01*
X691153Y160241D01*
X691149Y160200D01*
X691142Y160178D01*
X691143Y160146D01*
X691135Y160075D01*
X691135Y113233D01*
X691149Y113143D01*
X691157Y113052D01*
X691169Y113022D01*
X691174Y112990D01*
X691217Y112910D01*
X691253Y112826D01*
X691279Y112794D01*
X691290Y112773D01*
X691313Y112751D01*
X691358Y112695D01*
X712135Y91918D01*
X713682Y90371D01*
X713740Y90329D01*
X713792Y90279D01*
X713839Y90257D01*
X713881Y90227D01*
X713950Y90206D01*
X714015Y90176D01*
X714067Y90170D01*
X714117Y90155D01*
X714188Y90157D01*
X714259Y90149D01*
X714310Y90160D01*
X714362Y90161D01*
X714430Y90186D01*
X714500Y90201D01*
X714545Y90228D01*
X714593Y90246D01*
X714649Y90290D01*
X714711Y90327D01*
X714745Y90367D01*
X714785Y90399D01*
X714824Y90460D01*
X714871Y90514D01*
X714890Y90562D01*
X714918Y90606D01*
X714936Y90676D01*
X714963Y90742D01*
X714971Y90814D01*
X714979Y90845D01*
X714977Y90868D01*
X714981Y90909D01*
X714981Y118951D01*
X714967Y119041D01*
X714959Y119132D01*
X714947Y119162D01*
X714942Y119194D01*
X714899Y119274D01*
X714863Y119358D01*
X714837Y119390D01*
X714826Y119411D01*
X714803Y119433D01*
X714758Y119489D01*
X700077Y134170D01*
X700003Y134223D01*
X699934Y134283D01*
X699904Y134295D01*
X699878Y134314D01*
X699791Y134341D01*
X699706Y134375D01*
X699665Y134379D01*
X699643Y134386D01*
X699610Y134385D01*
X699539Y134393D01*
X696302Y134393D01*
X693193Y137502D01*
X693193Y141898D01*
X696302Y145007D01*
X700698Y145007D01*
X703807Y141898D01*
X703807Y138661D01*
X703821Y138571D01*
X703829Y138480D01*
X703841Y138450D01*
X703846Y138418D01*
X703889Y138338D01*
X703925Y138254D01*
X703951Y138222D01*
X703962Y138201D01*
X703985Y138179D01*
X704030Y138123D01*
X720571Y121582D01*
X720571Y81618D01*
X712358Y73405D01*
X614625Y73405D01*
X614535Y73391D01*
X614444Y73383D01*
X614415Y73371D01*
X614383Y73366D01*
X614302Y73323D01*
X614218Y73287D01*
X614186Y73261D01*
X614165Y73250D01*
X614143Y73227D01*
X614087Y73182D01*
X611798Y70893D01*
X607402Y70893D01*
X604293Y74002D01*
X604293Y78398D01*
X607402Y81507D01*
X611203Y81507D01*
X611274Y81518D01*
X611346Y81520D01*
X611395Y81538D01*
X611446Y81546D01*
X611509Y81580D01*
X611577Y81605D01*
X611617Y81637D01*
X611663Y81662D01*
X611713Y81714D01*
X611769Y81758D01*
X611797Y81802D01*
X611833Y81840D01*
X611863Y81905D01*
X611902Y81965D01*
X611914Y82016D01*
X611936Y82063D01*
X611944Y82134D01*
X611962Y82204D01*
X611958Y82256D01*
X611963Y82307D01*
X611948Y82378D01*
X611943Y82449D01*
X611922Y82497D01*
X611911Y82548D01*
X611874Y82609D01*
X611846Y82675D01*
X611801Y82731D01*
X611785Y82759D01*
X611767Y82774D01*
X611741Y82806D01*
X611177Y83370D01*
X611103Y83424D01*
X611034Y83483D01*
X611004Y83495D01*
X610978Y83514D01*
X610890Y83541D01*
X610806Y83575D01*
X610765Y83579D01*
X610742Y83586D01*
X610710Y83585D01*
X610639Y83593D01*
X607402Y83593D01*
X604293Y86702D01*
X604293Y91098D01*
X607402Y94207D01*
X611798Y94207D01*
X614907Y91098D01*
X614907Y87861D01*
X614921Y87771D01*
X614929Y87680D01*
X614941Y87650D01*
X614946Y87618D01*
X614989Y87538D01*
X615025Y87454D01*
X615051Y87421D01*
X615062Y87401D01*
X615085Y87379D01*
X615130Y87323D01*
X615694Y86759D01*
X615752Y86717D01*
X615804Y86667D01*
X615851Y86645D01*
X615893Y86615D01*
X615962Y86594D01*
X616027Y86564D01*
X616079Y86558D01*
X616129Y86543D01*
X616200Y86545D01*
X616271Y86537D01*
X616322Y86548D01*
X616374Y86549D01*
X616442Y86574D01*
X616512Y86589D01*
X616557Y86616D01*
X616605Y86634D01*
X616661Y86678D01*
X616723Y86715D01*
X616757Y86755D01*
X616797Y86787D01*
X616836Y86847D01*
X616883Y86902D01*
X616902Y86950D01*
X616930Y86994D01*
X616948Y87063D01*
X616975Y87130D01*
X616983Y87201D01*
X616991Y87233D01*
X616989Y87256D01*
X616993Y87297D01*
X616993Y91204D01*
X619282Y93493D01*
X619335Y93567D01*
X619395Y93637D01*
X619407Y93667D01*
X619426Y93693D01*
X619453Y93780D01*
X619487Y93865D01*
X619491Y93906D01*
X619498Y93928D01*
X619497Y93960D01*
X619505Y94031D01*
X619505Y287075D01*
X619491Y287165D01*
X619483Y287256D01*
X619471Y287285D01*
X619466Y287317D01*
X619423Y287398D01*
X619387Y287482D01*
X619361Y287514D01*
X619350Y287535D01*
X619327Y287557D01*
X619282Y287613D01*
X616993Y289902D01*
X616993Y294298D01*
X620102Y297407D01*
X624498Y297407D01*
X627607Y294298D01*
X627607Y289902D01*
X625318Y287613D01*
X625265Y287539D01*
X625205Y287469D01*
X625193Y287439D01*
X625174Y287413D01*
X625147Y287326D01*
X625113Y287241D01*
X625109Y287200D01*
X625102Y287178D01*
X625103Y287146D01*
X625095Y287075D01*
X625095Y94031D01*
X625109Y93941D01*
X625117Y93850D01*
X625129Y93821D01*
X625134Y93789D01*
X625177Y93708D01*
X625213Y93624D01*
X625239Y93592D01*
X625250Y93571D01*
X625273Y93549D01*
X625318Y93493D01*
X627607Y91204D01*
X627607Y86808D01*
X625157Y84358D01*
X625115Y84300D01*
X625066Y84248D01*
X625044Y84201D01*
X625014Y84159D01*
X624992Y84090D01*
X624962Y84025D01*
X624957Y83973D01*
X624941Y83923D01*
X624943Y83852D01*
X624935Y83781D01*
X624946Y83730D01*
X624948Y83678D01*
X624972Y83610D01*
X624987Y83540D01*
X625014Y83495D01*
X625032Y83447D01*
X625077Y83391D01*
X625114Y83329D01*
X625153Y83295D01*
X625186Y83255D01*
X625246Y83216D01*
X625301Y83169D01*
X625349Y83150D01*
X625393Y83122D01*
X625462Y83104D01*
X625529Y83077D01*
X625600Y83069D01*
X625631Y83061D01*
X625654Y83063D01*
X625695Y83059D01*
X644199Y83059D01*
X644269Y83070D01*
X644341Y83072D01*
X644390Y83090D01*
X644441Y83098D01*
X644505Y83132D01*
X644572Y83157D01*
X644613Y83189D01*
X644659Y83214D01*
X644708Y83266D01*
X644764Y83310D01*
X644792Y83354D01*
X644828Y83392D01*
X644858Y83457D01*
X644897Y83517D01*
X644910Y83568D01*
X644932Y83615D01*
X644940Y83686D01*
X644957Y83756D01*
X644953Y83808D01*
X644959Y83859D01*
X644944Y83930D01*
X644938Y84001D01*
X644918Y84049D01*
X644907Y84100D01*
X644870Y84161D01*
X644842Y84227D01*
X644797Y84283D01*
X644780Y84311D01*
X644763Y84326D01*
X644737Y84358D01*
X642393Y86702D01*
X642393Y91098D01*
X644682Y93387D01*
X644728Y93451D01*
X644747Y93471D01*
X644751Y93479D01*
X644795Y93531D01*
X644807Y93561D01*
X644826Y93587D01*
X644853Y93674D01*
X644887Y93759D01*
X644891Y93800D01*
X644898Y93822D01*
X644897Y93854D01*
X644905Y93925D01*
X644905Y229758D01*
X654870Y239723D01*
X654923Y239797D01*
X654983Y239866D01*
X654995Y239896D01*
X655014Y239922D01*
X655041Y240009D01*
X655075Y240094D01*
X655079Y240135D01*
X655086Y240157D01*
X655085Y240190D01*
X655093Y240261D01*
X655093Y243498D01*
X658202Y246607D01*
X662598Y246607D01*
X665707Y243498D01*
X665707Y239102D01*
X662598Y235993D01*
X659361Y235993D01*
X659271Y235979D01*
X659180Y235971D01*
X659150Y235959D01*
X659118Y235954D01*
X659038Y235911D01*
X658954Y235875D01*
X658922Y235849D01*
X658901Y235838D01*
X658879Y235815D01*
X658823Y235770D01*
X650718Y227665D01*
X650665Y227591D01*
X650605Y227522D01*
X650593Y227492D01*
X650574Y227466D01*
X650547Y227379D01*
X650538Y227355D01*
X650523Y227323D01*
X650522Y227316D01*
X650513Y227294D01*
X650509Y227253D01*
X650502Y227231D01*
X650503Y227198D01*
X650495Y227127D01*
X650495Y93925D01*
X650509Y93835D01*
X650517Y93744D01*
X650529Y93715D01*
X650534Y93683D01*
X650577Y93602D01*
X650613Y93518D01*
X650639Y93486D01*
X650650Y93465D01*
X650673Y93443D01*
X650700Y93410D01*
X650701Y93408D01*
X650702Y93407D01*
X650718Y93387D01*
X653007Y91098D01*
X653007Y86702D01*
X650663Y84358D01*
X650621Y84300D01*
X650572Y84248D01*
X650550Y84201D01*
X650520Y84159D01*
X650498Y84090D01*
X650468Y84025D01*
X650463Y83973D01*
X650447Y83923D01*
X650449Y83852D01*
X650441Y83781D01*
X650452Y83730D01*
X650454Y83678D01*
X650478Y83610D01*
X650493Y83540D01*
X650520Y83495D01*
X650538Y83447D01*
X650583Y83391D01*
X650620Y83329D01*
X650659Y83295D01*
X650692Y83255D01*
X650752Y83216D01*
X650807Y83169D01*
X650855Y83150D01*
X650899Y83122D01*
X650968Y83104D01*
X651035Y83077D01*
X651106Y83069D01*
X651137Y83061D01*
X651160Y83063D01*
X651201Y83059D01*
X694999Y83059D01*
X695069Y83070D01*
X695141Y83072D01*
X695190Y83090D01*
X695241Y83098D01*
X695305Y83132D01*
X695372Y83157D01*
X695413Y83189D01*
X695459Y83214D01*
X695508Y83266D01*
X695564Y83310D01*
X695592Y83354D01*
X695628Y83392D01*
X695658Y83457D01*
X695697Y83517D01*
X695710Y83568D01*
X695732Y83615D01*
X695740Y83686D01*
X695757Y83756D01*
X695753Y83808D01*
X695759Y83859D01*
X695744Y83930D01*
X695738Y84001D01*
X695718Y84049D01*
X695707Y84100D01*
X695670Y84161D01*
X695642Y84227D01*
X695597Y84283D01*
X695580Y84311D01*
X695563Y84326D01*
X695537Y84358D01*
X693193Y86702D01*
X693193Y89939D01*
X693179Y90029D01*
X693171Y90120D01*
X693159Y90150D01*
X693154Y90182D01*
X693111Y90262D01*
X693075Y90346D01*
X693049Y90378D01*
X693038Y90399D01*
X693015Y90421D01*
X692970Y90477D01*
X670305Y113142D01*
X670305Y233158D01*
X676658Y239511D01*
X676711Y239585D01*
X676771Y239654D01*
X676783Y239684D01*
X676802Y239711D01*
X676829Y239797D01*
X676840Y239825D01*
X676853Y239854D01*
X676854Y239860D01*
X676863Y239882D01*
X676867Y239923D01*
X676874Y239946D01*
X676873Y239978D01*
X676881Y240049D01*
X676881Y242458D01*
X733582Y299159D01*
X733635Y299233D01*
X733695Y299302D01*
X733707Y299332D01*
X733726Y299358D01*
X733753Y299445D01*
X733787Y299530D01*
X733791Y299571D01*
X733798Y299593D01*
X733797Y299626D01*
X733805Y299697D01*
X733805Y325175D01*
X733791Y325265D01*
X733783Y325356D01*
X733771Y325385D01*
X733766Y325417D01*
X733723Y325498D01*
X733687Y325582D01*
X733661Y325614D01*
X733650Y325635D01*
X733627Y325657D01*
X733582Y325713D01*
X731293Y328002D01*
X731293Y332398D01*
X734402Y335507D01*
X738798Y335507D01*
X741907Y332398D01*
X741907Y328002D01*
X739618Y325713D01*
X739565Y325639D01*
X739505Y325569D01*
X739493Y325539D01*
X739474Y325513D01*
X739447Y325426D01*
X739413Y325341D01*
X739409Y325300D01*
X739402Y325278D01*
X739403Y325246D01*
X739395Y325175D01*
X739395Y297066D01*
X682694Y240365D01*
X682641Y240291D01*
X682581Y240222D01*
X682569Y240192D01*
X682550Y240166D01*
X682523Y240079D01*
X682489Y239994D01*
X682485Y239953D01*
X682478Y239931D01*
X682479Y239898D01*
X682471Y239827D01*
X682471Y237418D01*
X676118Y231065D01*
X676065Y230992D01*
X676005Y230922D01*
X675993Y230892D01*
X675974Y230866D01*
X675947Y230779D01*
X675913Y230694D01*
X675909Y230653D01*
X675902Y230631D01*
X675903Y230598D01*
X675895Y230527D01*
X675895Y115773D01*
X675909Y115683D01*
X675917Y115592D01*
X675929Y115562D01*
X675934Y115530D01*
X675977Y115450D01*
X676013Y115366D01*
X676039Y115334D01*
X676050Y115313D01*
X676073Y115291D01*
X676118Y115235D01*
X696923Y94430D01*
X696997Y94377D01*
X697066Y94317D01*
X697096Y94305D01*
X697122Y94286D01*
X697209Y94259D01*
X697294Y94225D01*
X697335Y94221D01*
X697357Y94214D01*
X697390Y94215D01*
X697461Y94207D01*
X700103Y94207D01*
X700174Y94218D01*
X700246Y94220D01*
X700295Y94238D01*
X700346Y94246D01*
X700409Y94280D01*
X700477Y94305D01*
X700517Y94337D01*
X700563Y94362D01*
X700613Y94414D01*
X700669Y94458D01*
X700697Y94502D01*
X700733Y94540D01*
X700763Y94605D01*
X700802Y94665D01*
X700814Y94716D01*
X700836Y94763D01*
X700844Y94834D01*
X700862Y94904D01*
X700858Y94956D01*
X700863Y95007D01*
X700848Y95078D01*
X700843Y95149D01*
X700822Y95197D01*
X700811Y95248D01*
X700774Y95309D01*
X700746Y95375D01*
X700701Y95431D01*
X700685Y95459D01*
X700667Y95474D01*
X700641Y95506D01*
X685545Y110602D01*
X685545Y160075D01*
X685531Y160165D01*
X685523Y160256D01*
X685511Y160285D01*
X685506Y160317D01*
X685463Y160398D01*
X685427Y160482D01*
X685401Y160514D01*
X685390Y160535D01*
X685367Y160557D01*
X685322Y160613D01*
X683033Y162902D01*
X683033Y167298D01*
X686142Y170407D01*
X690538Y170407D01*
X692827Y168118D01*
X692901Y168065D01*
X692971Y168005D01*
X693001Y167993D01*
X693027Y167974D01*
X693114Y167947D01*
X693199Y167913D01*
X693240Y167909D01*
X693262Y167902D01*
X693294Y167903D01*
X693365Y167895D01*
X698388Y167895D01*
X710893Y155390D01*
X710967Y155337D01*
X711036Y155277D01*
X711066Y155265D01*
X711092Y155246D01*
X711179Y155219D01*
X711264Y155185D01*
X711305Y155181D01*
X711327Y155174D01*
X711360Y155175D01*
X711431Y155167D01*
X714668Y155167D01*
X716957Y152878D01*
X717031Y152825D01*
X717101Y152765D01*
X717131Y152753D01*
X717157Y152734D01*
X717244Y152707D01*
X717329Y152673D01*
X717370Y152669D01*
X717392Y152662D01*
X717424Y152663D01*
X717495Y152655D01*
X719887Y152655D01*
X719977Y152669D01*
X720068Y152677D01*
X720098Y152689D01*
X720130Y152694D01*
X720210Y152737D01*
X720294Y152773D01*
X720326Y152799D01*
X720347Y152810D01*
X720369Y152833D01*
X720425Y152878D01*
X735442Y167895D01*
X783844Y167895D01*
X783864Y167898D01*
X783883Y167896D01*
X783985Y167918D01*
X784087Y167934D01*
X784104Y167944D01*
X784124Y167948D01*
X784213Y168001D01*
X784304Y168050D01*
X784318Y168064D01*
X784335Y168074D01*
X784402Y168153D01*
X784474Y168228D01*
X784482Y168246D01*
X784495Y168261D01*
X784534Y168357D01*
X784577Y168451D01*
X784579Y168471D01*
X784587Y168489D01*
X784605Y168656D01*
X784605Y191658D01*
X784890Y191943D01*
X784943Y192017D01*
X785003Y192086D01*
X785015Y192116D01*
X785034Y192142D01*
X785061Y192229D01*
X785095Y192314D01*
X785099Y192355D01*
X785106Y192377D01*
X785105Y192410D01*
X785113Y192481D01*
X785113Y209408D01*
X805240Y229535D01*
X807100Y231395D01*
X830209Y231395D01*
X830299Y231409D01*
X830390Y231417D01*
X830420Y231429D01*
X830452Y231434D01*
X830533Y231477D01*
X830617Y231513D01*
X830649Y231539D01*
X830669Y231550D01*
X830692Y231573D01*
X830748Y231618D01*
X881325Y282195D01*
X964819Y282195D01*
X964839Y282198D01*
X964858Y282196D01*
X964960Y282218D01*
X965062Y282234D01*
X965079Y282244D01*
X965099Y282248D01*
X965188Y282301D01*
X965279Y282350D01*
X965293Y282364D01*
X965310Y282374D01*
X965377Y282453D01*
X965449Y282528D01*
X965457Y282546D01*
X965470Y282561D01*
X965509Y282657D01*
X965552Y282751D01*
X965554Y282771D01*
X965562Y282789D01*
X965580Y282956D01*
X965580Y284503D01*
X971921Y290843D01*
X971932Y290859D01*
X971948Y290872D01*
X972004Y290959D01*
X972064Y291043D01*
X972070Y291062D01*
X972081Y291079D01*
X972106Y291179D01*
X972136Y291278D01*
X972136Y291298D01*
X972141Y291317D01*
X972133Y291420D01*
X972130Y291524D01*
X972123Y291543D01*
X972122Y291563D01*
X972081Y291657D01*
X972046Y291755D01*
X972033Y291771D01*
X972025Y291789D01*
X971921Y291920D01*
X964564Y299276D01*
X964564Y303277D01*
X977138Y303277D01*
X977158Y303280D01*
X977177Y303278D01*
X977279Y303300D01*
X977381Y303317D01*
X977398Y303326D01*
X977418Y303330D01*
X977507Y303383D01*
X977598Y303432D01*
X977612Y303446D01*
X977629Y303456D01*
X977696Y303535D01*
X977767Y303610D01*
X977776Y303628D01*
X977789Y303643D01*
X977827Y303739D01*
X977871Y303833D01*
X977873Y303853D01*
X977881Y303871D01*
X977899Y304038D01*
X977899Y305562D01*
X977896Y305582D01*
X977898Y305601D01*
X977876Y305703D01*
X977859Y305805D01*
X977850Y305822D01*
X977846Y305842D01*
X977793Y305931D01*
X977744Y306022D01*
X977730Y306036D01*
X977720Y306053D01*
X977641Y306120D01*
X977566Y306191D01*
X977548Y306200D01*
X977533Y306213D01*
X977437Y306252D01*
X977343Y306295D01*
X977323Y306297D01*
X977305Y306305D01*
X977138Y306323D01*
X964564Y306323D01*
X964564Y310324D01*
X971921Y317680D01*
X971932Y317696D01*
X971948Y317709D01*
X972004Y317796D01*
X972064Y317880D01*
X972070Y317899D01*
X972081Y317916D01*
X972106Y318016D01*
X972136Y318115D01*
X972136Y318135D01*
X972141Y318154D01*
X972133Y318257D01*
X972130Y318361D01*
X972123Y318380D01*
X972122Y318399D01*
X972081Y318494D01*
X972046Y318592D01*
X972033Y318607D01*
X972025Y318626D01*
X971921Y318757D01*
X965580Y325097D01*
X965580Y335303D01*
X972639Y342362D01*
X972651Y342378D01*
X972666Y342390D01*
X972722Y342478D01*
X972783Y342561D01*
X972788Y342580D01*
X972799Y342597D01*
X972824Y342698D01*
X972855Y342797D01*
X972854Y342816D01*
X972859Y342836D01*
X972851Y342939D01*
X972849Y343042D01*
X972842Y343061D01*
X972840Y343081D01*
X972800Y343176D01*
X972764Y343273D01*
X972752Y343289D01*
X972744Y343307D01*
X972639Y343438D01*
X965580Y350497D01*
X965580Y360703D01*
X972639Y367762D01*
X972651Y367778D01*
X972666Y367790D01*
X972722Y367878D01*
X972783Y367961D01*
X972788Y367980D01*
X972799Y367997D01*
X972824Y368098D01*
X972855Y368197D01*
X972854Y368216D01*
X972859Y368236D01*
X972851Y368339D01*
X972849Y368442D01*
X972842Y368461D01*
X972840Y368481D01*
X972800Y368576D01*
X972764Y368673D01*
X972752Y368689D01*
X972744Y368707D01*
X972639Y368838D01*
X965580Y375897D01*
X965580Y386103D01*
X972639Y393162D01*
X972651Y393178D01*
X972666Y393190D01*
X972722Y393278D01*
X972783Y393361D01*
X972788Y393380D01*
X972799Y393397D01*
X972824Y393498D01*
X972855Y393597D01*
X972854Y393616D01*
X972859Y393636D01*
X972851Y393739D01*
X972849Y393842D01*
X972842Y393861D01*
X972840Y393881D01*
X972800Y393976D01*
X972764Y394073D01*
X972752Y394089D01*
X972744Y394107D01*
X972639Y394238D01*
X965580Y401297D01*
X965580Y411503D01*
X972639Y418562D01*
X972651Y418578D01*
X972666Y418590D01*
X972722Y418678D01*
X972783Y418761D01*
X972788Y418780D01*
X972799Y418797D01*
X972824Y418898D01*
X972855Y418997D01*
X972854Y419016D01*
X972859Y419036D01*
X972851Y419139D01*
X972849Y419242D01*
X972842Y419261D01*
X972840Y419281D01*
X972800Y419376D01*
X972764Y419473D01*
X972752Y419489D01*
X972744Y419507D01*
X972639Y419638D01*
X971703Y420574D01*
X971687Y420586D01*
X971674Y420601D01*
X971587Y420658D01*
X971503Y420718D01*
X971484Y420724D01*
X971468Y420734D01*
X971367Y420760D01*
X971268Y420790D01*
X971248Y420790D01*
X971229Y420794D01*
X971126Y420786D01*
X971022Y420784D01*
X971004Y420777D01*
X970984Y420775D01*
X970889Y420735D01*
X970791Y420699D01*
X970776Y420687D01*
X970758Y420679D01*
X970627Y420574D01*
X955518Y405465D01*
X955465Y405391D01*
X955405Y405322D01*
X955393Y405292D01*
X955374Y405266D01*
X955347Y405179D01*
X955313Y405094D01*
X955309Y405053D01*
X955302Y405031D01*
X955303Y404998D01*
X955295Y404927D01*
X955295Y316342D01*
X928258Y289305D01*
X877773Y289305D01*
X877683Y289291D01*
X877592Y289283D01*
X877562Y289271D01*
X877530Y289266D01*
X877450Y289223D01*
X877366Y289187D01*
X877334Y289161D01*
X877313Y289150D01*
X877291Y289127D01*
X877235Y289082D01*
X839358Y251205D01*
X728925Y251205D01*
X728835Y251191D01*
X728744Y251183D01*
X728715Y251171D01*
X728683Y251166D01*
X728602Y251123D01*
X728518Y251087D01*
X728486Y251061D01*
X728465Y251050D01*
X728443Y251027D01*
X728387Y250982D01*
X726098Y248693D01*
X721702Y248693D01*
X718593Y251802D01*
X718593Y256198D01*
X721702Y259307D01*
X726098Y259307D01*
X728387Y257018D01*
X728461Y256965D01*
X728531Y256905D01*
X728561Y256893D01*
X728587Y256874D01*
X728674Y256847D01*
X728759Y256813D01*
X728800Y256809D01*
X728822Y256802D01*
X728854Y256803D01*
X728925Y256795D01*
X836727Y256795D01*
X836817Y256809D01*
X836908Y256817D01*
X836938Y256829D01*
X836970Y256834D01*
X837050Y256877D01*
X837134Y256913D01*
X837166Y256939D01*
X837187Y256950D01*
X837198Y256961D01*
X837199Y256961D01*
X837212Y256975D01*
X837265Y257018D01*
X875142Y294895D01*
X925627Y294895D01*
X925717Y294909D01*
X925808Y294917D01*
X925838Y294929D01*
X925870Y294934D01*
X925950Y294977D01*
X926034Y295013D01*
X926066Y295039D01*
X926087Y295050D01*
X926109Y295073D01*
X926165Y295118D01*
X949482Y318435D01*
X949535Y318509D01*
X949595Y318578D01*
X949607Y318608D01*
X949626Y318634D01*
X949653Y318721D01*
X949687Y318806D01*
X949691Y318847D01*
X949698Y318869D01*
X949697Y318902D01*
X949705Y318973D01*
X949705Y407558D01*
X951565Y409418D01*
X966674Y424527D01*
X966686Y424543D01*
X966701Y424555D01*
X966732Y424603D01*
X966743Y424615D01*
X966753Y424636D01*
X966758Y424643D01*
X966818Y424726D01*
X966824Y424745D01*
X966834Y424762D01*
X966860Y424863D01*
X966890Y424961D01*
X966890Y424981D01*
X966894Y425001D01*
X966886Y425104D01*
X966884Y425207D01*
X966877Y425226D01*
X966875Y425246D01*
X966835Y425341D01*
X966799Y425438D01*
X966787Y425454D01*
X966779Y425472D01*
X966674Y425603D01*
X965580Y426697D01*
X965580Y436903D01*
X972639Y443962D01*
X972651Y443978D01*
X972666Y443990D01*
X972722Y444078D01*
X972783Y444161D01*
X972788Y444180D01*
X972799Y444197D01*
X972824Y444298D01*
X972855Y444397D01*
X972854Y444416D01*
X972859Y444436D01*
X972851Y444539D01*
X972849Y444642D01*
X972842Y444661D01*
X972840Y444681D01*
X972800Y444776D01*
X972764Y444873D01*
X972752Y444889D01*
X972744Y444907D01*
X972639Y445038D01*
X965580Y452097D01*
X965580Y462303D01*
X972797Y469520D01*
X983003Y469520D01*
X990220Y462303D01*
X990220Y460756D01*
X990223Y460736D01*
X990221Y460717D01*
X990243Y460615D01*
X990259Y460513D01*
X990269Y460496D01*
X990273Y460476D01*
X990326Y460387D01*
X990375Y460296D01*
X990389Y460282D01*
X990399Y460265D01*
X990478Y460198D01*
X990553Y460126D01*
X990571Y460118D01*
X990586Y460105D01*
X990682Y460066D01*
X990776Y460023D01*
X990796Y460021D01*
X990814Y460013D01*
X990981Y459995D01*
X991758Y459995D01*
X993618Y458135D01*
X1003778Y447975D01*
X1003836Y447933D01*
X1003888Y447883D01*
X1003935Y447861D01*
X1003977Y447831D01*
X1004046Y447810D01*
X1004111Y447780D01*
X1004163Y447774D01*
X1004213Y447759D01*
X1004284Y447761D01*
X1004355Y447753D01*
X1004406Y447764D01*
X1004458Y447765D01*
X1004526Y447790D01*
X1004596Y447805D01*
X1004641Y447832D01*
X1004689Y447850D01*
X1004745Y447894D01*
X1004807Y447931D01*
X1004841Y447971D01*
X1004881Y448003D01*
X1004920Y448064D01*
X1004967Y448118D01*
X1004986Y448166D01*
X1005014Y448210D01*
X1005032Y448280D01*
X1005059Y448346D01*
X1005067Y448418D01*
X1005075Y448449D01*
X1005073Y448472D01*
X1005077Y448513D01*
X1005077Y514480D01*
X1005066Y514551D01*
X1005064Y514622D01*
X1005046Y514671D01*
X1005038Y514723D01*
X1005004Y514786D01*
X1004979Y514853D01*
X1004947Y514894D01*
X1004922Y514940D01*
X1004870Y514989D01*
X1004826Y515045D01*
X1004782Y515074D01*
X1004744Y515109D01*
X1004679Y515140D01*
X1004619Y515178D01*
X1004568Y515191D01*
X1004521Y515213D01*
X1004450Y515221D01*
X1004380Y515238D01*
X1004328Y515234D01*
X1004277Y515240D01*
X1004206Y515225D01*
X1004135Y515219D01*
X1004087Y515199D01*
X1004036Y515188D01*
X1003975Y515151D01*
X1003909Y515123D01*
X1003853Y515078D01*
X1003825Y515062D01*
X1003810Y515044D01*
X1003778Y515018D01*
X996124Y507364D01*
X992123Y507364D01*
X992123Y519938D01*
X992120Y519958D01*
X992122Y519977D01*
X992100Y520079D01*
X992083Y520181D01*
X992074Y520198D01*
X992070Y520218D01*
X992017Y520307D01*
X991968Y520398D01*
X991954Y520412D01*
X991944Y520429D01*
X991865Y520496D01*
X991790Y520567D01*
X991772Y520576D01*
X991757Y520589D01*
X991661Y520627D01*
X991567Y520671D01*
X991547Y520673D01*
X991529Y520681D01*
X991362Y520699D01*
X990599Y520699D01*
X990599Y520701D01*
X991362Y520701D01*
X991382Y520704D01*
X991401Y520702D01*
X991503Y520724D01*
X991605Y520741D01*
X991622Y520750D01*
X991642Y520754D01*
X991731Y520807D01*
X991822Y520856D01*
X991836Y520870D01*
X991853Y520880D01*
X991920Y520959D01*
X991991Y521034D01*
X992000Y521052D01*
X992013Y521067D01*
X992052Y521163D01*
X992095Y521257D01*
X992097Y521277D01*
X992105Y521295D01*
X992123Y521462D01*
X992123Y534036D01*
X996124Y534036D01*
X1003778Y526382D01*
X1003836Y526340D01*
X1003888Y526291D01*
X1003935Y526269D01*
X1003977Y526238D01*
X1004046Y526217D01*
X1004111Y526187D01*
X1004163Y526181D01*
X1004213Y526166D01*
X1004284Y526168D01*
X1004355Y526160D01*
X1004406Y526171D01*
X1004458Y526172D01*
X1004526Y526197D01*
X1004596Y526212D01*
X1004641Y526239D01*
X1004689Y526257D01*
X1004745Y526302D01*
X1004807Y526338D01*
X1004841Y526378D01*
X1004881Y526410D01*
X1004920Y526471D01*
X1004967Y526525D01*
X1004986Y526574D01*
X1005014Y526617D01*
X1005032Y526687D01*
X1005059Y526753D01*
X1005067Y526825D01*
X1005075Y526856D01*
X1005073Y526879D01*
X1005077Y526920D01*
X1005077Y546100D01*
X1005075Y546112D01*
X1005076Y546121D01*
X1005074Y546131D01*
X1005075Y546160D01*
X1005062Y546319D01*
X1005061Y546324D01*
X1005061Y546330D01*
X1005027Y546494D01*
X1004929Y546797D01*
X1004913Y546828D01*
X1004904Y546863D01*
X1004821Y547009D01*
X1004634Y547266D01*
X1004609Y547291D01*
X1004590Y547321D01*
X1004466Y547434D01*
X1004209Y547621D01*
X1004177Y547637D01*
X1004149Y547660D01*
X1003997Y547729D01*
X1003694Y547827D01*
X1003689Y547828D01*
X1003683Y547831D01*
X1003519Y547862D01*
X1003360Y547875D01*
X1003338Y547873D01*
X1003300Y547877D01*
X12700Y547877D01*
X12678Y547874D01*
X12640Y547875D01*
X12481Y547862D01*
X12476Y547861D01*
X12470Y547861D01*
X12306Y547827D01*
X12003Y547729D01*
X11972Y547713D01*
X11937Y547704D01*
X11791Y547621D01*
X11534Y547434D01*
X11509Y547409D01*
X11479Y547390D01*
X11366Y547266D01*
X11179Y547009D01*
X11163Y546977D01*
X11140Y546949D01*
X11071Y546797D01*
X10973Y546494D01*
X10972Y546489D01*
X10969Y546483D01*
X10938Y546319D01*
X10925Y546160D01*
X10927Y546138D01*
X10923Y546100D01*
X10923Y526920D01*
X10934Y526849D01*
X10936Y526778D01*
X10954Y526729D01*
X10962Y526677D01*
X10996Y526614D01*
X11021Y526547D01*
X11053Y526506D01*
X11078Y526460D01*
X11130Y526411D01*
X11174Y526355D01*
X11218Y526326D01*
X11256Y526291D01*
X11321Y526260D01*
X11381Y526222D01*
X11432Y526209D01*
X11479Y526187D01*
X11550Y526179D01*
X11620Y526162D01*
X11672Y526166D01*
X11723Y526160D01*
X11794Y526175D01*
X11865Y526181D01*
X11913Y526201D01*
X11964Y526212D01*
X12025Y526249D01*
X12091Y526277D01*
X12147Y526322D01*
X12175Y526338D01*
X12190Y526356D01*
X12222Y526382D01*
X19876Y534036D01*
X23877Y534036D01*
X23877Y521462D01*
X23880Y521442D01*
X23878Y521423D01*
X23900Y521321D01*
X23917Y521219D01*
X23926Y521202D01*
X23930Y521182D01*
X23983Y521093D01*
X24032Y521002D01*
X24046Y520988D01*
X24056Y520971D01*
X24135Y520904D01*
X24210Y520833D01*
X24228Y520824D01*
X24243Y520811D01*
X24339Y520773D01*
X24433Y520729D01*
X24453Y520727D01*
X24471Y520719D01*
X24638Y520701D01*
X25401Y520701D01*
X25401Y520699D01*
X24638Y520699D01*
X24618Y520696D01*
X24599Y520698D01*
X24497Y520676D01*
X24395Y520659D01*
X24378Y520650D01*
X24358Y520646D01*
X24269Y520593D01*
X24178Y520544D01*
X24164Y520530D01*
X24147Y520520D01*
X24080Y520441D01*
X24009Y520366D01*
X24000Y520348D01*
X23987Y520333D01*
X23948Y520237D01*
X23905Y520143D01*
X23903Y520123D01*
X23895Y520105D01*
X23877Y519938D01*
X23877Y507364D01*
X19876Y507364D01*
X12222Y515018D01*
X12164Y515060D01*
X12112Y515109D01*
X12065Y515131D01*
X12023Y515162D01*
X11954Y515183D01*
X11889Y515213D01*
X11837Y515219D01*
X11787Y515234D01*
X11716Y515232D01*
X11645Y515240D01*
X11594Y515229D01*
X11542Y515228D01*
X11474Y515203D01*
X11404Y515188D01*
X11359Y515161D01*
X11311Y515143D01*
X11255Y515098D01*
X11193Y515062D01*
X11159Y515022D01*
X11119Y514990D01*
X11080Y514929D01*
X11033Y514875D01*
X11014Y514826D01*
X10986Y514783D01*
X10968Y514713D01*
X10941Y514647D01*
X10933Y514575D01*
X10925Y514544D01*
X10927Y514521D01*
X10923Y514480D01*
X10923Y215900D01*
X10926Y215878D01*
X10925Y215840D01*
X10938Y215681D01*
X10939Y215676D01*
X10939Y215670D01*
X10973Y215506D01*
X11071Y215203D01*
X11087Y215172D01*
X11096Y215137D01*
X11179Y214991D01*
X11366Y214734D01*
X11391Y214709D01*
X11410Y214679D01*
X11534Y214566D01*
X11791Y214379D01*
X11823Y214363D01*
X11851Y214340D01*
X12003Y214271D01*
X12306Y214173D01*
X12311Y214172D01*
X12317Y214169D01*
X12481Y214138D01*
X12640Y214125D01*
X12662Y214127D01*
X12700Y214123D01*
X122987Y214123D01*
X123058Y214134D01*
X123130Y214136D01*
X123179Y214154D01*
X123230Y214162D01*
X123293Y214196D01*
X123361Y214221D01*
X123401Y214253D01*
X123447Y214278D01*
X123497Y214330D01*
X123553Y214374D01*
X123581Y214418D01*
X123617Y214456D01*
X123647Y214521D01*
X123686Y214581D01*
X123698Y214632D01*
X123720Y214679D01*
X123728Y214750D01*
X123746Y214820D01*
X123742Y214872D01*
X123747Y214923D01*
X123732Y214994D01*
X123727Y215065D01*
X123706Y215113D01*
X123695Y215164D01*
X123658Y215225D01*
X123630Y215291D01*
X123585Y215347D01*
X123569Y215375D01*
X123551Y215390D01*
X123525Y215422D01*
X62565Y276382D01*
X62491Y276435D01*
X62422Y276495D01*
X62392Y276507D01*
X62366Y276526D01*
X62279Y276553D01*
X62194Y276587D01*
X62153Y276591D01*
X62131Y276598D01*
X62098Y276597D01*
X62027Y276605D01*
X38481Y276605D01*
X38461Y276602D01*
X38442Y276604D01*
X38340Y276582D01*
X38238Y276566D01*
X38221Y276556D01*
X38201Y276552D01*
X38112Y276499D01*
X38021Y276450D01*
X38007Y276436D01*
X37990Y276426D01*
X37923Y276347D01*
X37851Y276272D01*
X37843Y276254D01*
X37830Y276239D01*
X37791Y276143D01*
X37748Y276049D01*
X37746Y276029D01*
X37738Y276011D01*
X37720Y275844D01*
X37720Y274297D01*
X30503Y267080D01*
X20297Y267080D01*
X13080Y274297D01*
X13080Y284503D01*
X20139Y291562D01*
X20151Y291578D01*
X20166Y291590D01*
X20222Y291678D01*
X20283Y291761D01*
X20288Y291780D01*
X20299Y291797D01*
X20324Y291898D01*
X20355Y291997D01*
X20354Y292016D01*
X20359Y292036D01*
X20351Y292139D01*
X20349Y292242D01*
X20342Y292261D01*
X20340Y292281D01*
X20300Y292376D01*
X20264Y292473D01*
X20252Y292489D01*
X20244Y292507D01*
X20139Y292638D01*
X13080Y299697D01*
X13080Y309903D01*
X20139Y316962D01*
X20151Y316978D01*
X20166Y316990D01*
X20222Y317078D01*
X20283Y317161D01*
X20288Y317180D01*
X20299Y317197D01*
X20324Y317298D01*
X20355Y317397D01*
X20354Y317416D01*
X20359Y317436D01*
X20351Y317539D01*
X20349Y317642D01*
X20342Y317661D01*
X20340Y317681D01*
X20300Y317776D01*
X20264Y317873D01*
X20252Y317889D01*
X20244Y317907D01*
X20139Y318038D01*
X13080Y325097D01*
X13080Y335303D01*
X20139Y342362D01*
X20151Y342378D01*
X20166Y342390D01*
X20222Y342478D01*
X20283Y342561D01*
X20288Y342580D01*
X20299Y342597D01*
X20324Y342698D01*
X20355Y342797D01*
X20354Y342816D01*
X20359Y342836D01*
X20351Y342939D01*
X20349Y343042D01*
X20342Y343061D01*
X20340Y343081D01*
X20300Y343176D01*
X20264Y343273D01*
X20252Y343289D01*
X20244Y343307D01*
X20139Y343438D01*
X13080Y350497D01*
X13080Y360703D01*
X20139Y367762D01*
X20151Y367778D01*
X20166Y367790D01*
X20222Y367878D01*
X20283Y367961D01*
X20288Y367980D01*
X20299Y367997D01*
X20324Y368098D01*
X20355Y368197D01*
X20354Y368216D01*
X20359Y368236D01*
X20351Y368339D01*
X20349Y368442D01*
X20342Y368461D01*
X20340Y368481D01*
X20300Y368576D01*
X20264Y368673D01*
X20252Y368689D01*
X20244Y368707D01*
X20139Y368838D01*
X13080Y375897D01*
X13080Y386103D01*
X20139Y393162D01*
X20151Y393178D01*
X20166Y393190D01*
X20222Y393278D01*
X20283Y393361D01*
X20288Y393380D01*
X20299Y393397D01*
X20324Y393498D01*
X20355Y393597D01*
X20354Y393616D01*
X20359Y393636D01*
X20351Y393739D01*
X20349Y393842D01*
X20342Y393861D01*
X20340Y393881D01*
X20300Y393976D01*
X20264Y394073D01*
X20252Y394089D01*
X20244Y394107D01*
X20139Y394238D01*
X13080Y401297D01*
X13080Y411503D01*
X20139Y418562D01*
X20151Y418578D01*
X20166Y418590D01*
X20222Y418678D01*
X20283Y418761D01*
X20288Y418780D01*
X20299Y418797D01*
X20324Y418898D01*
X20355Y418997D01*
X20354Y419016D01*
X20359Y419036D01*
X20351Y419139D01*
X20349Y419242D01*
X20342Y419261D01*
X20340Y419281D01*
X20300Y419376D01*
X20264Y419473D01*
X20252Y419489D01*
X20244Y419507D01*
X20139Y419638D01*
X13080Y426697D01*
X13080Y436903D01*
X20139Y443962D01*
X20151Y443978D01*
X20166Y443990D01*
X20222Y444078D01*
X20283Y444161D01*
X20288Y444180D01*
X20299Y444197D01*
X20324Y444298D01*
X20355Y444397D01*
X20354Y444416D01*
X20359Y444436D01*
X20351Y444539D01*
X20349Y444642D01*
X20342Y444661D01*
X20340Y444681D01*
X20300Y444776D01*
X20264Y444873D01*
X20252Y444889D01*
X20244Y444907D01*
X20139Y445038D01*
X13080Y452097D01*
X13080Y462303D01*
X20297Y469520D01*
X30503Y469520D01*
X37720Y462303D01*
X37720Y460756D01*
X37723Y460736D01*
X37721Y460717D01*
X37743Y460615D01*
X37759Y460513D01*
X37769Y460496D01*
X37773Y460476D01*
X37826Y460387D01*
X37875Y460296D01*
X37889Y460282D01*
X37899Y460265D01*
X37978Y460198D01*
X38053Y460126D01*
X38071Y460118D01*
X38086Y460105D01*
X38182Y460066D01*
X38276Y460023D01*
X38296Y460021D01*
X38314Y460013D01*
X38481Y459995D01*
X51958Y459995D01*
X78995Y432958D01*
X78995Y344373D01*
X79009Y344283D01*
X79017Y344192D01*
X79029Y344162D01*
X79034Y344130D01*
X79077Y344050D01*
X79113Y343966D01*
X79139Y343933D01*
X79150Y343913D01*
X79173Y343891D01*
X79194Y343865D01*
X79197Y343859D01*
X79200Y343856D01*
X79218Y343835D01*
X82294Y340759D01*
X82352Y340717D01*
X82404Y340667D01*
X82425Y340658D01*
X82429Y340654D01*
X82451Y340645D01*
X82493Y340615D01*
X82562Y340594D01*
X82627Y340564D01*
X82679Y340558D01*
X82729Y340543D01*
X82800Y340545D01*
X82871Y340537D01*
X82922Y340548D01*
X82974Y340549D01*
X83042Y340574D01*
X83112Y340589D01*
X83157Y340616D01*
X83205Y340634D01*
X83261Y340678D01*
X83323Y340715D01*
X83357Y340755D01*
X83397Y340787D01*
X83436Y340848D01*
X83483Y340902D01*
X83502Y340950D01*
X83530Y340994D01*
X83548Y341063D01*
X83565Y341100D01*
X83566Y341108D01*
X83575Y341130D01*
X83583Y341202D01*
X83591Y341233D01*
X83589Y341256D01*
X83593Y341297D01*
X83593Y345098D01*
X86702Y348207D01*
X91098Y348207D01*
X93387Y345918D01*
X93461Y345865D01*
X93531Y345805D01*
X93561Y345793D01*
X93587Y345774D01*
X93674Y345747D01*
X93759Y345713D01*
X93800Y345709D01*
X93822Y345702D01*
X93854Y345703D01*
X93925Y345695D01*
X312475Y345695D01*
X312565Y345709D01*
X312656Y345717D01*
X312685Y345729D01*
X312717Y345734D01*
X312798Y345777D01*
X312882Y345813D01*
X312914Y345839D01*
X312935Y345850D01*
X312957Y345873D01*
X313013Y345918D01*
X315302Y348207D01*
X319698Y348207D01*
X322807Y345098D01*
X322807Y340702D01*
X319698Y337593D01*
X315302Y337593D01*
X313013Y339882D01*
X312939Y339935D01*
X312869Y339995D01*
X312839Y340007D01*
X312813Y340026D01*
X312726Y340053D01*
X312641Y340087D01*
X312600Y340091D01*
X312578Y340098D01*
X312546Y340097D01*
X312475Y340105D01*
X93925Y340105D01*
X93835Y340091D01*
X93744Y340083D01*
X93715Y340071D01*
X93683Y340066D01*
X93602Y340023D01*
X93518Y339987D01*
X93486Y339961D01*
X93465Y339950D01*
X93443Y339927D01*
X93387Y339882D01*
X91098Y337593D01*
X87297Y337593D01*
X87226Y337582D01*
X87154Y337580D01*
X87105Y337562D01*
X87054Y337554D01*
X86991Y337520D01*
X86923Y337495D01*
X86883Y337463D01*
X86837Y337438D01*
X86787Y337386D01*
X86731Y337342D01*
X86703Y337298D01*
X86667Y337260D01*
X86637Y337195D01*
X86598Y337135D01*
X86586Y337084D01*
X86564Y337037D01*
X86556Y336966D01*
X86538Y336896D01*
X86542Y336844D01*
X86537Y336793D01*
X86552Y336722D01*
X86557Y336651D01*
X86578Y336603D01*
X86589Y336552D01*
X86626Y336491D01*
X86654Y336425D01*
X86699Y336369D01*
X86715Y336341D01*
X86733Y336326D01*
X86759Y336294D01*
X153335Y269718D01*
X153409Y269665D01*
X153478Y269605D01*
X153508Y269593D01*
X153534Y269574D01*
X153621Y269547D01*
X153706Y269513D01*
X153747Y269509D01*
X153769Y269502D01*
X153802Y269503D01*
X153873Y269495D01*
X440578Y269495D01*
X514043Y196030D01*
X514117Y195977D01*
X514186Y195917D01*
X514216Y195905D01*
X514242Y195886D01*
X514329Y195859D01*
X514414Y195825D01*
X514455Y195821D01*
X514477Y195814D01*
X514510Y195815D01*
X514581Y195807D01*
X517818Y195807D01*
X518102Y195523D01*
X518160Y195481D01*
X518212Y195432D01*
X518259Y195410D01*
X518301Y195380D01*
X518370Y195358D01*
X518435Y195328D01*
X518487Y195323D01*
X518537Y195307D01*
X518608Y195309D01*
X518679Y195301D01*
X518730Y195312D01*
X518782Y195314D01*
X518850Y195338D01*
X518920Y195353D01*
X518965Y195380D01*
X519013Y195398D01*
X519069Y195443D01*
X519131Y195480D01*
X519165Y195519D01*
X519205Y195552D01*
X519244Y195612D01*
X519291Y195667D01*
X519310Y195715D01*
X519338Y195759D01*
X519356Y195828D01*
X519383Y195895D01*
X519391Y195966D01*
X519399Y195997D01*
X519397Y196020D01*
X519401Y196061D01*
X519401Y378031D01*
X519387Y378121D01*
X519379Y378212D01*
X519367Y378242D01*
X519362Y378274D01*
X519319Y378354D01*
X519283Y378438D01*
X519257Y378470D01*
X519246Y378491D01*
X519223Y378513D01*
X519178Y378569D01*
X489285Y408462D01*
X489211Y408515D01*
X489142Y408575D01*
X489112Y408587D01*
X489086Y408606D01*
X488999Y408633D01*
X488914Y408667D01*
X488873Y408671D01*
X488851Y408678D01*
X488818Y408677D01*
X488747Y408685D01*
X146162Y408685D01*
X141277Y413570D01*
X141203Y413623D01*
X141134Y413683D01*
X141104Y413695D01*
X141078Y413714D01*
X140991Y413741D01*
X140906Y413775D01*
X140865Y413779D01*
X140843Y413786D01*
X140810Y413785D01*
X140739Y413793D01*
X137502Y413793D01*
X134393Y416902D01*
X134393Y421298D01*
X137502Y424407D01*
X141898Y424407D01*
X145007Y421298D01*
X145007Y418061D01*
X145021Y417971D01*
X145029Y417880D01*
X145041Y417850D01*
X145046Y417818D01*
X145089Y417738D01*
X145125Y417654D01*
X145151Y417622D01*
X145162Y417601D01*
X145185Y417579D01*
X145230Y417523D01*
X148255Y414498D01*
X148329Y414445D01*
X148398Y414385D01*
X148428Y414373D01*
X148454Y414354D01*
X148541Y414327D01*
X148626Y414293D01*
X148667Y414289D01*
X148689Y414282D01*
X148722Y414283D01*
X148793Y414275D01*
X363783Y414275D01*
X363853Y414286D01*
X363925Y414288D01*
X363974Y414306D01*
X364025Y414314D01*
X364089Y414348D01*
X364156Y414373D01*
X364197Y414405D01*
X364243Y414430D01*
X364292Y414482D01*
X364348Y414526D01*
X364376Y414570D01*
X364412Y414608D01*
X364442Y414673D01*
X364481Y414733D01*
X364494Y414784D01*
X364516Y414831D01*
X364524Y414902D01*
X364541Y414972D01*
X364537Y415024D01*
X364543Y415075D01*
X364528Y415146D01*
X364522Y415217D01*
X364502Y415265D01*
X364491Y415316D01*
X364454Y415377D01*
X364426Y415443D01*
X364381Y415499D01*
X364364Y415527D01*
X364347Y415542D01*
X364321Y415574D01*
X362993Y416902D01*
X362993Y421298D01*
X366102Y424407D01*
X370498Y424407D01*
X372787Y422118D01*
X372861Y422065D01*
X372931Y422005D01*
X372961Y421993D01*
X372987Y421974D01*
X373074Y421947D01*
X373159Y421913D01*
X373200Y421909D01*
X373222Y421902D01*
X373254Y421903D01*
X373325Y421895D01*
X509158Y421895D01*
X555245Y375808D01*
X555245Y95195D01*
X555259Y95105D01*
X555267Y95014D01*
X555279Y94985D01*
X555284Y94953D01*
X555327Y94872D01*
X555363Y94788D01*
X555389Y94756D01*
X555400Y94735D01*
X555423Y94713D01*
X555468Y94657D01*
X557757Y92368D01*
X557757Y87972D01*
X554648Y84863D01*
X550252Y84863D01*
X547143Y87972D01*
X547143Y92368D01*
X549432Y94657D01*
X549485Y94731D01*
X549545Y94801D01*
X549557Y94831D01*
X549576Y94857D01*
X549603Y94944D01*
X549637Y95029D01*
X549641Y95070D01*
X549648Y95092D01*
X549647Y95124D01*
X549655Y95195D01*
X549655Y373177D01*
X549641Y373267D01*
X549633Y373358D01*
X549621Y373388D01*
X549616Y373420D01*
X549573Y373500D01*
X549537Y373584D01*
X549511Y373616D01*
X549500Y373637D01*
X549477Y373659D01*
X549432Y373715D01*
X507065Y416082D01*
X506991Y416135D01*
X506922Y416195D01*
X506892Y416207D01*
X506866Y416226D01*
X506779Y416253D01*
X506694Y416287D01*
X506653Y416291D01*
X506631Y416298D01*
X506598Y416297D01*
X506527Y416305D01*
X373325Y416305D01*
X373236Y416291D01*
X373144Y416283D01*
X373115Y416271D01*
X373083Y416266D01*
X373002Y416223D01*
X372918Y416187D01*
X372886Y416161D01*
X372865Y416150D01*
X372843Y416127D01*
X372787Y416082D01*
X372279Y415574D01*
X372237Y415516D01*
X372188Y415464D01*
X372166Y415417D01*
X372136Y415375D01*
X372114Y415306D01*
X372084Y415241D01*
X372079Y415189D01*
X372063Y415139D01*
X372065Y415068D01*
X372057Y414997D01*
X372068Y414946D01*
X372070Y414894D01*
X372094Y414826D01*
X372109Y414756D01*
X372136Y414711D01*
X372154Y414663D01*
X372199Y414607D01*
X372236Y414545D01*
X372275Y414511D01*
X372308Y414471D01*
X372368Y414432D01*
X372423Y414385D01*
X372471Y414366D01*
X372515Y414338D01*
X372584Y414320D01*
X372651Y414293D01*
X372722Y414285D01*
X372753Y414277D01*
X372776Y414279D01*
X372817Y414275D01*
X491378Y414275D01*
X524991Y380662D01*
X524991Y105129D01*
X525005Y105039D01*
X525013Y104948D01*
X525025Y104919D01*
X525030Y104887D01*
X525073Y104806D01*
X525109Y104722D01*
X525135Y104690D01*
X525146Y104669D01*
X525169Y104647D01*
X525214Y104591D01*
X527277Y102528D01*
X527277Y98132D01*
X524168Y95023D01*
X519772Y95023D01*
X516663Y98132D01*
X516663Y102528D01*
X519178Y105043D01*
X519231Y105117D01*
X519291Y105187D01*
X519303Y105217D01*
X519322Y105243D01*
X519349Y105330D01*
X519383Y105415D01*
X519387Y105456D01*
X519394Y105478D01*
X519393Y105510D01*
X519401Y105581D01*
X519401Y184939D01*
X519390Y185009D01*
X519388Y185081D01*
X519370Y185130D01*
X519362Y185181D01*
X519328Y185245D01*
X519303Y185312D01*
X519271Y185353D01*
X519246Y185399D01*
X519194Y185448D01*
X519150Y185504D01*
X519106Y185532D01*
X519068Y185568D01*
X519003Y185598D01*
X518943Y185637D01*
X518892Y185650D01*
X518845Y185672D01*
X518774Y185680D01*
X518704Y185697D01*
X518652Y185693D01*
X518601Y185699D01*
X518530Y185684D01*
X518459Y185678D01*
X518411Y185658D01*
X518360Y185647D01*
X518299Y185610D01*
X518233Y185582D01*
X518177Y185537D01*
X518149Y185520D01*
X518134Y185503D01*
X518102Y185477D01*
X517818Y185193D01*
X513422Y185193D01*
X510313Y188302D01*
X510313Y191539D01*
X510299Y191629D01*
X510291Y191720D01*
X510279Y191750D01*
X510274Y191782D01*
X510231Y191862D01*
X510195Y191946D01*
X510169Y191978D01*
X510158Y191999D01*
X510135Y192021D01*
X510090Y192077D01*
X438485Y263682D01*
X438411Y263735D01*
X438342Y263795D01*
X438312Y263807D01*
X438286Y263826D01*
X438199Y263853D01*
X438114Y263887D01*
X438073Y263891D01*
X438051Y263898D01*
X438018Y263897D01*
X437947Y263905D01*
X151242Y263905D01*
X73405Y341742D01*
X73405Y430327D01*
X73391Y430417D01*
X73383Y430508D01*
X73371Y430538D01*
X73366Y430570D01*
X73323Y430650D01*
X73287Y430734D01*
X73261Y430766D01*
X73250Y430787D01*
X73227Y430809D01*
X73182Y430865D01*
X49865Y454182D01*
X49791Y454235D01*
X49722Y454295D01*
X49692Y454307D01*
X49666Y454326D01*
X49579Y454353D01*
X49494Y454387D01*
X49453Y454391D01*
X49431Y454398D01*
X49398Y454397D01*
X49327Y454405D01*
X38481Y454405D01*
X38461Y454402D01*
X38442Y454404D01*
X38340Y454382D01*
X38238Y454366D01*
X38221Y454356D01*
X38201Y454352D01*
X38112Y454299D01*
X38021Y454250D01*
X38007Y454236D01*
X37990Y454226D01*
X37923Y454147D01*
X37851Y454072D01*
X37843Y454054D01*
X37830Y454039D01*
X37791Y453943D01*
X37748Y453849D01*
X37746Y453829D01*
X37738Y453811D01*
X37720Y453644D01*
X37720Y452097D01*
X30661Y445038D01*
X30649Y445022D01*
X30634Y445010D01*
X30578Y444922D01*
X30517Y444839D01*
X30512Y444820D01*
X30501Y444803D01*
X30476Y444702D01*
X30445Y444603D01*
X30446Y444584D01*
X30441Y444564D01*
X30449Y444461D01*
X30451Y444358D01*
X30458Y444339D01*
X30460Y444319D01*
X30500Y444224D01*
X30536Y444127D01*
X30548Y444111D01*
X30556Y444093D01*
X30661Y443962D01*
X37720Y436903D01*
X37720Y426697D01*
X36626Y425603D01*
X36614Y425587D01*
X36599Y425574D01*
X36542Y425487D01*
X36482Y425403D01*
X36476Y425384D01*
X36466Y425368D01*
X36440Y425267D01*
X36410Y425168D01*
X36410Y425148D01*
X36406Y425129D01*
X36414Y425026D01*
X36416Y424922D01*
X36423Y424904D01*
X36425Y424884D01*
X36465Y424789D01*
X36501Y424691D01*
X36513Y424676D01*
X36521Y424657D01*
X36601Y424558D01*
X36604Y424552D01*
X36608Y424549D01*
X36626Y424527D01*
X64435Y396718D01*
X66295Y394858D01*
X66295Y318973D01*
X66309Y318883D01*
X66317Y318792D01*
X66329Y318762D01*
X66334Y318730D01*
X66377Y318650D01*
X66413Y318566D01*
X66439Y318534D01*
X66450Y318513D01*
X66473Y318491D01*
X66518Y318435D01*
X140635Y244318D01*
X140709Y244265D01*
X140778Y244205D01*
X140808Y244193D01*
X140834Y244174D01*
X140921Y244147D01*
X141006Y244113D01*
X141047Y244109D01*
X141069Y244102D01*
X141102Y244103D01*
X141173Y244095D01*
X331358Y244095D01*
X379423Y196030D01*
X379497Y195977D01*
X379566Y195917D01*
X379596Y195905D01*
X379622Y195886D01*
X379709Y195859D01*
X379794Y195825D01*
X379835Y195821D01*
X379857Y195814D01*
X379890Y195815D01*
X379961Y195807D01*
X383198Y195807D01*
X386307Y192698D01*
X386307Y188302D01*
X383198Y185193D01*
X378802Y185193D01*
X375693Y188302D01*
X375693Y191539D01*
X375679Y191629D01*
X375671Y191720D01*
X375659Y191750D01*
X375654Y191782D01*
X375611Y191862D01*
X375575Y191946D01*
X375549Y191978D01*
X375538Y191999D01*
X375515Y192021D01*
X375470Y192077D01*
X329265Y238282D01*
X329191Y238335D01*
X329122Y238395D01*
X329092Y238407D01*
X329066Y238426D01*
X328979Y238453D01*
X328894Y238487D01*
X328853Y238491D01*
X328831Y238498D01*
X328798Y238497D01*
X328727Y238505D01*
X138542Y238505D01*
X136682Y240365D01*
X60705Y316342D01*
X60705Y392227D01*
X60691Y392317D01*
X60683Y392408D01*
X60671Y392438D01*
X60666Y392470D01*
X60623Y392550D01*
X60587Y392634D01*
X60561Y392666D01*
X60550Y392687D01*
X60527Y392709D01*
X60482Y392765D01*
X32673Y420574D01*
X32657Y420586D01*
X32645Y420601D01*
X32557Y420658D01*
X32474Y420718D01*
X32455Y420724D01*
X32438Y420734D01*
X32337Y420760D01*
X32239Y420790D01*
X32219Y420790D01*
X32199Y420794D01*
X32096Y420786D01*
X31993Y420784D01*
X31974Y420777D01*
X31954Y420775D01*
X31859Y420735D01*
X31762Y420699D01*
X31746Y420687D01*
X31728Y420679D01*
X31597Y420574D01*
X30661Y419638D01*
X30649Y419622D01*
X30634Y419610D01*
X30578Y419522D01*
X30517Y419439D01*
X30512Y419420D01*
X30501Y419403D01*
X30476Y419302D01*
X30445Y419203D01*
X30446Y419184D01*
X30441Y419164D01*
X30449Y419061D01*
X30451Y418958D01*
X30458Y418939D01*
X30460Y418919D01*
X30500Y418824D01*
X30536Y418727D01*
X30548Y418711D01*
X30556Y418693D01*
X30661Y418562D01*
X37720Y411503D01*
X37720Y401297D01*
X36626Y400203D01*
X36614Y400187D01*
X36599Y400174D01*
X36543Y400087D01*
X36482Y400003D01*
X36476Y399984D01*
X36466Y399968D01*
X36440Y399867D01*
X36410Y399768D01*
X36410Y399748D01*
X36406Y399729D01*
X36414Y399626D01*
X36416Y399522D01*
X36423Y399504D01*
X36425Y399484D01*
X36465Y399389D01*
X36501Y399291D01*
X36513Y399276D01*
X36521Y399258D01*
X36626Y399127D01*
X53595Y382158D01*
X53595Y318973D01*
X53609Y318883D01*
X53617Y318792D01*
X53629Y318762D01*
X53634Y318730D01*
X53677Y318650D01*
X53713Y318566D01*
X53739Y318534D01*
X53750Y318513D01*
X53773Y318491D01*
X53818Y318435D01*
X141143Y231110D01*
X141217Y231057D01*
X141286Y230997D01*
X141316Y230985D01*
X141342Y230966D01*
X141429Y230939D01*
X141514Y230905D01*
X141555Y230901D01*
X141577Y230894D01*
X141610Y230895D01*
X141681Y230887D01*
X315996Y230887D01*
X366065Y180818D01*
X366139Y180765D01*
X366209Y180705D01*
X366239Y180693D01*
X366265Y180674D01*
X366352Y180647D01*
X366437Y180613D01*
X366478Y180609D01*
X366500Y180602D01*
X366532Y180603D01*
X366604Y180595D01*
X375975Y180595D01*
X376065Y180609D01*
X376156Y180617D01*
X376185Y180629D01*
X376217Y180634D01*
X376298Y180677D01*
X376382Y180713D01*
X376414Y180739D01*
X376435Y180750D01*
X376457Y180773D01*
X376513Y180818D01*
X378802Y183107D01*
X383198Y183107D01*
X386307Y179998D01*
X386307Y175602D01*
X383198Y172493D01*
X378802Y172493D01*
X376513Y174782D01*
X376439Y174835D01*
X376369Y174895D01*
X376339Y174907D01*
X376313Y174926D01*
X376226Y174953D01*
X376141Y174987D01*
X376100Y174991D01*
X376078Y174998D01*
X376046Y174997D01*
X375975Y175005D01*
X363973Y175005D01*
X362206Y176772D01*
X362148Y176814D01*
X362096Y176863D01*
X362049Y176885D01*
X362007Y176915D01*
X361938Y176937D01*
X361873Y176967D01*
X361821Y176973D01*
X361771Y176988D01*
X361700Y176986D01*
X361629Y176994D01*
X361578Y176983D01*
X361526Y176981D01*
X361458Y176957D01*
X361388Y176942D01*
X361343Y176915D01*
X361295Y176897D01*
X361239Y176852D01*
X361177Y176815D01*
X361143Y176776D01*
X361103Y176743D01*
X361064Y176683D01*
X361017Y176629D01*
X360998Y176580D01*
X360970Y176536D01*
X360952Y176467D01*
X360925Y176400D01*
X360917Y176329D01*
X360909Y176298D01*
X360911Y176275D01*
X360907Y176234D01*
X360907Y175602D01*
X357798Y172493D01*
X353402Y172493D01*
X350293Y175602D01*
X350293Y178839D01*
X350279Y178929D01*
X350271Y179020D01*
X350259Y179050D01*
X350254Y179082D01*
X350211Y179162D01*
X350175Y179246D01*
X350149Y179278D01*
X350138Y179299D01*
X350115Y179321D01*
X350070Y179377D01*
X327662Y201785D01*
X327604Y201827D01*
X327552Y201877D01*
X327505Y201899D01*
X327463Y201929D01*
X327394Y201950D01*
X327329Y201980D01*
X327277Y201986D01*
X327227Y202001D01*
X327156Y201999D01*
X327085Y202007D01*
X327034Y201996D01*
X326982Y201995D01*
X326914Y201970D01*
X326844Y201955D01*
X326799Y201928D01*
X326751Y201910D01*
X326695Y201866D01*
X326633Y201829D01*
X326599Y201789D01*
X326559Y201757D01*
X326520Y201696D01*
X326473Y201642D01*
X326454Y201594D01*
X326426Y201550D01*
X326408Y201480D01*
X326398Y201456D01*
X326391Y201440D01*
X326390Y201437D01*
X326381Y201414D01*
X326373Y201342D01*
X326365Y201311D01*
X326367Y201288D01*
X326363Y201247D01*
X326363Y183868D01*
X326366Y183848D01*
X326364Y183829D01*
X326386Y183727D01*
X326402Y183625D01*
X326412Y183608D01*
X326416Y183588D01*
X326469Y183499D01*
X326518Y183408D01*
X326532Y183394D01*
X326542Y183377D01*
X326621Y183310D01*
X326696Y183238D01*
X326714Y183230D01*
X326729Y183217D01*
X326825Y183178D01*
X326919Y183135D01*
X326939Y183133D01*
X326957Y183125D01*
X327124Y183107D01*
X329858Y183107D01*
X332967Y179998D01*
X332967Y175602D01*
X329858Y172493D01*
X325462Y172493D01*
X323598Y174357D01*
X323540Y174399D01*
X323488Y174448D01*
X323441Y174470D01*
X323399Y174500D01*
X323330Y174522D01*
X323265Y174552D01*
X323213Y174557D01*
X323163Y174573D01*
X323092Y174571D01*
X323021Y174579D01*
X322970Y174568D01*
X322918Y174566D01*
X322850Y174542D01*
X322780Y174527D01*
X322735Y174500D01*
X322687Y174482D01*
X322631Y174437D01*
X322569Y174400D01*
X322535Y174361D01*
X322495Y174328D01*
X322456Y174268D01*
X322409Y174213D01*
X322390Y174165D01*
X322362Y174121D01*
X322344Y174052D01*
X322317Y173985D01*
X322309Y173914D01*
X322301Y173883D01*
X322303Y173860D01*
X322299Y173819D01*
X322299Y144725D01*
X322313Y144635D01*
X322321Y144544D01*
X322333Y144515D01*
X322338Y144483D01*
X322381Y144402D01*
X322417Y144318D01*
X322443Y144286D01*
X322454Y144265D01*
X322477Y144243D01*
X322522Y144187D01*
X324811Y141898D01*
X324811Y137502D01*
X321702Y134393D01*
X317306Y134393D01*
X317022Y134677D01*
X316964Y134719D01*
X316912Y134768D01*
X316865Y134790D01*
X316823Y134820D01*
X316754Y134842D01*
X316689Y134872D01*
X316637Y134877D01*
X316587Y134893D01*
X316516Y134891D01*
X316445Y134899D01*
X316394Y134888D01*
X316342Y134886D01*
X316274Y134862D01*
X316204Y134847D01*
X316159Y134820D01*
X316111Y134802D01*
X316055Y134757D01*
X315993Y134720D01*
X315959Y134681D01*
X315919Y134648D01*
X315880Y134588D01*
X315833Y134533D01*
X315814Y134485D01*
X315786Y134441D01*
X315768Y134372D01*
X315741Y134305D01*
X315733Y134234D01*
X315725Y134203D01*
X315727Y134180D01*
X315723Y134139D01*
X315723Y69720D01*
X315734Y69649D01*
X315736Y69578D01*
X315754Y69529D01*
X315762Y69477D01*
X315796Y69414D01*
X315821Y69347D01*
X315853Y69306D01*
X315878Y69260D01*
X315930Y69211D01*
X315974Y69155D01*
X316018Y69126D01*
X316056Y69091D01*
X316121Y69060D01*
X316181Y69022D01*
X316232Y69009D01*
X316279Y68987D01*
X316350Y68979D01*
X316420Y68962D01*
X316472Y68966D01*
X316523Y68960D01*
X316594Y68975D01*
X316665Y68981D01*
X316713Y69001D01*
X316764Y69012D01*
X316825Y69049D01*
X316891Y69077D01*
X316947Y69122D01*
X316975Y69138D01*
X316990Y69156D01*
X317022Y69182D01*
X324676Y76836D01*
X328677Y76836D01*
X328677Y64262D01*
X328680Y64242D01*
X328678Y64223D01*
X328700Y64121D01*
X328717Y64019D01*
X328726Y64002D01*
X328730Y63982D01*
X328783Y63893D01*
X328832Y63802D01*
X328846Y63788D01*
X328856Y63771D01*
X328935Y63704D01*
X329010Y63633D01*
X329028Y63624D01*
X329043Y63611D01*
X329139Y63573D01*
X329233Y63529D01*
X329253Y63527D01*
X329271Y63519D01*
X329438Y63501D01*
X330962Y63501D01*
X330982Y63504D01*
X331001Y63502D01*
X331103Y63524D01*
X331205Y63541D01*
X331222Y63550D01*
X331242Y63554D01*
X331331Y63607D01*
X331422Y63656D01*
X331436Y63670D01*
X331453Y63680D01*
X331520Y63759D01*
X331591Y63834D01*
X331600Y63852D01*
X331613Y63867D01*
X331652Y63963D01*
X331695Y64057D01*
X331697Y64077D01*
X331705Y64095D01*
X331723Y64262D01*
X331723Y76836D01*
X335724Y76836D01*
X343080Y69479D01*
X343096Y69468D01*
X343109Y69452D01*
X343196Y69396D01*
X343280Y69336D01*
X343299Y69330D01*
X343316Y69319D01*
X343416Y69294D01*
X343515Y69264D01*
X343535Y69264D01*
X343554Y69259D01*
X343657Y69267D01*
X343761Y69270D01*
X343780Y69277D01*
X343799Y69278D01*
X343894Y69319D01*
X343992Y69354D01*
X344007Y69367D01*
X344026Y69375D01*
X344157Y69479D01*
X350497Y75820D01*
X360703Y75820D01*
X367762Y68761D01*
X367778Y68749D01*
X367790Y68734D01*
X367878Y68678D01*
X367961Y68617D01*
X367980Y68612D01*
X367997Y68601D01*
X368098Y68576D01*
X368197Y68545D01*
X368216Y68546D01*
X368236Y68541D01*
X368339Y68549D01*
X368442Y68551D01*
X368461Y68558D01*
X368481Y68560D01*
X368576Y68600D01*
X368673Y68636D01*
X368689Y68648D01*
X368707Y68656D01*
X368838Y68761D01*
X375897Y75820D01*
X382108Y75820D01*
X382179Y75831D01*
X382250Y75833D01*
X382299Y75851D01*
X382351Y75859D01*
X382414Y75893D01*
X382481Y75918D01*
X382522Y75950D01*
X382568Y75975D01*
X382617Y76027D01*
X382673Y76071D01*
X382702Y76115D01*
X382737Y76153D01*
X382768Y76218D01*
X382806Y76278D01*
X382819Y76329D01*
X382841Y76376D01*
X382849Y76447D01*
X382866Y76517D01*
X382862Y76569D01*
X382868Y76620D01*
X382853Y76691D01*
X382847Y76762D01*
X382827Y76810D01*
X382816Y76861D01*
X382779Y76922D01*
X382751Y76988D01*
X382706Y77044D01*
X382690Y77072D01*
X382672Y77087D01*
X382646Y77119D01*
X379598Y80167D01*
X379524Y80220D01*
X379455Y80280D01*
X379425Y80292D01*
X379398Y80311D01*
X379311Y80338D01*
X379227Y80372D01*
X379186Y80376D01*
X379163Y80383D01*
X379131Y80382D01*
X379060Y80390D01*
X375897Y80390D01*
X368838Y87449D01*
X368822Y87461D01*
X368810Y87476D01*
X368722Y87532D01*
X368639Y87593D01*
X368620Y87598D01*
X368603Y87609D01*
X368502Y87634D01*
X368403Y87665D01*
X368384Y87664D01*
X368364Y87669D01*
X368261Y87661D01*
X368158Y87659D01*
X368139Y87652D01*
X368119Y87650D01*
X368024Y87610D01*
X367927Y87574D01*
X367911Y87562D01*
X367893Y87554D01*
X367762Y87449D01*
X360703Y80390D01*
X350497Y80390D01*
X343438Y87449D01*
X343422Y87461D01*
X343410Y87476D01*
X343322Y87532D01*
X343239Y87593D01*
X343220Y87598D01*
X343203Y87609D01*
X343102Y87634D01*
X343003Y87665D01*
X342984Y87664D01*
X342964Y87669D01*
X342861Y87661D01*
X342758Y87659D01*
X342739Y87652D01*
X342719Y87650D01*
X342624Y87610D01*
X342527Y87574D01*
X342511Y87562D01*
X342493Y87554D01*
X342362Y87449D01*
X335303Y80390D01*
X325097Y80390D01*
X317880Y87607D01*
X317880Y97813D01*
X325097Y105030D01*
X335303Y105030D01*
X336397Y103936D01*
X336413Y103924D01*
X336426Y103909D01*
X336513Y103853D01*
X336597Y103792D01*
X336616Y103786D01*
X336632Y103776D01*
X336733Y103750D01*
X336832Y103720D01*
X336852Y103720D01*
X336871Y103716D01*
X336974Y103724D01*
X337078Y103726D01*
X337096Y103733D01*
X337116Y103735D01*
X337211Y103775D01*
X337309Y103811D01*
X337324Y103823D01*
X337342Y103831D01*
X337473Y103936D01*
X363344Y129806D01*
X363365Y129809D01*
X363456Y129817D01*
X363485Y129829D01*
X363517Y129834D01*
X363598Y129877D01*
X363682Y129913D01*
X363714Y129939D01*
X363735Y129950D01*
X363757Y129973D01*
X363813Y130018D01*
X366102Y132307D01*
X370498Y132307D01*
X373607Y129198D01*
X373607Y124802D01*
X370498Y121693D01*
X366102Y121693D01*
X365157Y122638D01*
X365141Y122650D01*
X365128Y122665D01*
X365041Y122721D01*
X364957Y122782D01*
X364938Y122787D01*
X364921Y122798D01*
X364821Y122824D01*
X364722Y122854D01*
X364702Y122853D01*
X364683Y122858D01*
X364580Y122850D01*
X364476Y122848D01*
X364458Y122841D01*
X364438Y122839D01*
X364343Y122799D01*
X364245Y122763D01*
X364230Y122751D01*
X364211Y122743D01*
X364080Y122638D01*
X341426Y99983D01*
X341414Y99967D01*
X341399Y99955D01*
X341343Y99868D01*
X341282Y99784D01*
X341276Y99765D01*
X341266Y99748D01*
X341240Y99647D01*
X341210Y99549D01*
X341210Y99529D01*
X341206Y99509D01*
X341214Y99406D01*
X341216Y99303D01*
X341223Y99284D01*
X341225Y99264D01*
X341265Y99169D01*
X341301Y99072D01*
X341313Y99056D01*
X341321Y99038D01*
X341426Y98907D01*
X342362Y97971D01*
X342378Y97959D01*
X342390Y97944D01*
X342477Y97888D01*
X342561Y97827D01*
X342581Y97822D01*
X342597Y97811D01*
X342698Y97786D01*
X342797Y97755D01*
X342816Y97756D01*
X342836Y97751D01*
X342939Y97759D01*
X343042Y97761D01*
X343061Y97768D01*
X343081Y97770D01*
X343176Y97810D01*
X343273Y97846D01*
X343289Y97858D01*
X343307Y97866D01*
X343438Y97971D01*
X350497Y105030D01*
X360703Y105030D01*
X367762Y97971D01*
X367778Y97959D01*
X367790Y97944D01*
X367878Y97888D01*
X367961Y97827D01*
X367980Y97822D01*
X367997Y97811D01*
X368098Y97786D01*
X368197Y97755D01*
X368216Y97756D01*
X368236Y97751D01*
X368339Y97759D01*
X368442Y97761D01*
X368461Y97768D01*
X368481Y97770D01*
X368576Y97810D01*
X368673Y97846D01*
X368689Y97858D01*
X368707Y97866D01*
X368838Y97971D01*
X375897Y105030D01*
X386103Y105030D01*
X393162Y97971D01*
X393178Y97959D01*
X393190Y97944D01*
X393278Y97888D01*
X393361Y97827D01*
X393380Y97822D01*
X393397Y97811D01*
X393498Y97786D01*
X393597Y97755D01*
X393616Y97756D01*
X393636Y97751D01*
X393739Y97759D01*
X393842Y97761D01*
X393861Y97768D01*
X393881Y97770D01*
X393976Y97810D01*
X394073Y97846D01*
X394089Y97858D01*
X394107Y97866D01*
X394238Y97971D01*
X401297Y105030D01*
X409880Y105030D01*
X409951Y105041D01*
X410023Y105043D01*
X410072Y105061D01*
X410123Y105069D01*
X410186Y105103D01*
X410254Y105128D01*
X410294Y105160D01*
X410340Y105185D01*
X410390Y105237D01*
X410446Y105281D01*
X410474Y105325D01*
X410510Y105363D01*
X410540Y105428D01*
X410579Y105488D01*
X410591Y105539D01*
X410613Y105586D01*
X410621Y105657D01*
X410639Y105727D01*
X410635Y105779D01*
X410640Y105830D01*
X410625Y105901D01*
X410620Y105972D01*
X410599Y106020D01*
X410588Y106071D01*
X410551Y106132D01*
X410523Y106198D01*
X410478Y106254D01*
X410462Y106282D01*
X410444Y106297D01*
X410418Y106329D01*
X392765Y123982D01*
X392691Y124035D01*
X392622Y124095D01*
X392592Y124107D01*
X392566Y124126D01*
X392479Y124153D01*
X392394Y124187D01*
X392353Y124191D01*
X392331Y124198D01*
X392298Y124197D01*
X392227Y124205D01*
X386025Y124205D01*
X385935Y124191D01*
X385844Y124183D01*
X385815Y124171D01*
X385783Y124166D01*
X385702Y124123D01*
X385618Y124087D01*
X385586Y124061D01*
X385565Y124050D01*
X385543Y124027D01*
X385487Y123982D01*
X383198Y121693D01*
X378802Y121693D01*
X375693Y124802D01*
X375693Y129198D01*
X378802Y132307D01*
X383198Y132307D01*
X385487Y130018D01*
X385561Y129965D01*
X385631Y129905D01*
X385661Y129893D01*
X385687Y129874D01*
X385774Y129847D01*
X385859Y129813D01*
X385900Y129809D01*
X385922Y129802D01*
X385954Y129803D01*
X386025Y129795D01*
X394858Y129795D01*
X420924Y103729D01*
X420998Y103676D01*
X421067Y103616D01*
X421097Y103604D01*
X421123Y103585D01*
X421210Y103558D01*
X421295Y103524D01*
X421336Y103520D01*
X421358Y103513D01*
X421391Y103514D01*
X421462Y103506D01*
X429438Y103506D01*
X429528Y103520D01*
X429619Y103528D01*
X429649Y103540D01*
X429681Y103545D01*
X429761Y103588D01*
X429845Y103624D01*
X429877Y103650D01*
X429898Y103661D01*
X429920Y103684D01*
X429976Y103729D01*
X438970Y112723D01*
X439023Y112797D01*
X439083Y112866D01*
X439095Y112896D01*
X439114Y112922D01*
X439141Y113009D01*
X439175Y113094D01*
X439179Y113135D01*
X439186Y113157D01*
X439185Y113190D01*
X439193Y113261D01*
X439193Y116498D01*
X442302Y119607D01*
X446698Y119607D01*
X449807Y116498D01*
X449807Y112102D01*
X446698Y108993D01*
X443461Y108993D01*
X443371Y108979D01*
X443280Y108971D01*
X443250Y108959D01*
X443218Y108954D01*
X443138Y108911D01*
X443054Y108875D01*
X443022Y108849D01*
X443001Y108838D01*
X442979Y108815D01*
X442923Y108770D01*
X432069Y97916D01*
X423545Y97916D01*
X423525Y97913D01*
X423506Y97915D01*
X423404Y97893D01*
X423302Y97877D01*
X423285Y97867D01*
X423265Y97863D01*
X423176Y97810D01*
X423085Y97761D01*
X423071Y97747D01*
X423054Y97737D01*
X422987Y97658D01*
X422915Y97583D01*
X422907Y97565D01*
X422894Y97550D01*
X422855Y97454D01*
X422812Y97360D01*
X422810Y97340D01*
X422802Y97322D01*
X422784Y97155D01*
X422784Y80336D01*
X422798Y80246D01*
X422806Y80155D01*
X422818Y80126D01*
X422823Y80094D01*
X422866Y80013D01*
X422902Y79929D01*
X422928Y79897D01*
X422939Y79876D01*
X422962Y79854D01*
X423007Y79798D01*
X424407Y78398D01*
X424407Y74002D01*
X421298Y70893D01*
X416902Y70893D01*
X413793Y74002D01*
X413793Y78398D01*
X416971Y81576D01*
X417024Y81650D01*
X417084Y81720D01*
X417096Y81750D01*
X417115Y81776D01*
X417142Y81863D01*
X417176Y81948D01*
X417180Y81989D01*
X417187Y82011D01*
X417186Y82043D01*
X417194Y82114D01*
X417194Y84244D01*
X417183Y84314D01*
X417181Y84386D01*
X417163Y84435D01*
X417155Y84486D01*
X417121Y84550D01*
X417096Y84617D01*
X417064Y84658D01*
X417039Y84704D01*
X416987Y84753D01*
X416943Y84809D01*
X416899Y84837D01*
X416861Y84873D01*
X416796Y84903D01*
X416736Y84942D01*
X416685Y84955D01*
X416638Y84977D01*
X416567Y84985D01*
X416497Y85002D01*
X416445Y84998D01*
X416394Y85004D01*
X416323Y84989D01*
X416252Y84983D01*
X416204Y84963D01*
X416153Y84952D01*
X416092Y84915D01*
X416026Y84887D01*
X415970Y84842D01*
X415942Y84826D01*
X415927Y84808D01*
X415895Y84782D01*
X411503Y80390D01*
X409956Y80390D01*
X409936Y80387D01*
X409917Y80389D01*
X409815Y80367D01*
X409713Y80351D01*
X409696Y80341D01*
X409676Y80337D01*
X409587Y80284D01*
X409496Y80235D01*
X409482Y80221D01*
X409465Y80211D01*
X409398Y80132D01*
X409326Y80057D01*
X409318Y80039D01*
X409305Y80024D01*
X409266Y79928D01*
X409223Y79834D01*
X409221Y79814D01*
X409213Y79796D01*
X409195Y79629D01*
X409195Y39573D01*
X409209Y39483D01*
X409217Y39392D01*
X409229Y39362D01*
X409234Y39330D01*
X409277Y39250D01*
X409313Y39166D01*
X409339Y39134D01*
X409350Y39113D01*
X409373Y39091D01*
X409418Y39035D01*
X418313Y30140D01*
X418387Y30087D01*
X418456Y30027D01*
X418486Y30015D01*
X418512Y29996D01*
X418599Y29969D01*
X418684Y29935D01*
X418725Y29931D01*
X418747Y29924D01*
X418780Y29925D01*
X418851Y29917D01*
X503439Y29917D01*
X503509Y29928D01*
X503581Y29930D01*
X503630Y29948D01*
X503681Y29956D01*
X503745Y29990D01*
X503812Y30015D01*
X503853Y30047D01*
X503899Y30072D01*
X503948Y30124D01*
X504004Y30168D01*
X504032Y30212D01*
X504068Y30250D01*
X504098Y30315D01*
X504137Y30375D01*
X504150Y30426D01*
X504172Y30473D01*
X504180Y30544D01*
X504197Y30614D01*
X504193Y30666D01*
X504199Y30717D01*
X504184Y30788D01*
X504178Y30859D01*
X504158Y30907D01*
X504147Y30958D01*
X504110Y31019D01*
X504082Y31085D01*
X504037Y31141D01*
X504021Y31169D01*
X504003Y31184D01*
X503977Y31216D01*
X502467Y32726D01*
X502467Y37122D01*
X505576Y40231D01*
X508813Y40231D01*
X508903Y40246D01*
X508994Y40253D01*
X509024Y40265D01*
X509056Y40271D01*
X509136Y40313D01*
X509220Y40349D01*
X509252Y40375D01*
X509273Y40386D01*
X509295Y40409D01*
X509351Y40454D01*
X545578Y76681D01*
X556332Y76681D01*
X558192Y74821D01*
X565580Y67432D01*
X565597Y67420D01*
X565609Y67405D01*
X565696Y67349D01*
X565780Y67288D01*
X565799Y67282D01*
X565816Y67272D01*
X565916Y67246D01*
X566015Y67216D01*
X566035Y67216D01*
X566054Y67212D01*
X566157Y67220D01*
X566261Y67222D01*
X566280Y67229D01*
X566300Y67231D01*
X566395Y67271D01*
X566492Y67307D01*
X566508Y67319D01*
X566526Y67327D01*
X566657Y67432D01*
X568032Y68807D01*
X572428Y68807D01*
X575537Y65698D01*
X575537Y62461D01*
X575551Y62371D01*
X575559Y62280D01*
X575571Y62250D01*
X575576Y62218D01*
X575619Y62138D01*
X575655Y62054D01*
X575681Y62022D01*
X575692Y62001D01*
X575715Y61979D01*
X575760Y61923D01*
X580153Y57529D01*
X580169Y57518D01*
X580182Y57502D01*
X580269Y57446D01*
X580353Y57386D01*
X580372Y57380D01*
X580389Y57369D01*
X580489Y57344D01*
X580588Y57313D01*
X580608Y57314D01*
X580627Y57309D01*
X580730Y57317D01*
X580834Y57320D01*
X580852Y57327D01*
X580872Y57328D01*
X580967Y57369D01*
X581065Y57404D01*
X581080Y57417D01*
X581099Y57425D01*
X581230Y57529D01*
X581359Y57659D01*
X612441Y57659D01*
X616282Y53818D01*
X616356Y53765D01*
X616425Y53705D01*
X616456Y53693D01*
X616482Y53674D01*
X616569Y53647D01*
X616654Y53613D01*
X616695Y53609D01*
X616717Y53602D01*
X616749Y53603D01*
X616820Y53595D01*
X736655Y53595D01*
X736745Y53609D01*
X736836Y53617D01*
X736865Y53629D01*
X736897Y53634D01*
X736978Y53677D01*
X737062Y53713D01*
X737094Y53739D01*
X737115Y53750D01*
X737137Y53773D01*
X737193Y53818D01*
X739482Y56107D01*
X743878Y56107D01*
X746987Y52998D01*
X746987Y48602D01*
X743878Y45493D01*
X739482Y45493D01*
X737193Y47782D01*
X737119Y47835D01*
X737049Y47895D01*
X737019Y47907D01*
X736993Y47926D01*
X736906Y47953D01*
X736821Y47987D01*
X736780Y47991D01*
X736758Y47998D01*
X736726Y47997D01*
X736655Y48005D01*
X614190Y48005D01*
X610349Y51846D01*
X610275Y51899D01*
X610205Y51959D01*
X610175Y51971D01*
X610149Y51990D01*
X610062Y52017D01*
X609977Y52051D01*
X609936Y52055D01*
X609914Y52062D01*
X609882Y52061D01*
X609810Y52069D01*
X583990Y52069D01*
X583899Y52055D01*
X583809Y52047D01*
X583779Y52035D01*
X583747Y52030D01*
X583666Y51987D01*
X583582Y51951D01*
X583550Y51925D01*
X583529Y51914D01*
X583507Y51891D01*
X583451Y51846D01*
X581849Y50244D01*
X579534Y50244D01*
X571807Y57970D01*
X571733Y58023D01*
X571664Y58083D01*
X571634Y58095D01*
X571608Y58114D01*
X571521Y58141D01*
X571436Y58175D01*
X571395Y58179D01*
X571373Y58186D01*
X571340Y58185D01*
X571269Y58193D01*
X568032Y58193D01*
X565743Y60482D01*
X565669Y60535D01*
X565599Y60595D01*
X565569Y60607D01*
X565543Y60626D01*
X565456Y60653D01*
X565371Y60687D01*
X565330Y60691D01*
X565308Y60698D01*
X565276Y60697D01*
X565205Y60705D01*
X564402Y60705D01*
X559056Y66051D01*
X558998Y66093D01*
X558946Y66142D01*
X558899Y66164D01*
X558857Y66195D01*
X558788Y66216D01*
X558723Y66246D01*
X558671Y66252D01*
X558621Y66267D01*
X558550Y66265D01*
X558479Y66273D01*
X558428Y66262D01*
X558376Y66261D01*
X558308Y66236D01*
X558238Y66221D01*
X558193Y66194D01*
X558145Y66176D01*
X558089Y66131D01*
X558027Y66095D01*
X557993Y66055D01*
X557953Y66023D01*
X557914Y65962D01*
X557867Y65908D01*
X557848Y65860D01*
X557820Y65816D01*
X557802Y65746D01*
X557775Y65680D01*
X557767Y65608D01*
X557759Y65577D01*
X557761Y65554D01*
X557757Y65513D01*
X557757Y65112D01*
X554571Y61926D01*
X554518Y61852D01*
X554458Y61783D01*
X554446Y61752D01*
X554427Y61726D01*
X554400Y61639D01*
X554366Y61554D01*
X554362Y61513D01*
X554355Y61491D01*
X554356Y61459D01*
X554348Y61388D01*
X554348Y44769D01*
X554363Y44678D01*
X554370Y44588D01*
X554382Y44558D01*
X554388Y44526D01*
X554430Y44445D01*
X554466Y44361D01*
X554492Y44329D01*
X554503Y44308D01*
X554526Y44286D01*
X554571Y44230D01*
X556860Y41941D01*
X556860Y37545D01*
X553751Y34436D01*
X549355Y34436D01*
X546246Y37545D01*
X546246Y41941D01*
X548535Y44230D01*
X548589Y44304D01*
X548648Y44374D01*
X548660Y44404D01*
X548679Y44430D01*
X548706Y44517D01*
X548740Y44602D01*
X548744Y44643D01*
X548751Y44665D01*
X548750Y44697D01*
X548758Y44769D01*
X548758Y63181D01*
X548744Y63272D01*
X548737Y63362D01*
X548724Y63392D01*
X548719Y63424D01*
X548676Y63505D01*
X548640Y63589D01*
X548615Y63621D01*
X548604Y63642D01*
X548580Y63664D01*
X548535Y63720D01*
X547143Y65112D01*
X547143Y68503D01*
X547132Y68574D01*
X547130Y68646D01*
X547112Y68695D01*
X547104Y68746D01*
X547070Y68809D01*
X547045Y68877D01*
X547013Y68917D01*
X546988Y68963D01*
X546936Y69013D01*
X546892Y69069D01*
X546848Y69097D01*
X546810Y69133D01*
X546745Y69163D01*
X546685Y69202D01*
X546634Y69214D01*
X546587Y69236D01*
X546516Y69244D01*
X546446Y69262D01*
X546394Y69258D01*
X546343Y69263D01*
X546272Y69248D01*
X546201Y69243D01*
X546153Y69222D01*
X546102Y69211D01*
X546041Y69174D01*
X545975Y69146D01*
X545919Y69102D01*
X545891Y69085D01*
X545876Y69067D01*
X545844Y69042D01*
X513304Y36501D01*
X513251Y36428D01*
X513191Y36358D01*
X513179Y36328D01*
X513160Y36302D01*
X513133Y36215D01*
X513099Y36130D01*
X513095Y36089D01*
X513088Y36067D01*
X513089Y36034D01*
X513081Y35963D01*
X513081Y32726D01*
X511571Y31216D01*
X511529Y31158D01*
X511480Y31106D01*
X511458Y31059D01*
X511427Y31017D01*
X511406Y30948D01*
X511376Y30883D01*
X511370Y30831D01*
X511355Y30781D01*
X511357Y30710D01*
X511349Y30639D01*
X511360Y30588D01*
X511361Y30536D01*
X511386Y30468D01*
X511401Y30398D01*
X511428Y30353D01*
X511446Y30305D01*
X511491Y30249D01*
X511527Y30187D01*
X511567Y30153D01*
X511600Y30113D01*
X511660Y30074D01*
X511714Y30027D01*
X511763Y30008D01*
X511807Y29980D01*
X511876Y29962D01*
X511943Y29935D01*
X512014Y29927D01*
X512045Y29919D01*
X512068Y29921D01*
X512109Y29917D01*
X606297Y29917D01*
X606387Y29931D01*
X606478Y29939D01*
X606507Y29951D01*
X606539Y29956D01*
X606620Y29999D01*
X606704Y30035D01*
X606736Y30061D01*
X606757Y30072D01*
X606779Y30095D01*
X606835Y30140D01*
X607402Y30707D01*
X611798Y30707D01*
X614907Y27598D01*
X614907Y23202D01*
X611798Y20093D01*
X607402Y20093D01*
X604293Y23202D01*
X604293Y23566D01*
X604290Y23586D01*
X604292Y23605D01*
X604270Y23707D01*
X604254Y23809D01*
X604244Y23826D01*
X604240Y23846D01*
X604187Y23935D01*
X604138Y24026D01*
X604124Y24040D01*
X604114Y24057D01*
X604035Y24124D01*
X603960Y24196D01*
X603942Y24204D01*
X603927Y24217D01*
X603831Y24256D01*
X603737Y24299D01*
X603717Y24301D01*
X603699Y24309D01*
X603532Y24327D01*
X416220Y24327D01*
X403605Y36942D01*
X403605Y79629D01*
X403602Y79649D01*
X403604Y79668D01*
X403582Y79770D01*
X403566Y79872D01*
X403556Y79889D01*
X403552Y79909D01*
X403499Y79998D01*
X403450Y80089D01*
X403436Y80103D01*
X403426Y80120D01*
X403347Y80187D01*
X403272Y80259D01*
X403254Y80267D01*
X403239Y80280D01*
X403143Y80319D01*
X403049Y80362D01*
X403029Y80364D01*
X403011Y80372D01*
X402844Y80390D01*
X401297Y80390D01*
X394238Y87449D01*
X394222Y87461D01*
X394210Y87476D01*
X394122Y87532D01*
X394039Y87593D01*
X394020Y87598D01*
X394003Y87609D01*
X393902Y87634D01*
X393803Y87665D01*
X393784Y87664D01*
X393764Y87669D01*
X393661Y87661D01*
X393558Y87659D01*
X393539Y87652D01*
X393519Y87650D01*
X393424Y87610D01*
X393327Y87574D01*
X393311Y87562D01*
X393293Y87554D01*
X393162Y87449D01*
X387230Y81517D01*
X387218Y81501D01*
X387203Y81488D01*
X387146Y81401D01*
X387086Y81317D01*
X387080Y81298D01*
X387070Y81281D01*
X387044Y81181D01*
X387014Y81082D01*
X387014Y81062D01*
X387009Y81043D01*
X387017Y80940D01*
X387020Y80836D01*
X387027Y80817D01*
X387029Y80798D01*
X387069Y80703D01*
X387105Y80605D01*
X387117Y80590D01*
X387125Y80571D01*
X387203Y80474D01*
X387207Y80467D01*
X387212Y80463D01*
X387230Y80440D01*
X401194Y66476D01*
X401194Y34874D01*
X401208Y34784D01*
X401216Y34693D01*
X401228Y34663D01*
X401233Y34631D01*
X401276Y34551D01*
X401312Y34467D01*
X401338Y34435D01*
X401349Y34414D01*
X401372Y34392D01*
X401417Y34336D01*
X419527Y16226D01*
X419601Y16173D01*
X419670Y16113D01*
X419700Y16101D01*
X419726Y16082D01*
X419813Y16055D01*
X419898Y16021D01*
X419939Y16017D01*
X419961Y16010D01*
X419994Y16011D01*
X420065Y16003D01*
X748871Y16003D01*
X748961Y16017D01*
X749052Y16025D01*
X749082Y16037D01*
X749114Y16042D01*
X749195Y16085D01*
X749278Y16121D01*
X749311Y16147D01*
X749331Y16158D01*
X749353Y16181D01*
X749409Y16226D01*
X769706Y36523D01*
X769759Y36597D01*
X769819Y36666D01*
X769831Y36696D01*
X769850Y36722D01*
X769877Y36809D01*
X769911Y36894D01*
X769915Y36935D01*
X769922Y36957D01*
X769921Y36990D01*
X769929Y37061D01*
X769929Y40298D01*
X773038Y43407D01*
X777434Y43407D01*
X780543Y40298D01*
X780543Y35902D01*
X777434Y32793D01*
X774197Y32793D01*
X774107Y32779D01*
X774016Y32771D01*
X773986Y32759D01*
X773954Y32754D01*
X773874Y32711D01*
X773790Y32675D01*
X773758Y32649D01*
X773737Y32638D01*
X773715Y32615D01*
X773659Y32570D01*
X753362Y12273D01*
X753311Y12222D01*
X753269Y12164D01*
X753219Y12112D01*
X753197Y12065D01*
X753167Y12023D01*
X753146Y11954D01*
X753116Y11889D01*
X753110Y11837D01*
X753095Y11788D01*
X753097Y11716D01*
X753089Y11645D01*
X753100Y11594D01*
X753101Y11542D01*
X753126Y11474D01*
X753141Y11404D01*
X753168Y11360D01*
X753185Y11311D01*
X753230Y11255D01*
X753267Y11193D01*
X753307Y11159D01*
X753339Y11119D01*
X753399Y11080D01*
X753454Y11033D01*
X753502Y11014D01*
X753546Y10986D01*
X753616Y10968D01*
X753682Y10941D01*
X753753Y10933D01*
X753784Y10925D01*
X753808Y10927D01*
X753849Y10923D01*
X800100Y10923D01*
X800122Y10926D01*
G37*
%LPC*%
G36*
X137502Y477293D02*
X137502Y477293D01*
X134393Y480402D01*
X134393Y484798D01*
X137502Y487907D01*
X141898Y487907D01*
X144187Y485618D01*
X144261Y485565D01*
X144331Y485505D01*
X144361Y485493D01*
X144387Y485474D01*
X144474Y485447D01*
X144559Y485413D01*
X144600Y485409D01*
X144622Y485402D01*
X144654Y485403D01*
X144725Y485395D01*
X363275Y485395D01*
X363365Y485409D01*
X363456Y485417D01*
X363485Y485429D01*
X363517Y485434D01*
X363598Y485477D01*
X363682Y485513D01*
X363714Y485539D01*
X363735Y485550D01*
X363757Y485573D01*
X363813Y485618D01*
X366102Y487907D01*
X370498Y487907D01*
X372787Y485618D01*
X372861Y485565D01*
X372931Y485505D01*
X372961Y485493D01*
X372987Y485474D01*
X373074Y485447D01*
X373159Y485413D01*
X373200Y485409D01*
X373222Y485402D01*
X373254Y485403D01*
X373325Y485395D01*
X591875Y485395D01*
X591965Y485409D01*
X592056Y485417D01*
X592085Y485429D01*
X592117Y485434D01*
X592198Y485477D01*
X592282Y485513D01*
X592314Y485539D01*
X592335Y485550D01*
X592357Y485573D01*
X592413Y485618D01*
X594702Y487907D01*
X599098Y487907D01*
X601387Y485618D01*
X601461Y485565D01*
X601531Y485505D01*
X601561Y485493D01*
X601587Y485474D01*
X601674Y485447D01*
X601759Y485413D01*
X601800Y485409D01*
X601822Y485402D01*
X601854Y485403D01*
X601925Y485395D01*
X820475Y485395D01*
X820565Y485409D01*
X820656Y485417D01*
X820685Y485429D01*
X820717Y485434D01*
X820798Y485477D01*
X820882Y485513D01*
X820914Y485539D01*
X820935Y485550D01*
X820957Y485573D01*
X821013Y485618D01*
X823302Y487907D01*
X827698Y487907D01*
X830807Y484798D01*
X830807Y480402D01*
X827698Y477293D01*
X823302Y477293D01*
X821013Y479582D01*
X820939Y479635D01*
X820869Y479695D01*
X820839Y479707D01*
X820813Y479726D01*
X820726Y479753D01*
X820641Y479787D01*
X820600Y479791D01*
X820578Y479798D01*
X820546Y479797D01*
X820475Y479805D01*
X601925Y479805D01*
X601835Y479791D01*
X601744Y479783D01*
X601715Y479771D01*
X601683Y479766D01*
X601602Y479723D01*
X601518Y479687D01*
X601486Y479661D01*
X601465Y479650D01*
X601443Y479627D01*
X601387Y479582D01*
X599098Y477293D01*
X594702Y477293D01*
X592413Y479582D01*
X592339Y479635D01*
X592269Y479695D01*
X592239Y479707D01*
X592213Y479726D01*
X592126Y479753D01*
X592041Y479787D01*
X592000Y479791D01*
X591978Y479798D01*
X591946Y479797D01*
X591875Y479805D01*
X373325Y479805D01*
X373235Y479791D01*
X373144Y479783D01*
X373115Y479771D01*
X373083Y479766D01*
X373002Y479723D01*
X372918Y479687D01*
X372886Y479661D01*
X372865Y479650D01*
X372843Y479627D01*
X372787Y479582D01*
X370498Y477293D01*
X366102Y477293D01*
X363813Y479582D01*
X363739Y479635D01*
X363669Y479695D01*
X363639Y479707D01*
X363613Y479726D01*
X363526Y479753D01*
X363441Y479787D01*
X363400Y479791D01*
X363378Y479798D01*
X363346Y479797D01*
X363275Y479805D01*
X144725Y479805D01*
X144635Y479791D01*
X144544Y479783D01*
X144515Y479771D01*
X144483Y479766D01*
X144402Y479723D01*
X144318Y479687D01*
X144286Y479661D01*
X144265Y479650D01*
X144243Y479627D01*
X144187Y479582D01*
X141898Y477293D01*
X137502Y477293D01*
G37*
%LPD*%
G36*
X415158Y10934D02*
X415158Y10934D01*
X415230Y10936D01*
X415279Y10954D01*
X415330Y10962D01*
X415393Y10996D01*
X415461Y11021D01*
X415501Y11053D01*
X415547Y11078D01*
X415597Y11130D01*
X415653Y11175D01*
X415681Y11218D01*
X415717Y11256D01*
X415747Y11321D01*
X415786Y11381D01*
X415798Y11432D01*
X415820Y11479D01*
X415828Y11550D01*
X415846Y11620D01*
X415842Y11672D01*
X415847Y11723D01*
X415832Y11794D01*
X415826Y11865D01*
X415806Y11913D01*
X415795Y11964D01*
X415758Y12025D01*
X415730Y12092D01*
X415685Y12147D01*
X415669Y12175D01*
X415651Y12190D01*
X415625Y12222D01*
X415574Y12273D01*
X397464Y30383D01*
X395604Y32243D01*
X395604Y63846D01*
X395590Y63936D01*
X395582Y64027D01*
X395570Y64057D01*
X395565Y64089D01*
X395522Y64169D01*
X395486Y64253D01*
X395460Y64285D01*
X395449Y64306D01*
X395426Y64328D01*
X395381Y64384D01*
X394619Y65146D01*
X394561Y65188D01*
X394509Y65237D01*
X394462Y65259D01*
X394420Y65290D01*
X394351Y65311D01*
X394286Y65341D01*
X394234Y65347D01*
X394184Y65362D01*
X394113Y65360D01*
X394042Y65368D01*
X393991Y65357D01*
X393939Y65356D01*
X393871Y65331D01*
X393801Y65316D01*
X393756Y65289D01*
X393708Y65271D01*
X393652Y65226D01*
X393590Y65190D01*
X393556Y65150D01*
X393516Y65118D01*
X393477Y65057D01*
X393430Y65003D01*
X393411Y64954D01*
X393383Y64911D01*
X393365Y64841D01*
X393338Y64775D01*
X393330Y64703D01*
X393322Y64672D01*
X393324Y64649D01*
X393320Y64608D01*
X393320Y58397D01*
X386103Y51180D01*
X375897Y51180D01*
X368838Y58239D01*
X368822Y58251D01*
X368810Y58266D01*
X368722Y58322D01*
X368639Y58383D01*
X368620Y58388D01*
X368603Y58399D01*
X368502Y58424D01*
X368403Y58455D01*
X368384Y58454D01*
X368364Y58459D01*
X368261Y58451D01*
X368158Y58449D01*
X368139Y58442D01*
X368119Y58440D01*
X368024Y58400D01*
X367927Y58364D01*
X367911Y58352D01*
X367893Y58344D01*
X367762Y58239D01*
X360703Y51180D01*
X350497Y51180D01*
X344157Y57521D01*
X344141Y57532D01*
X344128Y57548D01*
X344041Y57604D01*
X343957Y57664D01*
X343938Y57670D01*
X343921Y57681D01*
X343821Y57706D01*
X343722Y57736D01*
X343702Y57736D01*
X343683Y57741D01*
X343580Y57733D01*
X343476Y57730D01*
X343457Y57723D01*
X343437Y57722D01*
X343343Y57681D01*
X343245Y57646D01*
X343229Y57633D01*
X343211Y57625D01*
X343080Y57521D01*
X335724Y50164D01*
X331723Y50164D01*
X331723Y62738D01*
X331720Y62758D01*
X331722Y62777D01*
X331700Y62879D01*
X331683Y62981D01*
X331674Y62998D01*
X331670Y63018D01*
X331617Y63107D01*
X331568Y63198D01*
X331554Y63212D01*
X331544Y63229D01*
X331465Y63296D01*
X331390Y63367D01*
X331372Y63376D01*
X331357Y63389D01*
X331261Y63427D01*
X331167Y63471D01*
X331147Y63473D01*
X331129Y63481D01*
X330962Y63499D01*
X329438Y63499D01*
X329418Y63496D01*
X329399Y63498D01*
X329297Y63476D01*
X329195Y63459D01*
X329178Y63450D01*
X329158Y63446D01*
X329069Y63393D01*
X328978Y63344D01*
X328964Y63330D01*
X328947Y63320D01*
X328880Y63241D01*
X328809Y63166D01*
X328800Y63148D01*
X328787Y63133D01*
X328748Y63037D01*
X328705Y62943D01*
X328703Y62923D01*
X328695Y62905D01*
X328677Y62738D01*
X328677Y50164D01*
X324676Y50164D01*
X317022Y57818D01*
X316964Y57860D01*
X316912Y57909D01*
X316865Y57931D01*
X316823Y57962D01*
X316754Y57983D01*
X316689Y58013D01*
X316637Y58019D01*
X316587Y58034D01*
X316516Y58032D01*
X316445Y58040D01*
X316394Y58029D01*
X316342Y58028D01*
X316274Y58003D01*
X316204Y57988D01*
X316159Y57961D01*
X316111Y57943D01*
X316055Y57898D01*
X315993Y57862D01*
X315959Y57822D01*
X315919Y57790D01*
X315880Y57729D01*
X315833Y57675D01*
X315814Y57626D01*
X315786Y57583D01*
X315768Y57513D01*
X315741Y57447D01*
X315733Y57375D01*
X315725Y57344D01*
X315727Y57321D01*
X315723Y57280D01*
X315723Y12700D01*
X315726Y12678D01*
X315725Y12640D01*
X315738Y12481D01*
X315739Y12476D01*
X315739Y12470D01*
X315773Y12306D01*
X315871Y12003D01*
X315887Y11972D01*
X315896Y11937D01*
X315979Y11791D01*
X316166Y11534D01*
X316191Y11509D01*
X316210Y11479D01*
X316334Y11366D01*
X316591Y11179D01*
X316623Y11163D01*
X316651Y11140D01*
X316803Y11071D01*
X317106Y10973D01*
X317111Y10972D01*
X317117Y10969D01*
X317281Y10938D01*
X317440Y10925D01*
X317462Y10927D01*
X317500Y10923D01*
X415087Y10923D01*
X415158Y10934D01*
G37*
%LPC*%
G36*
X467702Y96293D02*
X467702Y96293D01*
X464593Y99402D01*
X464593Y103798D01*
X466882Y106087D01*
X466935Y106161D01*
X466995Y106231D01*
X467007Y106261D01*
X467026Y106287D01*
X467053Y106374D01*
X467087Y106459D01*
X467091Y106500D01*
X467098Y106522D01*
X467097Y106554D01*
X467105Y106625D01*
X467105Y189027D01*
X467091Y189117D01*
X467083Y189208D01*
X467071Y189238D01*
X467066Y189270D01*
X467023Y189350D01*
X466987Y189434D01*
X466961Y189466D01*
X466950Y189487D01*
X466927Y189509D01*
X466882Y189565D01*
X405465Y250982D01*
X405391Y251035D01*
X405322Y251095D01*
X405292Y251107D01*
X405266Y251126D01*
X405179Y251153D01*
X405094Y251187D01*
X405053Y251191D01*
X405031Y251198D01*
X404998Y251197D01*
X404927Y251205D01*
X170125Y251205D01*
X170035Y251191D01*
X169944Y251183D01*
X169915Y251171D01*
X169883Y251166D01*
X169802Y251123D01*
X169718Y251087D01*
X169686Y251061D01*
X169665Y251050D01*
X169643Y251027D01*
X169587Y250982D01*
X167298Y248693D01*
X162902Y248693D01*
X159793Y251802D01*
X159793Y256198D01*
X162902Y259307D01*
X167298Y259307D01*
X169587Y257018D01*
X169661Y256965D01*
X169731Y256905D01*
X169761Y256893D01*
X169787Y256874D01*
X169874Y256847D01*
X169959Y256813D01*
X170000Y256809D01*
X170022Y256802D01*
X170054Y256803D01*
X170125Y256795D01*
X407558Y256795D01*
X472695Y191658D01*
X472695Y106625D01*
X472709Y106535D01*
X472717Y106444D01*
X472729Y106415D01*
X472734Y106383D01*
X472777Y106302D01*
X472813Y106218D01*
X472839Y106186D01*
X472850Y106165D01*
X472873Y106143D01*
X472918Y106087D01*
X475207Y103798D01*
X475207Y99402D01*
X472098Y96293D01*
X467702Y96293D01*
G37*
%LPD*%
%LPC*%
G36*
X607402Y96293D02*
X607402Y96293D01*
X604293Y99402D01*
X604293Y102639D01*
X604279Y102729D01*
X604271Y102820D01*
X604259Y102850D01*
X604254Y102882D01*
X604211Y102962D01*
X604175Y103046D01*
X604149Y103079D01*
X604138Y103099D01*
X604115Y103121D01*
X604070Y103177D01*
X602541Y104706D01*
X600681Y106566D01*
X600681Y124804D01*
X600667Y124895D01*
X600659Y124985D01*
X600647Y125015D01*
X600642Y125047D01*
X600599Y125128D01*
X600563Y125212D01*
X600537Y125244D01*
X600526Y125265D01*
X600503Y125287D01*
X600458Y125343D01*
X594105Y131696D01*
X594105Y414075D01*
X594091Y414165D01*
X594083Y414256D01*
X594071Y414285D01*
X594066Y414317D01*
X594023Y414398D01*
X593987Y414482D01*
X593961Y414514D01*
X593950Y414535D01*
X593927Y414557D01*
X593882Y414613D01*
X591593Y416902D01*
X591593Y421298D01*
X594702Y424407D01*
X599098Y424407D01*
X602207Y421298D01*
X602207Y416902D01*
X599918Y414613D01*
X599865Y414539D01*
X599805Y414469D01*
X599793Y414439D01*
X599774Y414413D01*
X599747Y414326D01*
X599713Y414241D01*
X599709Y414200D01*
X599702Y414178D01*
X599703Y414146D01*
X599695Y414075D01*
X599695Y134326D01*
X599709Y134236D01*
X599717Y134145D01*
X599729Y134116D01*
X599734Y134084D01*
X599777Y134003D01*
X599813Y133919D01*
X599839Y133887D01*
X599850Y133866D01*
X599873Y133844D01*
X599918Y133788D01*
X606271Y127435D01*
X606271Y109197D01*
X606285Y109107D01*
X606293Y109016D01*
X606305Y108986D01*
X606310Y108954D01*
X606353Y108874D01*
X606389Y108790D01*
X606415Y108757D01*
X606426Y108737D01*
X606449Y108715D01*
X606494Y108659D01*
X608023Y107130D01*
X608097Y107077D01*
X608166Y107017D01*
X608196Y107005D01*
X608222Y106986D01*
X608310Y106959D01*
X608394Y106925D01*
X608435Y106921D01*
X608457Y106914D01*
X608490Y106915D01*
X608561Y106907D01*
X611798Y106907D01*
X614907Y103798D01*
X614907Y99402D01*
X611798Y96293D01*
X607402Y96293D01*
G37*
%LPD*%
%LPC*%
G36*
X499452Y44223D02*
X499452Y44223D01*
X496343Y47332D01*
X496343Y51728D01*
X498632Y54017D01*
X498685Y54091D01*
X498745Y54161D01*
X498757Y54191D01*
X498776Y54217D01*
X498803Y54304D01*
X498837Y54389D01*
X498841Y54430D01*
X498848Y54452D01*
X498847Y54484D01*
X498855Y54555D01*
X498855Y171247D01*
X498841Y171337D01*
X498833Y171428D01*
X498821Y171458D01*
X498816Y171490D01*
X498773Y171570D01*
X498737Y171654D01*
X498711Y171686D01*
X498700Y171707D01*
X498677Y171729D01*
X498632Y171785D01*
X434012Y236405D01*
X433938Y236458D01*
X433869Y236518D01*
X433839Y236530D01*
X433813Y236549D01*
X433726Y236576D01*
X433641Y236610D01*
X433600Y236614D01*
X433578Y236621D01*
X433545Y236620D01*
X433474Y236628D01*
X430237Y236628D01*
X427128Y239737D01*
X427128Y244133D01*
X430237Y247242D01*
X434633Y247242D01*
X437742Y244133D01*
X437742Y240896D01*
X437756Y240806D01*
X437764Y240715D01*
X437776Y240685D01*
X437781Y240653D01*
X437824Y240573D01*
X437860Y240489D01*
X437886Y240457D01*
X437897Y240436D01*
X437920Y240414D01*
X437965Y240358D01*
X504445Y173878D01*
X504445Y54555D01*
X504459Y54465D01*
X504467Y54374D01*
X504479Y54345D01*
X504484Y54313D01*
X504527Y54232D01*
X504563Y54148D01*
X504589Y54116D01*
X504600Y54095D01*
X504623Y54073D01*
X504668Y54017D01*
X506957Y51728D01*
X506957Y47332D01*
X503848Y44223D01*
X499452Y44223D01*
G37*
%LPD*%
%LPC*%
G36*
X871197Y228980D02*
X871197Y228980D01*
X863980Y236197D01*
X863980Y246403D01*
X871197Y253620D01*
X881403Y253620D01*
X888462Y246561D01*
X888478Y246549D01*
X888490Y246534D01*
X888578Y246478D01*
X888661Y246417D01*
X888680Y246412D01*
X888697Y246401D01*
X888798Y246376D01*
X888897Y246345D01*
X888916Y246346D01*
X888936Y246341D01*
X889039Y246349D01*
X889142Y246351D01*
X889161Y246358D01*
X889181Y246360D01*
X889276Y246400D01*
X889373Y246436D01*
X889389Y246448D01*
X889407Y246456D01*
X889538Y246561D01*
X896597Y253620D01*
X906803Y253620D01*
X914020Y246403D01*
X914020Y236197D01*
X906803Y228980D01*
X896597Y228980D01*
X889538Y236039D01*
X889522Y236051D01*
X889510Y236066D01*
X889443Y236109D01*
X889404Y236142D01*
X889382Y236151D01*
X889339Y236183D01*
X889320Y236188D01*
X889303Y236199D01*
X889202Y236224D01*
X889194Y236227D01*
X889176Y236234D01*
X889167Y236235D01*
X889103Y236255D01*
X889084Y236254D01*
X889064Y236259D01*
X888961Y236251D01*
X888858Y236249D01*
X888839Y236242D01*
X888819Y236240D01*
X888760Y236215D01*
X888748Y236213D01*
X888721Y236198D01*
X888627Y236164D01*
X888611Y236152D01*
X888593Y236144D01*
X888545Y236105D01*
X888531Y236098D01*
X888516Y236082D01*
X888462Y236039D01*
X881403Y228980D01*
X871197Y228980D01*
G37*
%LPD*%
%LPC*%
G36*
X32997Y228980D02*
X32997Y228980D01*
X25780Y236197D01*
X25780Y246403D01*
X32997Y253620D01*
X43203Y253620D01*
X50262Y246561D01*
X50278Y246549D01*
X50290Y246534D01*
X50378Y246478D01*
X50461Y246417D01*
X50480Y246412D01*
X50497Y246401D01*
X50598Y246376D01*
X50697Y246345D01*
X50716Y246346D01*
X50736Y246341D01*
X50839Y246349D01*
X50942Y246351D01*
X50961Y246358D01*
X50981Y246360D01*
X51076Y246400D01*
X51173Y246436D01*
X51189Y246448D01*
X51207Y246456D01*
X51338Y246561D01*
X58397Y253620D01*
X68603Y253620D01*
X75820Y246403D01*
X75820Y236197D01*
X68603Y228980D01*
X58397Y228980D01*
X51338Y236039D01*
X51322Y236051D01*
X51310Y236066D01*
X51243Y236109D01*
X51204Y236142D01*
X51182Y236151D01*
X51139Y236183D01*
X51120Y236188D01*
X51103Y236199D01*
X51002Y236224D01*
X50994Y236227D01*
X50976Y236234D01*
X50967Y236235D01*
X50903Y236255D01*
X50884Y236254D01*
X50864Y236259D01*
X50761Y236251D01*
X50658Y236249D01*
X50639Y236242D01*
X50619Y236240D01*
X50560Y236215D01*
X50548Y236213D01*
X50521Y236198D01*
X50427Y236164D01*
X50411Y236152D01*
X50393Y236144D01*
X50345Y236105D01*
X50331Y236098D01*
X50316Y236082D01*
X50262Y236039D01*
X43203Y228980D01*
X32997Y228980D01*
G37*
%LPD*%
%LPC*%
G36*
X709002Y345213D02*
X709002Y345213D01*
X705893Y348322D01*
X705893Y352718D01*
X709002Y355827D01*
X713398Y355827D01*
X715687Y353538D01*
X715761Y353485D01*
X715831Y353425D01*
X715861Y353413D01*
X715887Y353394D01*
X715974Y353367D01*
X716059Y353333D01*
X716100Y353329D01*
X716122Y353322D01*
X716154Y353323D01*
X716225Y353315D01*
X844347Y353315D01*
X844437Y353329D01*
X844528Y353337D01*
X844558Y353349D01*
X844590Y353354D01*
X844670Y353397D01*
X844754Y353433D01*
X844786Y353459D01*
X844807Y353470D01*
X844829Y353493D01*
X844885Y353538D01*
X845370Y354023D01*
X845423Y354097D01*
X845483Y354166D01*
X845495Y354196D01*
X845514Y354222D01*
X845541Y354309D01*
X845575Y354394D01*
X845579Y354435D01*
X845586Y354457D01*
X845585Y354490D01*
X845593Y354561D01*
X845593Y357798D01*
X848702Y360907D01*
X853098Y360907D01*
X856207Y357798D01*
X856207Y353402D01*
X853098Y350293D01*
X849861Y350293D01*
X849771Y350279D01*
X849680Y350271D01*
X849650Y350259D01*
X849618Y350254D01*
X849538Y350211D01*
X849454Y350175D01*
X849422Y350149D01*
X849401Y350138D01*
X849379Y350115D01*
X849323Y350070D01*
X846978Y347725D01*
X716225Y347725D01*
X716135Y347711D01*
X716044Y347703D01*
X716015Y347691D01*
X715983Y347686D01*
X715902Y347643D01*
X715818Y347607D01*
X715786Y347581D01*
X715765Y347570D01*
X715743Y347547D01*
X715687Y347502D01*
X713398Y345213D01*
X709002Y345213D01*
G37*
%LPD*%
%LPC*%
G36*
X874102Y439193D02*
X874102Y439193D01*
X871813Y441482D01*
X871739Y441535D01*
X871669Y441595D01*
X871639Y441607D01*
X871613Y441626D01*
X871526Y441653D01*
X871441Y441687D01*
X871400Y441691D01*
X871378Y441698D01*
X871346Y441697D01*
X871275Y441705D01*
X773542Y441705D01*
X763577Y451670D01*
X763503Y451723D01*
X763434Y451783D01*
X763404Y451795D01*
X763378Y451814D01*
X763291Y451841D01*
X763206Y451875D01*
X763165Y451879D01*
X763143Y451886D01*
X763110Y451885D01*
X763039Y451893D01*
X759802Y451893D01*
X756693Y455002D01*
X756693Y459398D01*
X759802Y462507D01*
X764198Y462507D01*
X767307Y459398D01*
X767307Y456161D01*
X767321Y456071D01*
X767329Y455980D01*
X767341Y455950D01*
X767346Y455918D01*
X767389Y455838D01*
X767425Y455754D01*
X767451Y455722D01*
X767462Y455701D01*
X767485Y455679D01*
X767530Y455623D01*
X775635Y447518D01*
X775709Y447465D01*
X775778Y447405D01*
X775808Y447393D01*
X775834Y447374D01*
X775921Y447347D01*
X776006Y447313D01*
X776047Y447309D01*
X776069Y447302D01*
X776102Y447303D01*
X776173Y447295D01*
X871275Y447295D01*
X871365Y447309D01*
X871456Y447317D01*
X871485Y447329D01*
X871517Y447334D01*
X871598Y447377D01*
X871682Y447413D01*
X871714Y447439D01*
X871735Y447450D01*
X871757Y447473D01*
X871813Y447518D01*
X874102Y449807D01*
X878498Y449807D01*
X881607Y446698D01*
X881607Y442302D01*
X878498Y439193D01*
X874102Y439193D01*
G37*
%LPD*%
%LPC*%
G36*
X924902Y312193D02*
X924902Y312193D01*
X921793Y315302D01*
X921793Y319698D01*
X924902Y322807D01*
X928139Y322807D01*
X928229Y322821D01*
X928320Y322829D01*
X928350Y322841D01*
X928382Y322846D01*
X928462Y322889D01*
X928546Y322925D01*
X928578Y322951D01*
X928599Y322962D01*
X928621Y322985D01*
X928677Y323030D01*
X936782Y331135D01*
X936835Y331209D01*
X936895Y331278D01*
X936907Y331308D01*
X936926Y331334D01*
X936953Y331421D01*
X936987Y331506D01*
X936991Y331547D01*
X936998Y331569D01*
X936997Y331602D01*
X937005Y331673D01*
X937005Y426775D01*
X936991Y426865D01*
X936983Y426956D01*
X936971Y426985D01*
X936966Y427017D01*
X936923Y427098D01*
X936887Y427182D01*
X936861Y427214D01*
X936850Y427235D01*
X936827Y427257D01*
X936782Y427313D01*
X934493Y429602D01*
X934493Y433998D01*
X937602Y437107D01*
X941998Y437107D01*
X945107Y433998D01*
X945107Y429602D01*
X942818Y427313D01*
X942765Y427239D01*
X942705Y427169D01*
X942693Y427139D01*
X942674Y427113D01*
X942647Y427026D01*
X942613Y426941D01*
X942609Y426900D01*
X942602Y426878D01*
X942603Y426846D01*
X942595Y426775D01*
X942595Y329042D01*
X932630Y319077D01*
X932577Y319003D01*
X932517Y318934D01*
X932505Y318904D01*
X932486Y318878D01*
X932459Y318791D01*
X932425Y318706D01*
X932421Y318665D01*
X932414Y318643D01*
X932415Y318610D01*
X932407Y318539D01*
X932407Y315302D01*
X929298Y312193D01*
X924902Y312193D01*
G37*
%LPD*%
%LPC*%
G36*
X759802Y426493D02*
X759802Y426493D01*
X756693Y429602D01*
X756693Y433998D01*
X759802Y437107D01*
X764198Y437107D01*
X766487Y434818D01*
X766561Y434765D01*
X766631Y434705D01*
X766661Y434693D01*
X766687Y434674D01*
X766774Y434647D01*
X766859Y434613D01*
X766900Y434609D01*
X766922Y434602D01*
X766954Y434603D01*
X767025Y434595D01*
X871275Y434595D01*
X871365Y434609D01*
X871456Y434617D01*
X871485Y434629D01*
X871517Y434634D01*
X871598Y434677D01*
X871682Y434713D01*
X871714Y434739D01*
X871735Y434750D01*
X871757Y434773D01*
X871813Y434818D01*
X874102Y437107D01*
X878498Y437107D01*
X881607Y433998D01*
X881607Y429602D01*
X878498Y426493D01*
X874102Y426493D01*
X871813Y428782D01*
X871739Y428835D01*
X871669Y428895D01*
X871639Y428907D01*
X871613Y428926D01*
X871526Y428953D01*
X871441Y428987D01*
X871400Y428991D01*
X871378Y428998D01*
X871346Y428997D01*
X871275Y429005D01*
X767025Y429005D01*
X766935Y428991D01*
X766844Y428983D01*
X766815Y428971D01*
X766783Y428966D01*
X766702Y428923D01*
X766618Y428887D01*
X766586Y428861D01*
X766565Y428850D01*
X766543Y428827D01*
X766487Y428782D01*
X764198Y426493D01*
X759802Y426493D01*
G37*
%LPD*%
%LPC*%
G36*
X959676Y227964D02*
X959676Y227964D01*
X952320Y235321D01*
X952304Y235332D01*
X952291Y235348D01*
X952204Y235404D01*
X952120Y235464D01*
X952101Y235470D01*
X952084Y235481D01*
X951984Y235506D01*
X951885Y235536D01*
X951865Y235536D01*
X951846Y235541D01*
X951743Y235533D01*
X951639Y235530D01*
X951620Y235523D01*
X951601Y235522D01*
X951506Y235481D01*
X951408Y235446D01*
X951393Y235433D01*
X951374Y235425D01*
X951243Y235321D01*
X944903Y228980D01*
X934697Y228980D01*
X927480Y236197D01*
X927480Y246403D01*
X934697Y253620D01*
X944903Y253620D01*
X951243Y247279D01*
X951259Y247268D01*
X951272Y247252D01*
X951359Y247196D01*
X951443Y247136D01*
X951462Y247130D01*
X951479Y247119D01*
X951579Y247094D01*
X951678Y247064D01*
X951698Y247064D01*
X951717Y247059D01*
X951820Y247067D01*
X951924Y247070D01*
X951943Y247077D01*
X951963Y247078D01*
X952057Y247119D01*
X952155Y247154D01*
X952171Y247167D01*
X952189Y247175D01*
X952320Y247279D01*
X959676Y254636D01*
X963677Y254636D01*
X963677Y242062D01*
X963680Y242042D01*
X963678Y242023D01*
X963700Y241921D01*
X963717Y241819D01*
X963726Y241802D01*
X963730Y241782D01*
X963783Y241693D01*
X963832Y241602D01*
X963846Y241588D01*
X963856Y241571D01*
X963935Y241504D01*
X964010Y241433D01*
X964028Y241424D01*
X964043Y241411D01*
X964139Y241373D01*
X964233Y241329D01*
X964253Y241327D01*
X964271Y241319D01*
X964438Y241301D01*
X965201Y241301D01*
X965201Y241299D01*
X964438Y241299D01*
X964418Y241296D01*
X964399Y241298D01*
X964297Y241276D01*
X964195Y241259D01*
X964178Y241250D01*
X964158Y241246D01*
X964069Y241193D01*
X963978Y241144D01*
X963964Y241130D01*
X963947Y241120D01*
X963880Y241041D01*
X963809Y240966D01*
X963800Y240948D01*
X963787Y240933D01*
X963748Y240837D01*
X963705Y240743D01*
X963703Y240723D01*
X963695Y240705D01*
X963677Y240538D01*
X963677Y227964D01*
X959676Y227964D01*
G37*
%LPD*%
%LPC*%
G36*
X416902Y439193D02*
X416902Y439193D01*
X413793Y442302D01*
X413793Y445539D01*
X413779Y445629D01*
X413771Y445720D01*
X413759Y445750D01*
X413754Y445782D01*
X413711Y445862D01*
X413675Y445946D01*
X413649Y445978D01*
X413638Y445999D01*
X413615Y446021D01*
X413570Y446077D01*
X405465Y454182D01*
X405391Y454235D01*
X405322Y454295D01*
X405292Y454307D01*
X405266Y454326D01*
X405179Y454353D01*
X405094Y454387D01*
X405053Y454391D01*
X405031Y454398D01*
X404998Y454397D01*
X404927Y454405D01*
X335225Y454405D01*
X335135Y454391D01*
X335044Y454383D01*
X335015Y454371D01*
X334983Y454366D01*
X334902Y454323D01*
X334818Y454287D01*
X334786Y454261D01*
X334765Y454250D01*
X334743Y454227D01*
X334687Y454182D01*
X332398Y451893D01*
X328002Y451893D01*
X324893Y455002D01*
X324893Y459398D01*
X328002Y462507D01*
X332398Y462507D01*
X334687Y460218D01*
X334761Y460165D01*
X334831Y460105D01*
X334861Y460093D01*
X334887Y460074D01*
X334974Y460047D01*
X335059Y460013D01*
X335100Y460009D01*
X335122Y460002D01*
X335154Y460003D01*
X335225Y459995D01*
X407558Y459995D01*
X417523Y450030D01*
X417597Y449977D01*
X417666Y449917D01*
X417696Y449905D01*
X417722Y449886D01*
X417809Y449859D01*
X417894Y449825D01*
X417935Y449821D01*
X417957Y449814D01*
X417990Y449815D01*
X418061Y449807D01*
X421298Y449807D01*
X424407Y446698D01*
X424407Y442302D01*
X421298Y439193D01*
X416902Y439193D01*
G37*
%LPD*%
%LPC*%
G36*
X442302Y134393D02*
X442302Y134393D01*
X439193Y137502D01*
X439193Y140739D01*
X439179Y140829D01*
X439171Y140920D01*
X439159Y140950D01*
X439154Y140982D01*
X439111Y141062D01*
X439075Y141146D01*
X439049Y141178D01*
X439038Y141199D01*
X439015Y141221D01*
X438970Y141277D01*
X430865Y149382D01*
X430791Y149435D01*
X430722Y149495D01*
X430692Y149507D01*
X430666Y149526D01*
X430579Y149553D01*
X430494Y149587D01*
X430453Y149591D01*
X430431Y149598D01*
X430398Y149597D01*
X430327Y149605D01*
X360625Y149605D01*
X360535Y149591D01*
X360444Y149583D01*
X360415Y149571D01*
X360383Y149566D01*
X360302Y149523D01*
X360218Y149487D01*
X360186Y149461D01*
X360165Y149450D01*
X360143Y149427D01*
X360087Y149382D01*
X357798Y147093D01*
X353402Y147093D01*
X350293Y150202D01*
X350293Y154598D01*
X353402Y157707D01*
X357798Y157707D01*
X360087Y155418D01*
X360161Y155365D01*
X360231Y155305D01*
X360261Y155293D01*
X360287Y155274D01*
X360374Y155247D01*
X360459Y155213D01*
X360500Y155209D01*
X360522Y155202D01*
X360554Y155203D01*
X360625Y155195D01*
X432958Y155195D01*
X442923Y145230D01*
X442997Y145177D01*
X443066Y145117D01*
X443096Y145105D01*
X443122Y145086D01*
X443209Y145059D01*
X443294Y145025D01*
X443335Y145021D01*
X443357Y145014D01*
X443390Y145015D01*
X443461Y145007D01*
X446698Y145007D01*
X449807Y141898D01*
X449807Y137502D01*
X446698Y134393D01*
X442302Y134393D01*
G37*
%LPD*%
%LPC*%
G36*
X645502Y451667D02*
X645502Y451667D01*
X642987Y454182D01*
X642913Y454235D01*
X642843Y454295D01*
X642813Y454307D01*
X642787Y454326D01*
X642700Y454353D01*
X642615Y454387D01*
X642574Y454391D01*
X642552Y454398D01*
X642520Y454397D01*
X642449Y454405D01*
X563825Y454405D01*
X563735Y454391D01*
X563644Y454383D01*
X563615Y454371D01*
X563583Y454366D01*
X563502Y454323D01*
X563418Y454287D01*
X563386Y454261D01*
X563365Y454250D01*
X563343Y454227D01*
X563287Y454182D01*
X560998Y451893D01*
X556602Y451893D01*
X553493Y455002D01*
X553493Y459398D01*
X556602Y462507D01*
X560998Y462507D01*
X563287Y460218D01*
X563361Y460165D01*
X563431Y460105D01*
X563461Y460093D01*
X563487Y460074D01*
X563574Y460047D01*
X563659Y460013D01*
X563700Y460009D01*
X563722Y460002D01*
X563754Y460003D01*
X563825Y459995D01*
X642901Y459995D01*
X642991Y460009D01*
X643082Y460017D01*
X643111Y460029D01*
X643143Y460034D01*
X643224Y460077D01*
X643308Y460113D01*
X643340Y460139D01*
X643361Y460150D01*
X643383Y460173D01*
X643439Y460218D01*
X645502Y462281D01*
X649898Y462281D01*
X653007Y459172D01*
X653007Y454776D01*
X649898Y451667D01*
X645502Y451667D01*
G37*
%LPD*%
%LPC*%
G36*
X99402Y426493D02*
X99402Y426493D01*
X96293Y429602D01*
X96293Y433998D01*
X99402Y437107D01*
X103798Y437107D01*
X106087Y434818D01*
X106161Y434765D01*
X106231Y434705D01*
X106261Y434693D01*
X106287Y434674D01*
X106374Y434647D01*
X106459Y434613D01*
X106500Y434609D01*
X106522Y434602D01*
X106554Y434603D01*
X106625Y434595D01*
X185475Y434595D01*
X185565Y434609D01*
X185656Y434617D01*
X185685Y434629D01*
X185717Y434634D01*
X185798Y434677D01*
X185882Y434713D01*
X185914Y434739D01*
X185935Y434750D01*
X185957Y434773D01*
X186013Y434818D01*
X188302Y437107D01*
X192698Y437107D01*
X195807Y433998D01*
X195807Y429602D01*
X192698Y426493D01*
X188302Y426493D01*
X186013Y428782D01*
X185939Y428835D01*
X185869Y428895D01*
X185839Y428907D01*
X185813Y428926D01*
X185726Y428953D01*
X185641Y428987D01*
X185600Y428991D01*
X185578Y428998D01*
X185546Y428997D01*
X185475Y429005D01*
X106625Y429005D01*
X106535Y428991D01*
X106444Y428983D01*
X106415Y428971D01*
X106383Y428966D01*
X106302Y428923D01*
X106218Y428887D01*
X106186Y428861D01*
X106165Y428850D01*
X106143Y428827D01*
X106087Y428782D01*
X103798Y426493D01*
X99402Y426493D01*
G37*
%LPD*%
%LPC*%
G36*
X556602Y426493D02*
X556602Y426493D01*
X553493Y429602D01*
X553493Y433998D01*
X556602Y437107D01*
X560998Y437107D01*
X563287Y434818D01*
X563361Y434765D01*
X563431Y434705D01*
X563461Y434693D01*
X563487Y434674D01*
X563574Y434647D01*
X563659Y434613D01*
X563700Y434609D01*
X563722Y434602D01*
X563754Y434603D01*
X563825Y434595D01*
X642675Y434595D01*
X642765Y434609D01*
X642856Y434617D01*
X642885Y434629D01*
X642917Y434634D01*
X642998Y434677D01*
X643082Y434713D01*
X643114Y434739D01*
X643135Y434750D01*
X643157Y434773D01*
X643213Y434818D01*
X645502Y437107D01*
X649898Y437107D01*
X653007Y433998D01*
X653007Y429602D01*
X649898Y426493D01*
X645502Y426493D01*
X643213Y428782D01*
X643139Y428835D01*
X643069Y428895D01*
X643039Y428907D01*
X643013Y428926D01*
X642926Y428953D01*
X642841Y428987D01*
X642800Y428991D01*
X642778Y428998D01*
X642746Y428997D01*
X642675Y429005D01*
X563825Y429005D01*
X563735Y428991D01*
X563644Y428983D01*
X563615Y428971D01*
X563583Y428966D01*
X563502Y428923D01*
X563418Y428887D01*
X563386Y428861D01*
X563365Y428850D01*
X563343Y428827D01*
X563287Y428782D01*
X560998Y426493D01*
X556602Y426493D01*
G37*
%LPD*%
%LPC*%
G36*
X328002Y426493D02*
X328002Y426493D01*
X324893Y429602D01*
X324893Y433998D01*
X328002Y437107D01*
X332398Y437107D01*
X334687Y434818D01*
X334761Y434765D01*
X334831Y434705D01*
X334861Y434693D01*
X334887Y434674D01*
X334974Y434647D01*
X335059Y434613D01*
X335100Y434609D01*
X335122Y434602D01*
X335154Y434603D01*
X335225Y434595D01*
X414075Y434595D01*
X414165Y434609D01*
X414256Y434617D01*
X414285Y434629D01*
X414317Y434634D01*
X414398Y434677D01*
X414482Y434713D01*
X414514Y434739D01*
X414535Y434750D01*
X414557Y434773D01*
X414613Y434818D01*
X416902Y437107D01*
X421298Y437107D01*
X424407Y433998D01*
X424407Y429602D01*
X421298Y426493D01*
X416902Y426493D01*
X414613Y428782D01*
X414539Y428835D01*
X414469Y428895D01*
X414439Y428907D01*
X414413Y428926D01*
X414326Y428953D01*
X414241Y428987D01*
X414200Y428991D01*
X414178Y428998D01*
X414146Y428997D01*
X414075Y429005D01*
X335225Y429005D01*
X335135Y428991D01*
X335044Y428983D01*
X335015Y428971D01*
X334983Y428966D01*
X334902Y428923D01*
X334818Y428887D01*
X334786Y428861D01*
X334765Y428850D01*
X334743Y428827D01*
X334687Y428782D01*
X332398Y426493D01*
X328002Y426493D01*
G37*
%LPD*%
%LPC*%
G36*
X99402Y451893D02*
X99402Y451893D01*
X96293Y455002D01*
X96293Y459398D01*
X99402Y462507D01*
X103798Y462507D01*
X106087Y460218D01*
X106161Y460165D01*
X106231Y460105D01*
X106261Y460093D01*
X106287Y460074D01*
X106374Y460047D01*
X106459Y460013D01*
X106500Y460009D01*
X106522Y460002D01*
X106554Y460003D01*
X106625Y459995D01*
X185475Y459995D01*
X185565Y460009D01*
X185656Y460017D01*
X185685Y460029D01*
X185717Y460034D01*
X185798Y460077D01*
X185882Y460113D01*
X185914Y460139D01*
X185935Y460150D01*
X185957Y460173D01*
X186013Y460218D01*
X188302Y462507D01*
X192698Y462507D01*
X195807Y459398D01*
X195807Y455002D01*
X192698Y451893D01*
X188302Y451893D01*
X186013Y454182D01*
X185939Y454235D01*
X185869Y454295D01*
X185839Y454307D01*
X185813Y454326D01*
X185726Y454353D01*
X185641Y454387D01*
X185600Y454391D01*
X185578Y454398D01*
X185546Y454397D01*
X185475Y454405D01*
X106625Y454405D01*
X106535Y454391D01*
X106444Y454383D01*
X106415Y454371D01*
X106383Y454366D01*
X106302Y454323D01*
X106218Y454287D01*
X106186Y454261D01*
X106165Y454250D01*
X106143Y454227D01*
X106087Y454182D01*
X103798Y451893D01*
X99402Y451893D01*
G37*
%LPD*%
%LPC*%
G36*
X797902Y261393D02*
X797902Y261393D01*
X794793Y264502D01*
X794793Y268898D01*
X797902Y272007D01*
X801139Y272007D01*
X801229Y272021D01*
X801320Y272029D01*
X801350Y272041D01*
X801382Y272046D01*
X801462Y272089D01*
X801546Y272125D01*
X801578Y272151D01*
X801599Y272162D01*
X801621Y272185D01*
X801624Y272186D01*
X801627Y272189D01*
X801677Y272230D01*
X822482Y293035D01*
X822535Y293109D01*
X822595Y293178D01*
X822607Y293208D01*
X822626Y293234D01*
X822653Y293321D01*
X822687Y293406D01*
X822691Y293447D01*
X822698Y293469D01*
X822697Y293502D01*
X822705Y293573D01*
X822705Y312115D01*
X822691Y312205D01*
X822683Y312296D01*
X822671Y312325D01*
X822666Y312357D01*
X822623Y312438D01*
X822587Y312522D01*
X822561Y312554D01*
X822550Y312575D01*
X822527Y312597D01*
X822482Y312653D01*
X820193Y314942D01*
X820193Y319338D01*
X823302Y322447D01*
X827698Y322447D01*
X830807Y319338D01*
X830807Y314942D01*
X828518Y312653D01*
X828465Y312579D01*
X828405Y312509D01*
X828393Y312479D01*
X828374Y312453D01*
X828347Y312366D01*
X828313Y312281D01*
X828309Y312240D01*
X828302Y312218D01*
X828303Y312186D01*
X828295Y312115D01*
X828295Y290942D01*
X805630Y268277D01*
X805577Y268203D01*
X805517Y268134D01*
X805505Y268104D01*
X805486Y268078D01*
X805459Y267991D01*
X805425Y267906D01*
X805421Y267865D01*
X805414Y267843D01*
X805415Y267810D01*
X805407Y267739D01*
X805407Y264502D01*
X802298Y261393D01*
X797902Y261393D01*
G37*
%LPD*%
%LPC*%
G36*
X277202Y350293D02*
X277202Y350293D01*
X274093Y353402D01*
X274093Y357798D01*
X276382Y360087D01*
X276435Y360161D01*
X276495Y360231D01*
X276507Y360261D01*
X276526Y360287D01*
X276553Y360374D01*
X276587Y360459D01*
X276591Y360500D01*
X276598Y360522D01*
X276597Y360554D01*
X276605Y360625D01*
X276605Y388675D01*
X276591Y388765D01*
X276583Y388856D01*
X276571Y388885D01*
X276566Y388917D01*
X276523Y388998D01*
X276487Y389082D01*
X276461Y389114D01*
X276450Y389135D01*
X276427Y389157D01*
X276382Y389213D01*
X274093Y391502D01*
X274093Y395898D01*
X277202Y399007D01*
X281598Y399007D01*
X284707Y395898D01*
X284707Y391502D01*
X282418Y389213D01*
X282365Y389139D01*
X282305Y389069D01*
X282293Y389039D01*
X282274Y389013D01*
X282247Y388926D01*
X282213Y388841D01*
X282209Y388800D01*
X282202Y388778D01*
X282203Y388746D01*
X282195Y388675D01*
X282195Y360625D01*
X282209Y360535D01*
X282217Y360444D01*
X282229Y360415D01*
X282234Y360383D01*
X282277Y360302D01*
X282313Y360218D01*
X282339Y360186D01*
X282350Y360165D01*
X282373Y360143D01*
X282418Y360087D01*
X284707Y357798D01*
X284707Y353402D01*
X281598Y350293D01*
X277202Y350293D01*
G37*
%LPD*%
%LPC*%
G36*
X264502Y286793D02*
X264502Y286793D01*
X261393Y289902D01*
X261393Y294298D01*
X263682Y296587D01*
X263735Y296661D01*
X263795Y296731D01*
X263807Y296761D01*
X263826Y296787D01*
X263853Y296874D01*
X263887Y296959D01*
X263891Y297000D01*
X263898Y297022D01*
X263897Y297054D01*
X263905Y297125D01*
X263905Y312475D01*
X263891Y312565D01*
X263883Y312656D01*
X263871Y312685D01*
X263866Y312717D01*
X263823Y312798D01*
X263787Y312882D01*
X263761Y312914D01*
X263750Y312935D01*
X263727Y312957D01*
X263682Y313013D01*
X261393Y315302D01*
X261393Y319698D01*
X264502Y322807D01*
X268898Y322807D01*
X272007Y319698D01*
X272007Y315302D01*
X269718Y313013D01*
X269665Y312939D01*
X269605Y312869D01*
X269593Y312839D01*
X269574Y312813D01*
X269547Y312726D01*
X269513Y312641D01*
X269509Y312600D01*
X269502Y312578D01*
X269503Y312546D01*
X269495Y312475D01*
X269495Y297125D01*
X269496Y297117D01*
X269496Y297113D01*
X269500Y297095D01*
X269509Y297035D01*
X269517Y296944D01*
X269529Y296915D01*
X269534Y296883D01*
X269577Y296802D01*
X269613Y296718D01*
X269639Y296686D01*
X269650Y296665D01*
X269673Y296643D01*
X269718Y296587D01*
X272007Y294298D01*
X272007Y289902D01*
X268898Y286793D01*
X264502Y286793D01*
G37*
%LPD*%
%LPC*%
G36*
X26923Y522223D02*
X26923Y522223D01*
X26923Y534036D01*
X30924Y534036D01*
X38736Y526224D01*
X38736Y522223D01*
X26923Y522223D01*
G37*
%LPD*%
%LPC*%
G36*
X966723Y242823D02*
X966723Y242823D01*
X966723Y254636D01*
X970724Y254636D01*
X978536Y246824D01*
X978536Y242823D01*
X966723Y242823D01*
G37*
%LPD*%
%LPC*%
G36*
X977264Y522223D02*
X977264Y522223D01*
X977264Y526224D01*
X985076Y534036D01*
X989077Y534036D01*
X989077Y522223D01*
X977264Y522223D01*
G37*
%LPD*%
%LPC*%
G36*
X26923Y507364D02*
X26923Y507364D01*
X26923Y519177D01*
X38736Y519177D01*
X38736Y515176D01*
X30924Y507364D01*
X26923Y507364D01*
G37*
%LPD*%
%LPC*%
G36*
X966723Y227964D02*
X966723Y227964D01*
X966723Y239777D01*
X978536Y239777D01*
X978536Y235776D01*
X970724Y227964D01*
X966723Y227964D01*
G37*
%LPD*%
%LPC*%
G36*
X985076Y507364D02*
X985076Y507364D01*
X977264Y515176D01*
X977264Y519177D01*
X989077Y519177D01*
X989077Y507364D01*
X985076Y507364D01*
G37*
%LPD*%
D10*
X977900Y355600D03*
X977900Y279400D03*
X25400Y457200D03*
X25400Y330200D03*
X25400Y431800D03*
X25400Y406400D03*
X977900Y431800D03*
X977900Y304800D03*
X25400Y520700D03*
X990600Y520700D03*
X965200Y241300D03*
X876300Y241300D03*
X977900Y457200D03*
X901700Y241300D03*
X977900Y381000D03*
X977900Y406400D03*
X25400Y355600D03*
X25400Y381000D03*
X939800Y241300D03*
X977900Y330200D03*
X38100Y241300D03*
X63500Y241300D03*
X25400Y279400D03*
X25400Y304800D03*
X355600Y92710D03*
X381000Y92710D03*
X406400Y92710D03*
X330200Y92710D03*
X381000Y63500D03*
X330200Y63500D03*
X355600Y63500D03*
D11*
X571500Y330426D03*
X533400Y381000D03*
X762000Y508000D03*
X76200Y508000D03*
X596900Y63500D03*
X796290Y62230D03*
X444500Y38100D03*
X500380Y20546D03*
X800100Y330200D03*
X762000Y406400D03*
X787400Y457200D03*
X101600Y444500D03*
X52443Y418203D03*
X444500Y330200D03*
X660400Y149860D03*
X774700Y520700D03*
X698500Y215900D03*
X546100Y520700D03*
X317500Y520700D03*
X609600Y217170D03*
X596900Y444500D03*
X711200Y431800D03*
X482600Y431800D03*
X254000Y431800D03*
X915670Y429260D03*
X304800Y381000D03*
X368300Y444500D03*
X482600Y139700D03*
X416050Y187450D03*
X698500Y139700D03*
D12*
X152400Y266700D02*
X76200Y342900D01*
X76200Y431800D01*
X50800Y457200D01*
X25400Y457200D01*
D11*
X609600Y76200D03*
D12*
X439420Y266700D02*
X152400Y266700D01*
X698500Y139700D02*
X717776Y120424D01*
X711200Y76200D02*
X609600Y76200D01*
X711200Y76200D02*
X717776Y82776D01*
X717776Y120424D01*
X515620Y190500D02*
X439420Y266700D01*
D11*
X515620Y190500D03*
X741680Y50800D03*
D12*
X580691Y53039D02*
X570230Y63500D01*
D11*
X570230Y63500D03*
D12*
X615347Y50800D02*
X741680Y50800D01*
X615347Y50800D02*
X611283Y54864D01*
X582517Y54864D01*
X580691Y53039D01*
D11*
X825500Y482600D03*
X596900Y482600D03*
D12*
X825500Y482600D01*
D11*
X368300Y482600D03*
D12*
X596900Y482600D01*
D11*
X139700Y482600D03*
D12*
X368300Y482600D01*
D11*
X507774Y34924D03*
D12*
X565560Y63500D02*
X570230Y63500D01*
X565560Y63500D02*
X555174Y73886D01*
X546736Y73886D01*
X507774Y34924D01*
D11*
X381000Y127000D03*
X419100Y76200D03*
D12*
X419989Y77089D02*
X419989Y100711D01*
X419989Y77089D02*
X419100Y76200D01*
X393700Y127000D02*
X381000Y127000D01*
X393700Y127000D02*
X419989Y100711D01*
D11*
X444500Y114300D03*
D12*
X430911Y100711D01*
X419989Y100711D01*
D11*
X266700Y317500D03*
D12*
X266700Y292100D01*
D11*
X266700Y292100D03*
D12*
X787908Y208250D02*
X787908Y191008D01*
X787400Y190500D01*
X787908Y208250D02*
X808258Y228600D01*
X787400Y190500D02*
X787400Y165100D01*
X736600Y165100D01*
X721360Y149860D01*
X712470Y149860D01*
D11*
X712470Y149860D03*
X688340Y165100D03*
D12*
X697230Y165100D01*
X712470Y149860D01*
X882482Y279400D02*
X977900Y279400D01*
X882482Y279400D02*
X831682Y228600D01*
X808258Y228600D01*
X688340Y165100D02*
X688340Y111760D01*
X711200Y88900D01*
X702564Y80264D01*
X618236Y80264D02*
X609600Y88900D01*
D11*
X609600Y88900D03*
D12*
X618236Y80264D02*
X702564Y80264D01*
D11*
X775236Y38100D03*
D12*
X750344Y13208D01*
X418592Y13208D02*
X398399Y33401D01*
X398399Y65319D01*
X381000Y82718D02*
X381000Y92710D01*
X381000Y82718D02*
X398399Y65319D01*
X418592Y13208D02*
X750344Y13208D01*
D11*
X609600Y25400D03*
D12*
X406400Y38100D02*
X406400Y92710D01*
X607878Y27122D02*
X609600Y25400D01*
X607878Y27122D02*
X417378Y27122D01*
X406400Y38100D01*
D11*
X355600Y152400D03*
D12*
X431800Y152400D01*
X444500Y139700D01*
D11*
X444500Y139700D03*
X622300Y292100D03*
D12*
X622300Y89006D01*
D11*
X622300Y89006D03*
X698500Y88900D03*
D12*
X673100Y114300D01*
X679676Y238576D02*
X679676Y241300D01*
X679676Y238576D02*
X673100Y232000D01*
X673100Y114300D01*
X679676Y241300D02*
X736600Y298224D01*
X736600Y330200D01*
D11*
X736600Y330200D03*
X647700Y88900D03*
D12*
X647700Y228600D01*
X660400Y241300D01*
D11*
X660400Y241300D03*
X800100Y266700D03*
D12*
X825500Y292100D01*
X825500Y317140D01*
D11*
X825500Y317140D03*
X596900Y419100D03*
D12*
X603476Y107724D02*
X609600Y101600D01*
D11*
X609600Y101600D03*
D12*
X596900Y132853D02*
X596900Y419100D01*
X596900Y132853D02*
X603476Y126277D01*
X603476Y107724D01*
D11*
X501650Y49530D03*
D12*
X501650Y172720D02*
X432435Y241935D01*
X501650Y172720D02*
X501650Y49530D01*
D11*
X432435Y241935D03*
X552450Y90170D03*
D12*
X552450Y374650D01*
X508000Y419100D01*
X368300Y419100D01*
D11*
X368300Y419100D03*
X469900Y101600D03*
D12*
X469900Y190500D01*
X406400Y254000D01*
X165100Y254000D01*
D11*
X165100Y254000D03*
X551553Y39743D03*
D12*
X551553Y66413D01*
X552450Y67310D01*
D11*
X552450Y67310D03*
X521970Y100330D03*
D12*
X522196Y100556D02*
X522196Y379504D01*
X522196Y100556D02*
X521970Y100330D01*
X522196Y379504D02*
X490220Y411480D01*
X147320Y411480D01*
X139700Y419100D01*
D11*
X139700Y419100D03*
X774700Y139700D03*
D12*
X787400Y152400D01*
X800100Y152400D01*
X800100Y207742D02*
X808258Y215900D01*
X800100Y207742D02*
X800100Y152400D01*
X990600Y215900D02*
X1003300Y228600D01*
X1003300Y444500D01*
X990600Y457200D01*
X977900Y457200D01*
X990600Y215900D02*
X808258Y215900D01*
D11*
X101600Y431800D03*
D12*
X190500Y431800D01*
D11*
X190500Y431800D03*
X330200Y431800D03*
D12*
X419100Y431800D01*
D11*
X419100Y431800D03*
X558800Y431800D03*
D12*
X647700Y431800D01*
D11*
X647700Y431800D03*
X876300Y431800D03*
X762000Y431800D03*
D12*
X876300Y431800D01*
X876300Y444500D02*
X774700Y444500D01*
D11*
X876300Y444500D03*
X762000Y457200D03*
D12*
X774700Y444500D01*
D11*
X558800Y457200D03*
D12*
X647474Y457200D01*
X647700Y456974D01*
D11*
X647700Y456974D03*
X330200Y457200D03*
D12*
X406400Y457200D01*
X419100Y444500D01*
D11*
X419100Y444500D03*
X101600Y457200D03*
D12*
X190500Y457200D01*
D11*
X190500Y457200D03*
X850900Y355600D03*
D12*
X845820Y350520D01*
X711200Y350520D01*
D11*
X711200Y350520D03*
X88900Y342900D03*
D12*
X317500Y342900D01*
D11*
X317500Y342900D03*
D12*
X364490Y127000D02*
X368300Y127000D01*
X364490Y127000D02*
X330200Y92710D01*
D11*
X368300Y127000D03*
D12*
X46736Y308864D02*
X25400Y330200D01*
X46736Y308864D02*
X52483Y308864D01*
X137319Y224028D01*
D11*
X355600Y177800D03*
D12*
X327632Y205768D01*
X327632Y209551D02*
X313155Y224028D01*
X327632Y209551D02*
X327632Y205768D01*
X313155Y224028D02*
X137319Y224028D01*
X50800Y304800D02*
X25400Y304800D01*
X50800Y304800D02*
X135636Y219964D01*
D11*
X327660Y177800D03*
D12*
X323568Y181892D01*
X323568Y207868D02*
X311472Y219964D01*
X323568Y207868D02*
X323568Y181892D01*
X311472Y219964D02*
X135636Y219964D01*
D11*
X319504Y139700D03*
D12*
X319504Y206184D02*
X309788Y215900D01*
X127000Y215900D01*
X319504Y206184D02*
X319504Y139700D01*
X127000Y215900D02*
X63500Y279400D01*
X25400Y279400D01*
X50800Y381000D02*
X25400Y406400D01*
X50800Y381000D02*
X50800Y317500D01*
D11*
X381000Y177800D03*
D12*
X140208Y228092D02*
X50800Y317500D01*
X140208Y228092D02*
X314839Y228092D01*
X365131Y177800D02*
X381000Y177800D01*
X365131Y177800D02*
X314839Y228092D01*
X63500Y393700D02*
X25400Y431800D01*
X63500Y393700D02*
X63500Y317500D01*
X139700Y241300D01*
X330200Y241300D02*
X381000Y190500D01*
D11*
X381000Y190500D03*
D12*
X330200Y241300D02*
X139700Y241300D01*
X952500Y406400D02*
X977900Y431800D01*
X927100Y292100D02*
X876300Y292100D01*
X838200Y254000D01*
X723900Y254000D01*
D11*
X723900Y254000D03*
D12*
X952500Y317500D02*
X952500Y406400D01*
X952500Y317500D02*
X927100Y292100D01*
D11*
X927100Y317500D03*
D12*
X939800Y330200D01*
X939800Y431800D01*
D11*
X939800Y431800D03*
X279400Y355600D03*
D12*
X279400Y393700D01*
D11*
X279400Y393700D03*
M02*
