G04 EAGLE Gerber RS-274X export*
G75*
%MOMM*%
%FSLAX34Y34*%
%LPD*%
%INVias*%
%IPPOS*%
%AMOC8*
5,1,8,0,0,1.08239X$1,22.5*%
G01*
%ADD10C,0.756400*%


D10*
X571500Y330426D03*
X533400Y381000D03*
X762000Y508000D03*
X76200Y508000D03*
X596900Y63500D03*
X796290Y62230D03*
X444500Y38100D03*
X500380Y20546D03*
X800100Y330200D03*
X762000Y406400D03*
X787400Y457200D03*
X101600Y444500D03*
X52443Y418203D03*
X444500Y330200D03*
X660400Y149860D03*
X774700Y520700D03*
X698500Y215900D03*
X546100Y520700D03*
X317500Y520700D03*
X609600Y217170D03*
X596900Y444500D03*
X711200Y431800D03*
X482600Y431800D03*
X254000Y431800D03*
X915670Y429260D03*
X304800Y381000D03*
X368300Y444500D03*
X482600Y139700D03*
X416050Y187450D03*
X698500Y139700D03*
X609600Y76200D03*
X515620Y190500D03*
X741680Y50800D03*
X570230Y63500D03*
X825500Y482600D03*
X596900Y482600D03*
X368300Y482600D03*
X139700Y482600D03*
X507774Y34924D03*
X381000Y127000D03*
X419100Y76200D03*
X444500Y114300D03*
X266700Y317500D03*
X266700Y292100D03*
X712470Y149860D03*
X688340Y165100D03*
X609600Y88900D03*
X775236Y38100D03*
X609600Y25400D03*
X355600Y152400D03*
X444500Y139700D03*
X622300Y292100D03*
X622300Y89006D03*
X698500Y88900D03*
X736600Y330200D03*
X647700Y88900D03*
X660400Y241300D03*
X800100Y266700D03*
X825500Y317140D03*
X596900Y419100D03*
X609600Y101600D03*
X501650Y49530D03*
X432435Y241935D03*
X552450Y90170D03*
X368300Y419100D03*
X469900Y101600D03*
X165100Y254000D03*
X551553Y39743D03*
X552450Y67310D03*
X521970Y100330D03*
X139700Y419100D03*
X774700Y139700D03*
X101600Y431800D03*
X190500Y431800D03*
X330200Y431800D03*
X419100Y431800D03*
X558800Y431800D03*
X647700Y431800D03*
X876300Y431800D03*
X762000Y431800D03*
X876300Y444500D03*
X762000Y457200D03*
X558800Y457200D03*
X647700Y456974D03*
X330200Y457200D03*
X419100Y444500D03*
X101600Y457200D03*
X190500Y457200D03*
X850900Y355600D03*
X711200Y350520D03*
X88900Y342900D03*
X317500Y342900D03*
X368300Y127000D03*
X355600Y177800D03*
X327660Y177800D03*
X319504Y139700D03*
X381000Y177800D03*
X381000Y190500D03*
X723900Y254000D03*
X927100Y317500D03*
X939800Y431800D03*
X279400Y355600D03*
X279400Y393700D03*
M02*
