G04 EAGLE Gerber RS-274X export*
G75*
%MOMM*%
%FSLAX34Y34*%
%LPD*%
%INSolderpaste Top*%
%IPPOS*%
%AMOC8*
5,1,8,0,0,1.08239X$1,22.5*%
G01*
%ADD10R,1.300000X1.500000*%
%ADD11R,2.200000X0.600000*%
%ADD12R,1.000000X1.400000*%
%ADD13R,1.528000X0.650000*%


D10*
X352400Y317500D03*
X333400Y317500D03*
X123800Y317500D03*
X104800Y317500D03*
X784200Y76200D03*
X765200Y76200D03*
X581000Y50800D03*
X562000Y50800D03*
X631800Y177800D03*
X612800Y177800D03*
X663600Y127000D03*
X682600Y127000D03*
X784200Y177800D03*
X765200Y177800D03*
X765200Y152400D03*
X784200Y152400D03*
X771500Y368300D03*
X752500Y368300D03*
X771500Y393700D03*
X752500Y393700D03*
X771500Y469900D03*
X752500Y469900D03*
X542900Y368300D03*
X523900Y368300D03*
X542900Y393700D03*
X523900Y393700D03*
X542900Y469900D03*
X523900Y469900D03*
X314300Y368300D03*
X295300Y368300D03*
X314300Y393700D03*
X295300Y393700D03*
X314300Y469900D03*
X295300Y469900D03*
X85700Y368300D03*
X66700Y368300D03*
X85700Y393700D03*
X66700Y393700D03*
X85700Y469900D03*
X66700Y469900D03*
X771500Y495300D03*
X752500Y495300D03*
X720700Y368300D03*
X701700Y368300D03*
X720700Y393700D03*
X701700Y393700D03*
X492100Y368300D03*
X473100Y368300D03*
X492100Y393700D03*
X473100Y393700D03*
X263500Y368300D03*
X244500Y368300D03*
X263500Y393700D03*
X244500Y393700D03*
X949300Y368300D03*
X930300Y368300D03*
X949300Y393700D03*
X930300Y393700D03*
X949300Y469900D03*
X930300Y469900D03*
X949300Y444500D03*
X930300Y444500D03*
X720700Y469900D03*
X701700Y469900D03*
X720700Y444500D03*
X701700Y444500D03*
X492100Y469900D03*
X473100Y469900D03*
X492100Y444500D03*
X473100Y444500D03*
X263500Y469900D03*
X244500Y469900D03*
X263500Y444500D03*
X244500Y444500D03*
X809600Y520700D03*
X790600Y520700D03*
X581000Y520700D03*
X562000Y520700D03*
X352400Y520700D03*
X333400Y520700D03*
X123800Y520700D03*
X104800Y520700D03*
X581000Y127000D03*
X562000Y127000D03*
X930300Y419100D03*
X949300Y419100D03*
X892200Y342900D03*
X911200Y342900D03*
X581000Y342900D03*
X562000Y342900D03*
X435000Y342900D03*
X454000Y342900D03*
X206400Y342900D03*
X225400Y342900D03*
X498500Y228600D03*
X517500Y228600D03*
X562000Y228600D03*
X581000Y228600D03*
X435000Y228600D03*
X454000Y228600D03*
X454000Y203200D03*
X435000Y203200D03*
X809600Y342900D03*
X790600Y342900D03*
X663600Y342900D03*
X682600Y342900D03*
X454000Y127000D03*
X435000Y127000D03*
X352400Y342900D03*
X333400Y342900D03*
X123800Y342900D03*
X104800Y342900D03*
X542900Y495300D03*
X523900Y495300D03*
X314300Y495300D03*
X295300Y495300D03*
X85700Y495300D03*
X66700Y495300D03*
X841400Y317500D03*
X860400Y317500D03*
X358800Y228600D03*
X377800Y228600D03*
X612800Y317500D03*
X631800Y317500D03*
D11*
X672500Y184150D03*
X724500Y184150D03*
X672500Y196850D03*
X672500Y171450D03*
X672500Y158750D03*
X724500Y196850D03*
X724500Y171450D03*
X724500Y158750D03*
X672500Y44450D03*
X724500Y44450D03*
X672500Y57150D03*
X672500Y31750D03*
X672500Y19050D03*
X724500Y57150D03*
X724500Y31750D03*
X724500Y19050D03*
X482000Y44450D03*
X534000Y44450D03*
X482000Y57150D03*
X482000Y31750D03*
X482000Y19050D03*
X534000Y57150D03*
X534000Y31750D03*
X534000Y19050D03*
X804900Y463550D03*
X896900Y438150D03*
X804900Y476250D03*
X804900Y450850D03*
X804900Y438150D03*
X896900Y450850D03*
X896900Y425450D03*
X896900Y412750D03*
X804900Y412750D03*
X896900Y387350D03*
X804900Y425450D03*
X804900Y400050D03*
X896900Y400050D03*
X804900Y387350D03*
X896900Y463550D03*
X896900Y476250D03*
X576300Y463550D03*
X668300Y438150D03*
X576300Y476250D03*
X576300Y450850D03*
X576300Y438150D03*
X668300Y450850D03*
X668300Y425450D03*
X668300Y412750D03*
X576300Y412750D03*
X668300Y387350D03*
X576300Y425450D03*
X576300Y400050D03*
X668300Y400050D03*
X576300Y387350D03*
X668300Y463550D03*
X668300Y476250D03*
X347700Y463550D03*
X439700Y438150D03*
X347700Y476250D03*
X347700Y450850D03*
X347700Y438150D03*
X439700Y450850D03*
X439700Y425450D03*
X439700Y412750D03*
X347700Y412750D03*
X439700Y387350D03*
X347700Y425450D03*
X347700Y400050D03*
X439700Y400050D03*
X347700Y387350D03*
X439700Y463550D03*
X439700Y476250D03*
X119100Y463550D03*
X211100Y438150D03*
X119100Y476250D03*
X119100Y450850D03*
X119100Y438150D03*
X211100Y450850D03*
X211100Y425450D03*
X211100Y412750D03*
X119100Y412750D03*
X211100Y387350D03*
X119100Y425450D03*
X119100Y400050D03*
X211100Y400050D03*
X119100Y387350D03*
X211100Y463550D03*
X211100Y476250D03*
D12*
X673100Y99900D03*
X682600Y77900D03*
X663600Y77900D03*
X723900Y99900D03*
X733400Y77900D03*
X714400Y77900D03*
X482600Y99900D03*
X492100Y77900D03*
X473100Y77900D03*
X533400Y99900D03*
X542900Y77900D03*
X523900Y77900D03*
D10*
X435000Y177800D03*
X454000Y177800D03*
X454000Y152400D03*
X435000Y152400D03*
X625500Y50800D03*
X644500Y50800D03*
X562000Y317500D03*
X581000Y317500D03*
X625500Y25400D03*
X644500Y25400D03*
X765200Y25400D03*
X784200Y25400D03*
X809600Y317500D03*
X790600Y317500D03*
X765200Y50800D03*
X784200Y50800D03*
X435000Y25400D03*
X454000Y25400D03*
X403200Y317500D03*
X384200Y317500D03*
X435000Y50800D03*
X454000Y50800D03*
X454000Y76200D03*
X435000Y76200D03*
X155600Y317500D03*
X174600Y317500D03*
X562000Y25400D03*
X581000Y25400D03*
X612800Y152400D03*
X631800Y152400D03*
X612800Y203200D03*
X631800Y203200D03*
X612800Y127000D03*
X631800Y127000D03*
X765200Y203200D03*
X784200Y203200D03*
X689000Y228600D03*
X708000Y228600D03*
X784200Y127000D03*
X765200Y127000D03*
X733400Y127000D03*
X714400Y127000D03*
X930300Y495300D03*
X949300Y495300D03*
X892200Y520700D03*
X911200Y520700D03*
X860400Y520700D03*
X841400Y520700D03*
X771500Y444500D03*
X752500Y444500D03*
X771500Y419100D03*
X752500Y419100D03*
X701700Y495300D03*
X720700Y495300D03*
X663600Y520700D03*
X682600Y520700D03*
X631800Y520700D03*
X612800Y520700D03*
X542900Y444500D03*
X523900Y444500D03*
X542900Y419100D03*
X523900Y419100D03*
X473100Y495300D03*
X492100Y495300D03*
X435000Y520700D03*
X454000Y520700D03*
X403200Y520700D03*
X384200Y520700D03*
X314300Y444500D03*
X295300Y444500D03*
X314300Y419100D03*
X295300Y419100D03*
X244500Y495300D03*
X263500Y495300D03*
X206400Y520700D03*
X225400Y520700D03*
X174600Y520700D03*
X155600Y520700D03*
X85700Y444500D03*
X66700Y444500D03*
X85700Y419100D03*
X66700Y419100D03*
X562000Y203200D03*
X581000Y203200D03*
X841400Y342900D03*
X860400Y342900D03*
X612800Y342900D03*
X631800Y342900D03*
X384200Y342900D03*
X403200Y342900D03*
X155600Y342900D03*
X174600Y342900D03*
X562000Y177800D03*
X581000Y177800D03*
D13*
X341190Y203200D03*
X341190Y190500D03*
X341190Y177800D03*
X341190Y165100D03*
X341190Y152400D03*
X341190Y139700D03*
X341190Y127000D03*
X395410Y127000D03*
X395410Y139700D03*
X395410Y152400D03*
X395410Y165100D03*
X395410Y177800D03*
X395410Y190500D03*
X395410Y203200D03*
D10*
X352400Y19050D03*
X333400Y19050D03*
D11*
X481400Y184150D03*
X533400Y184150D03*
X481400Y196850D03*
X481400Y171450D03*
X481400Y158750D03*
X533400Y196850D03*
X533400Y171450D03*
X533400Y158750D03*
D10*
X701700Y419100D03*
X720700Y419100D03*
X473100Y419100D03*
X492100Y419100D03*
X244500Y419100D03*
X263500Y419100D03*
X911200Y317500D03*
X892200Y317500D03*
X663600Y317500D03*
X682600Y317500D03*
X435000Y317500D03*
X454000Y317500D03*
X206400Y317500D03*
X225400Y317500D03*
X581000Y152400D03*
X562000Y152400D03*
M02*
