M48
;GenerationSoftware,Autodesk,EAGLE,9.3.2*%
;CreationDate,2020-09-05T19:31:16Z*%
FMAT,2
ICI,OFF
METRIC,TZ,000.000
T2C0.350
T1C1.016
%
G90
M71
T1
X35560Y6350
X97790Y38100
X97790Y35560
X97790Y27940
X2540Y45720
X2540Y33020
X2540Y43180
X2540Y40640
X97790Y43180
X97790Y30480
X2540Y52070
X99060Y52070
X96520Y24130
X87630Y24130
X97790Y45720
X90170Y24130
X97790Y40640
X2540Y35560
X2540Y38100
X93980Y24130
X97790Y33020
X3810Y24130
X6350Y24130
X2540Y27940
X2540Y30480
X35560Y9271
X38100Y9271
X40640Y9271
X33020Y9271
X38100Y6350
X33020Y6350
T2
X51562Y19050
X74168Y5080
X57023Y6350
X82550Y48260
X59690Y48260
X36830Y48260
X13970Y48260
X50777Y3492
X38100Y12700
X41910Y7620
X44450Y11430
X26670Y31750
X26670Y29210
X71247Y14986
X68834Y16510
X60960Y8890
X77524Y3810
X60960Y2540
X35560Y15240
X44450Y13970
X62230Y29210
X62230Y8901
X69850Y8890
X73660Y33020
X64770Y8890
X66040Y24130
X80010Y26670
X82550Y31714
X59690Y41910
X60960Y10160
X50165Y4953
X43244Y24193
X55245Y9017
X36830Y41910
X46990Y10160
X16510Y25400
X69850Y21590
X55245Y6731
X52197Y10033
X13970Y41910
X77470Y13970
X10160Y43180
X19050Y43180
X33020Y43180
X41910Y43180
X55880Y43180
X64770Y43180
X87630Y43180
X76200Y43180
X87630Y44450
X76200Y45720
X55880Y45720
X64770Y45697
X33020Y45720
X41910Y44450
X10160Y45720
X19050Y45720
X85090Y35560
X71120Y35052
X8890Y34290
X31750Y34290
X36830Y12700
X35560Y17780
X32766Y17780
X31950Y13970
X38100Y17780
X38100Y19050
X72390Y25400
X92710Y31750
X93980Y43180
X57150Y33043
X27940Y39370
X53340Y38100
X76200Y50800
X7620Y50800
X59690Y6350
X79629Y6223
X44450Y3810
X50038Y2055
X80010Y33020
X76200Y40640
X78740Y45720
X10160Y44450
X5244Y41820
X44450Y33020
X66040Y14986
X55155Y3974
X77470Y52070
X54610Y52070
X31750Y52070
X60960Y21717
X59690Y44450
X71120Y43180
X48260Y43180
X25400Y43180
X91567Y42926
X30480Y38100
X36830Y44450
X48260Y13970
X41605Y18745
X69850Y13970
X60960Y7620
X27940Y35560
M30